<svg width="739" height="396" viewBox="0 0 739 396" fill="none" xmlns="http://www.w3.org/2000/svg">
<g opacity="0.6">
<path d="M6.76585 330.008H0V338.926H6.76585V330.008Z" fill="#ABBBFE"/>
<path d="M3.88099 311.414H2.88086V329.974H3.88099V311.414Z" fill="#ABBBFE"/>
<path d="M3.88099 338.922H2.88086V357.482H3.88099V338.922Z" fill="#ABBBFE"/>
<path d="M24.6233 334.398H17.8574V354.534H24.6233V334.398Z" fill="#1F47F3"/>
<path d="M21.7443 315.844H20.7441V334.404H21.7443V315.844Z" fill="#1F47F3"/>
<path d="M21.7443 354.555H20.7441V373.115H21.7443V354.555Z" fill="#1F47F3"/>
<path d="M42.4895 310.414H35.7227V362.827H42.4895V310.414Z" fill="#ABBBFE"/>
<path d="M39.5997 291.867H38.5996V310.427H39.5997V291.867Z" fill="#ABBBFE"/>
<path d="M39.5997 362.812H38.5996V381.372H39.5997V362.812Z" fill="#ABBBFE"/>
<path d="M60.342 337.008H53.5762V377.123H60.342V337.008Z" fill="#1F47F3"/>
<path d="M57.4572 318.461H56.457V337.021H57.4572V318.461Z" fill="#1F47F3"/>
<path d="M57.4572 377.133H56.457V395.693H57.4572V377.133Z" fill="#1F47F3"/>
<path d="M78.1975 313.102H71.4316V333.236H78.1975V313.102Z" fill="#ABBBFE"/>
<path d="M75.3185 294.523H74.3184V313.083H75.3185V294.523Z" fill="#ABBBFE"/>
<path d="M75.3185 333.234H74.3184V351.794H75.3185V333.234Z" fill="#ABBBFE"/>
<path d="M96.0647 313.414H89.2988V350.622H96.0647V313.414Z" fill="#1F47F3"/>
<path d="M93.1798 294.844H92.1797V313.404H93.1798V294.844Z" fill="#1F47F3"/>
<path d="M93.1798 350.625H92.1797V369.185H93.1798V350.625Z" fill="#1F47F3"/>
<path d="M113.922 266.797H107.156V317.334H113.922V266.797Z" fill="#ABBBFE"/>
<path d="M111.037 248.219H110.037V266.779H111.037V248.219Z" fill="#ABBBFE"/>
<path d="M111.037 317.328H110.037V335.888H111.037V317.328Z" fill="#ABBBFE"/>
<path d="M131.781 246.742H125.016V311.423H131.781V246.742Z" fill="#1F47F3"/>
<path d="M128.902 228.195H127.902V246.755H128.902V228.195Z" fill="#1F47F3"/>
<path d="M128.902 311.414H127.902V329.974H128.902V311.414Z" fill="#1F47F3"/>
<path d="M149.645 258.977H142.879V271.258H149.645V258.977Z" fill="#ABBBFE"/>
<path d="M146.762 240.383H145.762V258.943H146.762V240.383Z" fill="#ABBBFE"/>
<path d="M146.762 271.227H145.762V289.786H146.762V271.227Z" fill="#ABBBFE"/>
<path d="M167.501 251.953H160.734V279.017H167.501V251.953Z" fill="#1F47F3"/>
<path d="M164.617 233.383H163.617V251.943H164.617V233.383Z" fill="#1F47F3"/>
<path d="M164.617 279H163.617V297.56H164.617V279Z" fill="#1F47F3"/>
<path d="M185.354 197.766H178.588V266.894H185.354V197.766Z" fill="#ABBBFE"/>
<path d="M182.475 179.188H181.475V197.747H182.475V179.188Z" fill="#ABBBFE"/>
<path d="M182.475 266.883H181.475V285.443H182.475V266.883Z" fill="#ABBBFE"/>
<path d="M203.221 243.289H196.455V290.394H203.221V243.289Z" fill="#1F47F3"/>
<path d="M200.342 224.719H199.342V243.279H200.342V224.719Z" fill="#1F47F3"/>
<path d="M200.342 290.391H199.342V308.95H200.342V290.391Z" fill="#1F47F3"/>
<path d="M221.076 239.977H214.311V259.505H221.076V239.977Z" fill="#ABBBFE"/>
<path d="M218.197 221.422H217.197V239.982H218.197V221.422Z" fill="#ABBBFE"/>
<path d="M218.197 259.5H217.197V278.06H218.197V259.5Z" fill="#ABBBFE"/>
<path d="M238.934 218.219H232.168V238.056H238.934V218.219Z" fill="#1F47F3"/>
<path d="M236.055 199.648H235.055V218.208H236.055V199.648Z" fill="#1F47F3"/>
<path d="M236.055 238.062H235.055V256.622H236.055V238.062Z" fill="#1F47F3"/>
<path d="M256.801 173.414H250.035V223.039H256.801V173.414Z" fill="#ABBBFE"/>
<path d="M253.91 154.844H252.91V173.404H253.91V154.844Z" fill="#ABBBFE"/>
<path d="M253.91 223.039H252.91V241.599H253.91V223.039Z" fill="#ABBBFE"/>
<path d="M274.656 160.297H267.891V194.282H274.656V160.297Z" fill="#1F47F3"/>
<path d="M271.772 141.75H270.771V160.31H271.772V141.75Z" fill="#1F47F3"/>
<path d="M271.772 194.305H270.771V212.865H271.772V194.305Z" fill="#1F47F3"/>
<path d="M292.518 184.461H285.752V197.757H292.518V184.461Z" fill="#ABBBFE"/>
<path d="M289.629 165.914H288.629V184.474H289.629V165.914Z" fill="#ABBBFE"/>
<path d="M289.629 197.766H288.629V216.325H289.629V197.766Z" fill="#ABBBFE"/>
<path d="M310.375 205.258H303.609V219.578H310.375V205.258Z" fill="#1F47F3"/>
<path d="M307.496 186.711H306.496V205.271H307.496V186.711Z" fill="#1F47F3"/>
<path d="M307.496 219.578H306.496V238.138H307.496V219.578Z" fill="#1F47F3"/>
<path d="M328.235 180.758H321.469V197.551H328.235V180.758Z" fill="#ABBBFE"/>
<path d="M325.352 162.203H324.352V180.763H325.352V162.203Z" fill="#ABBBFE"/>
<path d="M325.352 197.555H324.352V216.115H325.352V197.555Z" fill="#ABBBFE"/>
<path d="M346.094 165.484H339.328V221.819H346.094V165.484Z" fill="#1F47F3"/>
<path d="M343.209 146.93H342.209V165.49H343.209V146.93Z" fill="#1F47F3"/>
<path d="M343.209 221.812H342.209V240.372H343.209V221.812Z" fill="#1F47F3"/>
<path d="M363.949 176.258H357.184V189.616H363.949V176.258Z" fill="#ABBBFE"/>
<path d="M361.065 157.688H360.064V176.247H361.065V157.688Z" fill="#ABBBFE"/>
<path d="M361.065 189.625H360.064V208.185H361.065V189.625Z" fill="#ABBBFE"/>
<path d="M381.811 203.328H375.045V290.396H381.811V203.328Z" fill="#1F47F3"/>
<path d="M378.928 184.781H377.928V203.341H378.928V184.781Z" fill="#1F47F3"/>
<path d="M378.928 290.391H377.928V308.95H378.928V290.391Z" fill="#1F47F3"/>
<path d="M399.672 231.445H392.906V246.271H399.672V231.445Z" fill="#ABBBFE"/>
<path d="M396.783 212.898H395.783V231.458H396.783V212.898Z" fill="#ABBBFE"/>
<path d="M396.783 246.289H395.783V264.849H396.783V246.289Z" fill="#ABBBFE"/>
<path d="M417.53 198.648H410.764V250.824H417.53V198.648Z" fill="#1F47F3"/>
<path d="M414.649 180.078H413.648V198.638H414.649V180.078Z" fill="#1F47F3"/>
<path d="M414.649 250.812H413.648V269.372H414.649V250.812Z" fill="#1F47F3"/>
<path d="M435.387 177.305H428.621V219.588H435.387V177.305Z" fill="#ABBBFE"/>
<path d="M432.502 158.758H431.502V177.318H432.502V158.758Z" fill="#ABBBFE"/>
<path d="M432.502 219.578H431.502V238.138H432.502V219.578Z" fill="#ABBBFE"/>
<path d="M453.248 162.547H446.482V177.528H453.248V162.547Z" fill="#1F47F3"/>
<path d="M450.367 144H449.367V162.56H450.367V144Z" fill="#1F47F3"/>
<path d="M450.367 177.531H449.367V196.091H450.367V177.531Z" fill="#1F47F3"/>
<path d="M471.11 145.023H464.344V207.828H471.11V145.023Z" fill="#ABBBFE"/>
<path d="M468.221 126.477H467.221V145.036H468.221V126.477Z" fill="#ABBBFE"/>
<path d="M468.221 207.828H467.221V226.388H468.221V207.828Z" fill="#ABBBFE"/>
<path d="M488.967 105.172H482.201V197.568H488.967V105.172Z" fill="#1F47F3"/>
<path d="M486.076 86.6094H485.076V105.169H486.076V86.6094Z" fill="#1F47F3"/>
<path d="M486.076 197.555H485.076V216.115H486.076V197.555Z" fill="#1F47F3"/>
<path d="M506.752 165.484H499.986V212.425H506.752V165.484Z" fill="#ABBBFE"/>
<path d="M503.867 146.93H502.867V165.49H503.867V146.93Z" fill="#ABBBFE"/>
<path d="M503.867 212.422H502.867V230.982H503.867V212.422Z" fill="#ABBBFE"/>
<path d="M524.684 168.961H517.918V184.42H524.684V168.961Z" fill="#1F47F3"/>
<path d="M521.805 150.391H520.805V168.95H521.805V150.391Z" fill="#1F47F3"/>
<path d="M521.805 184.414H520.805V202.974H521.805V184.414Z" fill="#1F47F3"/>
<path d="M542.981 162.938H536.215V175.043H542.981V162.938Z" fill="#ABBBFE"/>
<path d="M540.1 144.367H539.1V162.927H540.1V144.367Z" fill="#ABBBFE"/>
<path d="M540.1 175.055H539.1V193.615H540.1V175.055Z" fill="#ABBBFE"/>
<path d="M560.406 93.4922H553.641V147.81H560.406V93.4922Z" fill="#1F47F3"/>
<path d="M557.524 74.9219H556.523V93.4817H557.524V74.9219Z" fill="#1F47F3"/>
<path d="M557.524 147.797H556.523V166.357H557.524V147.797Z" fill="#1F47F3"/>
<path d="M578.266 137.711H571.5V175.539H578.266V137.711Z" fill="#ABBBFE"/>
<path d="M575.381 119.156H574.381V137.716H575.381V119.156Z" fill="#ABBBFE"/>
<path d="M575.381 175.547H574.381V194.107H575.381V175.547Z" fill="#ABBBFE"/>
<path d="M596.121 140.391H589.355V205.957H596.121V140.391Z" fill="#1F47F3"/>
<path d="M593.242 121.82H592.242V140.38H593.242V121.82Z" fill="#1F47F3"/>
<path d="M593.242 205.945H592.242V224.505H593.242V205.945Z" fill="#1F47F3"/>
<path d="M613.987 154.727H607.221V166.641H613.987V154.727Z" fill="#ABBBFE"/>
<path d="M611.104 136.164H610.104V154.724H611.104V136.164Z" fill="#ABBBFE"/>
<path d="M611.104 166.641H610.104V185.2H611.104V166.641Z" fill="#ABBBFE"/>
<path d="M631.846 87.9062H625.08V135.688H631.846V87.9062Z" fill="#1F47F3"/>
<path d="M628.955 69.3516H627.955V87.9114H628.955V69.3516Z" fill="#1F47F3"/>
<path d="M628.955 135.68H627.955V154.24H628.955V135.68Z" fill="#1F47F3"/>
<path d="M649.699 115.266H642.934V126.86H649.699V115.266Z" fill="#ABBBFE"/>
<path d="M646.82 96.7031H645.82V115.263H646.82V96.7031Z" fill="#ABBBFE"/>
<path d="M646.82 126.836H645.82V145.396H646.82V126.836Z" fill="#ABBBFE"/>
<path d="M667.563 110.242H660.797V175.508H667.563V110.242Z" fill="#1F47F3"/>
<path d="M664.68 91.6719H663.68V110.232H664.68V91.6719Z" fill="#1F47F3"/>
<path d="M664.68 175.508H663.68V194.068H664.68V175.508Z" fill="#1F47F3"/>
<path d="M685.426 85.2188H678.66V103.294H685.426V85.2188Z" fill="#ABBBFE"/>
<path d="M682.539 66.6875H681.539V85.2474H682.539V66.6875Z" fill="#ABBBFE"/>
<path d="M682.539 103.312H681.539V121.872H682.539V103.312Z" fill="#ABBBFE"/>
<path d="M703.278 73.375H696.512V83.4424H703.278V73.375Z" fill="#1F47F3"/>
<path d="M700.399 54.8047H699.398V73.3645H700.399V54.8047Z" fill="#1F47F3"/>
<path d="M700.399 83.4219H699.398V101.982H700.399V83.4219Z" fill="#1F47F3"/>
<path d="M721.145 18.5703H714.379V71.3733H721.145V18.5703Z" fill="#ABBBFE"/>
<path d="M718.264 0H717.264V18.5599H718.264V0Z" fill="#ABBBFE"/>
<path d="M718.264 71.3516H717.264V89.9114H718.264V71.3516Z" fill="#ABBBFE"/>
<path d="M739 22.0234H732.234V38.0313H739V22.0234Z" fill="#1F47F3"/>
<path d="M736.121 3.46094H735.121V22.0208H736.121V3.46094Z" fill="#1F47F3"/>
<path d="M736.121 38.0312H735.121V56.5911H736.121V38.0312Z" fill="#1F47F3"/>
</g>
</svg>
