<svg width="278" height="154" viewBox="0 0 278 154" fill="none" xmlns="http://www.w3.org/2000/svg">
<path d="M176.036 30.1166L176.031 30.0651C176.032 30.0276 176.029 29.9901 176.021 29.9535C176.023 29.9391 176.021 29.9244 176.017 29.9106C176.017 29.9106 176.009 29.8247 176.006 29.7904C175.991 29.7416 175.972 29.6941 175.95 29.6484C175.93 29.6134 175.907 29.5807 175.881 29.5508L160.319 12.0504L160.253 11.9958L160.189 11.9497L160.103 11.9575L135.166 3.54106C135.063 3.50727 134.953 3.49373 134.844 3.50118L86.79 7.87813C86.6785 7.88965 86.5703 7.92305 86.4716 7.97638L63.4656 20.7597L63.3801 20.7675L63.3165 20.8252L63.2621 20.8907L51.118 40.9147C51.0941 40.9471 51.077 40.984 51.0675 41.0232C51.0471 41.071 51.0343 41.1219 51.0296 41.1737C51.0285 41.2141 51.0321 41.2544 51.0405 41.2939L51.0444 41.3368C51.0483 41.3797 51.0515 41.4141 51.0546 41.4484C51.0686 41.486 51.0863 41.522 51.1075 41.5561C51.131 41.5989 51.1577 41.6399 51.1876 41.6786L120.986 125.609L121.079 125.687C121.115 125.712 121.155 125.732 121.196 125.746L121.265 125.74L121.769 125.694L121.829 125.688L121.925 125.61C121.953 125.581 121.979 125.55 122.003 125.517L175.65 30.4286C175.675 30.385 175.697 30.3396 175.716 30.2928C175.839 30.2718 175.952 30.2097 176.036 30.1166ZM64.1563 22.1939L73.7394 25.4231L87.7854 30.1583L81.198 54.3321L52.7931 40.9525L64.1563 22.1939ZM159.529 13.507L174.103 29.9031L148.612 48.2264L137.757 25.6414L150.716 18.4464L159.529 13.507ZM136.216 26.1279L147.061 48.7052L82.7614 54.5618L89.3495 30.3966L136.216 26.1279ZM147.113 50.3101L121.42 123.19L83.0008 56.1497L147.113 50.3101ZM87.0379 9.27483L134.656 4.93759L157.717 12.7201L136.442 24.5409L88.8235 28.8782L65.7585 21.0528L87.0379 9.27483ZM54.5831 43.5761L81.1283 56.1212L89.1232 70.105L116.387 117.686L54.5831 43.5761ZM143.574 65.1021L148.911 49.904L172.744 32.7702L125.343 116.783L143.574 65.1021Z" fill="#ABBBFE" fill-opacity="0.5"/>
<path d="M272.209 52.8135L272.219 52.7788C272.229 52.7547 272.236 52.7294 272.24 52.7035C272.245 52.6946 272.248 52.6846 272.249 52.6745C272.249 52.6745 272.265 52.6166 272.272 52.5934C272.274 52.5579 272.274 52.5222 272.271 52.4867C272.267 52.459 272.26 52.4318 272.25 52.4057L266.506 37.0789L266.477 37.0269L266.446 36.9806L266.389 36.9642L252.245 25.2023C252.186 25.1541 252.118 25.1177 252.045 25.0952L219.609 15.8598C219.533 15.8392 219.454 15.8338 219.376 15.8437L201.159 18.3915L201.101 18.3751L201.045 18.3967L200.993 18.4258L188.036 28.4278C188.013 28.4429 187.992 28.4626 187.976 28.4858C187.951 28.5119 187.93 28.5418 187.914 28.5744C187.903 28.6005 187.895 28.6277 187.891 28.6555L187.882 28.6845C187.874 28.7135 187.867 28.7367 187.861 28.7598C187.86 28.7879 187.863 28.8158 187.868 28.8434C187.873 28.8772 187.88 28.9107 187.89 28.9434L212.288 101.233L212.329 101.307C212.347 101.332 212.368 101.355 212.391 101.375L212.437 101.388L212.778 101.485L212.818 101.496L212.9 101.47C212.926 101.458 212.951 101.444 212.975 101.428L271.879 52.9201C271.907 52.898 271.932 52.8739 271.956 52.848C272.042 52.8653 272.131 52.8532 272.209 52.8135ZM201.248 19.5005L206.685 24.0172L214.653 30.6386L204.275 44.7446L189.119 28.8739L201.248 19.5005ZM265.624 37.8301L271.003 52.1882L249.771 57.7233L248.374 40.2651L258.635 38.8337L265.624 37.8301ZM247.247 40.1946L248.639 57.6454L205.237 45.2877L215.613 31.1875L247.247 40.1946ZM248.269 58.7049L213.18 99.7645L204.994 46.3833L248.269 58.7049ZM219.419 16.8329L251.561 25.9845L264.641 36.8611L247.793 39.2167L215.652 30.065L202.58 19.1595L219.419 16.8329ZM189.626 31.035L203.78 45.8937L205.475 57.0236L211.282 94.9089L189.626 31.035ZM242.24 67.4602L249.544 58.8925L269.395 53.716L217.35 96.5739L242.24 67.4602Z" fill="#ABBBFE" fill-opacity="0.5"/>
<path d="M60.928 79.6635L60.9209 79.6401C60.9179 79.6227 60.9128 79.6056 60.9057 79.5894C60.9052 79.5826 60.9032 79.5759 60.8998 79.5699C60.8998 79.5699 60.8881 79.5309 60.8834 79.5153C60.8719 79.4941 60.8587 79.4739 60.844 79.4548C60.8317 79.4404 60.8179 79.4275 60.8027 79.4162L51.9409 72.7814L51.9055 72.7622L51.8712 72.747L51.8324 72.7587L39.4869 71.2174C39.4355 71.2116 39.3835 71.2157 39.3337 71.2294L17.4903 77.7986C17.4398 77.8145 17.3928 77.8401 17.3521 77.8742L7.9047 85.9694L7.86584 85.9811L7.84182 86.0139L7.82284 86.0494L4.09067 96.4717C4.08268 96.4889 4.07822 96.5076 4.07755 96.5267C4.07263 96.5508 4.0715 96.5755 4.07419 96.6C4.07749 96.6188 4.083 96.6371 4.09062 96.6546L4.09649 96.6741C4.10235 96.6936 4.10705 96.7093 4.11174 96.7249C4.12176 96.7409 4.1334 96.756 4.14643 96.7697C4.16136 96.7874 4.17762 96.8038 4.1951 96.8189L44.4563 129.096L44.5069 129.123C44.526 129.131 44.5462 129.137 44.5668 129.139L44.5978 129.13L44.827 129.061L44.8542 129.053L44.8915 129.008C44.9018 128.991 44.9108 128.974 44.9186 128.957L60.7791 79.8445C60.7865 79.8219 60.7923 79.7988 60.7964 79.7754C60.8516 79.754 60.8979 79.7146 60.928 79.6635ZM8.36017 86.5685L13.104 87.1584L20.0572 88.024L19.291 99.8431L4.87011 96.3309L8.36017 86.5685ZM51.7129 73.5306L60.0128 79.7473L49.9378 90.6435L42.7755 81.2087L48.0978 76.6514L51.7129 73.5306ZM42.1076 81.5798L49.2649 91.0117L20.0368 99.8018L20.8042 87.9865L42.1076 81.5798ZM49.4404 91.7503L44.4289 127.934L20.2977 100.515L49.4404 91.7503ZM17.7372 78.4221L39.3824 71.9125L50.7992 73.3374L42.0623 80.8234L20.417 87.3329L8.99442 85.8885L17.7372 78.4221ZM5.94715 97.3768L19.4278 100.678L24.4524 106.4L41.5771 125.861L5.94715 97.3768ZM49.1996 98.9359L50.235 91.3922L59.6544 81.2037L45.6404 124.596L49.1996 98.9359Z" fill="#ABBBFE" fill-opacity="0.5"/>
<path d="M198.947 122.117L198.951 122.099C198.956 122.086 198.959 122.073 198.96 122.06C198.962 122.056 198.963 122.051 198.963 122.045C198.963 122.045 198.97 122.016 198.973 122.004C198.973 121.986 198.972 121.968 198.969 121.95C198.966 121.936 198.962 121.923 198.956 121.91L195.616 114.358L195.6 114.332L195.583 114.31L195.554 114.303L188.087 108.791C188.055 108.769 188.02 108.753 187.983 108.743L171.376 105.038C171.337 105.029 171.297 105.029 171.258 105.036L162.156 106.851L162.127 106.844L162.099 106.857L162.074 106.873L155.84 112.289C155.828 112.297 155.818 112.308 155.811 112.32C155.799 112.334 155.789 112.349 155.782 112.366C155.777 112.38 155.774 112.394 155.773 112.408L155.769 112.423C155.766 112.437 155.763 112.449 155.761 112.461C155.761 112.475 155.763 112.489 155.767 112.503C155.77 112.52 155.775 112.537 155.781 112.553L170.178 148.252L170.201 148.289C170.211 148.301 170.222 148.312 170.234 148.321L170.258 148.326L170.432 148.365L170.453 148.37L170.493 148.354C170.506 148.347 170.518 148.339 170.53 148.331L198.785 122.18C198.798 122.168 198.81 122.155 198.821 122.141C198.865 122.148 198.909 122.139 198.947 122.117ZM162.234 107.407L165.104 109.523L169.31 112.626L164.495 120.034L156.398 112.482L162.234 107.407ZM195.194 114.762L198.322 121.837L187.789 125.244L186.576 116.491L191.703 115.471L195.194 114.762ZM186.006 116.489L187.216 125.238L164.995 120.279L169.81 112.875L186.006 116.489ZM187.061 125.782L170.585 147.487L164.904 120.838L187.061 125.782ZM171.308 105.533L187.765 109.205L194.67 114.302L186.253 115.98L169.797 112.308L162.895 107.196L171.308 105.533ZM156.716 113.556L164.279 120.627L165.457 126.183L169.487 145.096L156.716 113.556ZM184.28 130.368L187.708 125.84L197.557 122.653L172.592 145.758L184.28 130.368Z" fill="#ABBBFE" fill-opacity="0.5"/>
</svg>
