<svg width="490" height="490" viewBox="0 0 490 490" fill="none" xmlns="http://www.w3.org/2000/svg">
<g opacity="0.4">
<path d="M252.572 468.208L232.461 344.413L230.913 344.458L218.481 465.633L177.705 442.975L223.955 283.587L262.318 346.399L281.031 433.747L252.572 468.208ZM105.046 463.625L98.2596 439.453L98.1466 439.05L97.7488 438.921L73.6199 431.084L97.7782 424.292L98.1808 424.179L98.3099 423.781L106.146 399.645L112.941 423.81L113.054 424.212L113.451 424.342L137.587 432.186L113.423 438.972L113.021 439.085L112.891 439.483L105.046 463.625ZM178.167 383.45L118.746 305.252L117.404 306.028L162.098 412.351L136.047 410.334L74.955 309.984L71.0552 232.036L144.816 260.558L193.36 325.123L178.167 383.45ZM279.053 341.773L279.03 341.658L278.975 341.555L265.581 316.442L352.686 229.338L381.391 238.392L368.998 308.099L302.4 384.881L287.087 382.967L279.053 341.773ZM319.527 345.393L320.875 346.116L346.973 314.993L347.091 314.854L347.134 314.676L356.685 275.512L355.308 274.848L331.207 305.971L331.117 306.087L331.076 306.228L319.527 345.393ZM312.133 246.568L256.537 303.698L220.992 249.603L220.107 248.257L219.597 249.785L200.458 307.193L164.691 259.27L185.762 155.46L258.742 65.4243L318.366 145.95L312.133 246.568ZM245.235 263.587L245.771 263.622L246.713 263.989L246.714 263.987L246.784 263.846L246.789 263.77L272.716 173.53L296.231 151.802L298.056 150.116L295.595 150.454L269.459 154.044L258.978 113.298L257.449 113.376L251.262 154.209L208.455 159.416L208.285 160.927L250.901 176.204L245.235 263.587ZM164.675 172.725L152.522 242.623L127.072 202.208L136.18 115.737L164.675 172.725ZM385.397 189.433L375.277 220.566L366.529 189.391L366.416 188.988L366.018 188.859L334.901 178.752L366.061 169.988L366.463 169.875L366.593 169.477L376.699 138.362L385.462 169.528L385.575 169.93L385.973 170.059L417.088 180.174L385.929 188.922L385.527 189.035L385.397 189.433ZM184.025 62.7981L223.554 75.6507L183.958 86.7725L183.556 86.8855L183.427 87.2831L170.569 126.835L159.452 87.2198L159.339 86.817L158.941 86.6878L119.404 73.847L159.007 62.7115L159.41 62.5984L159.539 62.2007L172.377 22.6637L183.514 62.2667L183.627 62.6689L184.025 62.7981Z" stroke="white" stroke-width="1.5625"/>
</g>
</svg>
