<svg width="730" height="375" viewBox="0 0 730 375" fill="none" xmlns="http://www.w3.org/2000/svg">
<path d="M494.714 295.268H456.7L437.479 261.934L456.486 228.984L457.794 229.74L439.227 261.934L457.574 293.751H494.714V295.268Z" fill="#C6D0FF" fill-opacity="0.6"/>
<path d="M551.383 327.849H512.929L493.701 294.515L512.929 261.188H551.383L570.611 294.515L551.383 327.849ZM513.803 326.332H550.509L568.862 294.515L550.509 262.705H513.803L495.45 294.515L513.803 326.332Z" fill="#C6D0FF" fill-opacity="0.6"/>
<path d="M551.604 326.702L550.291 327.461L569.081 360.036L570.394 359.278L551.604 326.702Z" fill="#C6D0FF" fill-opacity="0.6"/>
<path d="M607.891 360.039L606.576 359.277L625.149 327.089L606.576 294.895L607.891 294.133L626.898 327.089L607.891 360.039Z" fill="#C6D0FF" fill-opacity="0.6"/>
<path d="M625.355 261.534L606.564 294.109L607.877 294.868L626.667 262.293L625.355 261.534Z" fill="#C6D0FF" fill-opacity="0.6"/>
<path d="M690.241 326.328H626.023V327.845H690.241V326.328Z" fill="#C6D0FF" fill-opacity="0.6"/>
<path d="M437.258 261.094H323.334V262.611H437.258V261.094Z" fill="#C6D0FF" fill-opacity="0.6"/>
<path d="M477.601 250.778L476.443 249.796L504.111 217.343L516.98 233.843L540.516 204.136L551.623 217.387L572.989 195.039L574.084 196.09L551.548 219.66L540.547 206.534L516.967 236.299L504.061 219.736L477.601 250.778Z" fill="#7E96FB"/>
<path d="M568.73 193.937L578.347 190.758L575.171 200.383L568.73 193.937Z" fill="#7E96FB"/>
<path d="M595.605 310.297H589.297V340.3H595.605V310.297Z" fill="#7F95F3"/>
<path d="M607.469 342.992H568.926V343.748H607.469V342.992Z" fill="#7E96FB"/>
<path d="M595.605 305.453H589.297V309.287H595.605V305.453Z" fill="#7F95F3"/>
<path d="M578.599 333.695H572.291V340.305H578.599V333.695Z" fill="#C6D0FF" fill-opacity="0.6"/>
<path d="M587.103 321.039H580.795V340.309H587.103V321.039Z" fill="#C6D0FF" fill-opacity="0.6"/>
<path d="M604.109 316.766H597.801V340.304H604.109V316.766Z" fill="#C6D0FF" fill-opacity="0.6"/>
<path d="M604.109 312.234H597.801V316.068H604.109V312.234Z" fill="#C6D0FF" fill-opacity="0.6"/>
<path opacity="0.5" d="M604.109 307.766H597.801V311.599H604.109V307.766Z" fill="#C6D0FF" fill-opacity="0.6"/>
<path opacity="0.5" d="M587.103 311.992H580.795V315.826H587.103V311.992Z" fill="#C6D0FF" fill-opacity="0.6"/>
<path d="M587.103 316.477H580.795V320.31H587.103V316.477Z" fill="#C6D0FF" fill-opacity="0.6"/>
<path d="M578.599 329.031H572.291V332.865H578.599V329.031Z" fill="#C6D0FF" fill-opacity="0.6"/>
<path opacity="0.5" d="M578.599 324.047H572.291V327.881H578.599V324.047Z" fill="#C6D0FF" fill-opacity="0.6"/>
<path d="M595.605 300.883H589.297V304.717H595.605V300.883Z" fill="#7F95F3"/>
<path d="M659.315 310.988L659.239 290.692C659.734 290.44 660.135 290.036 660.384 289.54L670.781 289.502L671.095 288.872C671.13 288.805 671.182 288.748 671.246 288.708C671.31 288.668 671.384 288.646 671.46 288.646C671.534 288.646 671.607 288.666 671.67 288.705C671.734 288.744 671.785 288.8 671.818 288.866L672.139 289.495H672.705C673.011 289.495 673.303 289.374 673.519 289.158C673.735 288.942 673.856 288.649 673.856 288.343C673.856 288.038 673.735 287.745 673.519 287.529C673.303 287.313 673.011 287.191 672.705 287.191L660.378 287.235C660.126 286.742 659.722 286.343 659.227 286.096V284.988C659.227 284.682 659.105 284.389 658.89 284.173C658.674 283.957 658.381 283.836 658.076 283.836C657.77 283.836 657.478 283.957 657.262 284.173C657.046 284.389 656.925 284.682 656.925 284.988V286.077C656.43 286.329 656.029 286.733 655.78 287.229L643.459 287.279C643.169 287.301 642.898 287.431 642.7 287.644C642.502 287.858 642.393 288.138 642.393 288.428C642.393 288.719 642.502 288.999 642.7 289.212C642.898 289.425 643.169 289.556 643.459 289.577H644.025L644.339 288.948C644.372 288.88 644.424 288.823 644.488 288.783C644.551 288.743 644.625 288.722 644.701 288.722C644.776 288.722 644.85 288.743 644.914 288.783C644.978 288.823 645.029 288.88 645.062 288.948L645.383 289.577L655.786 289.54C656.036 290.034 656.44 290.434 656.937 290.679L657.013 310.975L659.315 310.988Z" fill="#A7B8FE" fill-opacity="0.4"/>
<path d="M671.818 288.861C671.785 288.795 671.734 288.739 671.67 288.7C671.607 288.661 671.534 288.641 671.46 288.641C671.384 288.642 671.31 288.663 671.246 288.703C671.182 288.743 671.13 288.8 671.095 288.867L670.781 289.497L664.95 301.105C664.923 301.162 664.91 301.225 664.912 301.288H665.768L671.466 289.956L677.24 301.25H678.102C678.101 301.187 678.088 301.126 678.064 301.068L672.139 289.503L671.818 288.861Z" fill="#A7B8FE" fill-opacity="0.4"/>
<path d="M665.767 301.275H664.402C664.464 303.125 665.244 304.877 666.575 306.161C667.907 307.445 669.685 308.158 671.534 308.151C673.383 308.144 675.156 307.416 676.477 306.121C677.798 304.827 678.564 303.069 678.611 301.219H677.24L665.767 301.275Z" fill="#A7B8FE" fill-opacity="0.4"/>
<path d="M645.069 288.953C645.036 288.885 644.984 288.828 644.92 288.788C644.856 288.748 644.782 288.727 644.707 288.727C644.632 288.727 644.558 288.748 644.494 288.788C644.43 288.828 644.378 288.885 644.345 288.953L644.031 289.582L638.2 301.191C638.17 301.247 638.155 301.31 638.156 301.373H639.031L644.691 290.042L650.471 301.335H651.333C651.333 301.272 651.318 301.21 651.289 301.153L645.389 289.582L645.069 288.953Z" fill="#A7B8FE" fill-opacity="0.4"/>
<path d="M639.031 301.377H637.66C637.668 303.264 638.424 305.07 639.762 306.399C641.1 307.728 642.911 308.47 644.796 308.462C646.681 308.455 648.485 307.698 649.813 306.359C651.141 305.019 651.882 303.207 651.875 301.32H650.504L639.031 301.377Z" fill="#A7B8FE" fill-opacity="0.4"/>
<path d="M659.315 310.97L657.019 310.977L650.919 311.002L650.925 312.645L647.227 312.658L647.233 314.301L669.058 314.219V312.576L665.353 312.588L665.347 310.945L659.315 310.97Z" fill="#A7B8FE" fill-opacity="0.4"/>
<path d="M394.993 218.563C394.488 218.556 393.992 218.701 393.569 218.977C393.146 219.253 392.815 219.649 392.617 220.115C392.419 220.58 392.365 221.093 392.459 221.59C392.554 222.087 392.794 222.544 393.149 222.904C393.504 223.263 393.958 223.509 394.453 223.61C394.948 223.711 395.461 223.663 395.929 223.471C396.396 223.279 396.796 222.952 397.077 222.532C397.358 222.112 397.509 221.618 397.509 221.112C397.509 220.442 397.245 219.798 396.774 219.321C396.303 218.843 395.663 218.571 394.993 218.563Z" fill="#7E96FB"/>
<path d="M432.138 187.016H393.482L374.16 220.519L393.482 254.029H432.138L451.466 220.519L432.138 187.016ZM433.566 222.993H432.195L430.773 221.206H429.628L428.421 222.616H427.163L425.634 220.727L424.339 222.616H423.71L423.081 221.646H422.27L421.773 223.031H420.276L419.603 222.225H417.923L417.452 223.818L412.477 223.881L412.294 225.197H409.879C408.936 227.433 407.248 229.274 405.104 230.407C402.959 231.541 400.488 231.897 398.111 231.415C395.734 230.933 393.596 229.644 392.061 227.764C390.526 225.885 389.687 223.532 389.687 221.105C389.687 218.677 390.526 216.324 392.061 214.445C393.596 212.566 395.734 211.276 398.111 210.795C400.488 210.313 402.959 210.669 405.104 211.802C407.248 212.936 408.936 214.776 409.879 217.013H433.566L435.95 219.392V220.286L433.566 222.993Z" fill="#8398F3"/>
<path d="M442.385 136.744L456.757 67.25L471.128 136.744H442.385Z" fill="#C6D0FF" fill-opacity="0.6"/>
<path d="M474.174 136.746L488.546 35.9766L502.917 136.746H474.174Z" fill="#A7B8FE" fill-opacity="0.2"/>
<path d="M535.698 137.456H504.967L520.332 91.5L535.698 137.456ZM506.948 136.027H533.717L520.332 95.9823L506.948 136.027Z" fill="#C6D0FF" fill-opacity="0.6"/>
<path d="M549.981 142.399H435.402V35.9766H436.541V141.26H549.981V142.399Z" fill="#7E96FB"/>
<path d="M556.195 141.258H551.918V142.397H556.195V141.258Z" fill="#7E96FB"/>
<path d="M562.437 141.258H558.16V142.397H562.437V141.258Z" fill="#7E96FB"/>
<path d="M436.541 23.4609H435.402V27.7418H436.541V23.4609Z" fill="#7E96FB"/>
<path d="M436.541 29.7031H435.402V33.9839H436.541V29.7031Z" fill="#7E96FB"/>
<path d="M450.341 161.417L449.492 162.261L447.228 161.203L448.278 163.476L447.436 164.313L445.832 160.655L442.209 159.082L443.083 158.213L445.31 159.277L444.278 157.086L445.146 156.211L446.719 159.837L450.341 161.417Z" fill="#C6D0FF" fill-opacity="0.6"/>
<path d="M453.789 157.966L452.94 158.809L450.675 157.752L451.726 160.024L450.883 160.874L449.279 157.217L445.656 155.643L446.531 154.774L448.726 155.8L447.694 153.609L448.562 152.734L450.134 156.36L453.789 157.966Z" fill="#C6D0FF" fill-opacity="0.6"/>
<path d="M455.431 153.936C455.601 154.097 455.735 154.293 455.825 154.51C455.915 154.727 455.959 154.96 455.953 155.195C455.955 155.546 455.853 155.889 455.659 156.182C455.465 156.474 455.189 156.703 454.865 156.838C454.542 156.973 454.185 157.008 453.841 156.94C453.497 156.871 453.182 156.702 452.934 156.454L450.085 153.596C449.916 153.434 449.782 153.238 449.693 153.021C449.605 152.804 449.562 152.571 449.569 152.337C449.565 151.986 449.666 151.641 449.859 151.348C450.052 151.055 450.328 150.826 450.651 150.691C450.975 150.556 451.332 150.52 451.676 150.589C452.02 150.658 452.335 150.828 452.582 151.077L455.431 153.936ZM451.752 151.883C451.693 151.821 451.622 151.772 451.544 151.738C451.465 151.705 451.381 151.687 451.296 151.687C451.21 151.687 451.126 151.705 451.047 151.738C450.969 151.772 450.898 151.821 450.84 151.883C450.779 151.941 450.731 152.012 450.699 152.09C450.668 152.168 450.654 152.252 450.657 152.337C450.657 152.421 450.673 152.504 450.706 152.582C450.738 152.66 450.786 152.731 450.846 152.79L453.701 155.648C453.823 155.766 453.985 155.833 454.154 155.837C454.238 155.837 454.322 155.821 454.4 155.788C454.478 155.756 454.548 155.708 454.607 155.648C454.668 155.589 454.716 155.519 454.749 155.441C454.782 155.363 454.8 155.279 454.8 155.195C454.8 155.11 454.782 155.026 454.749 154.948C454.716 154.87 454.668 154.8 454.607 154.741L451.752 151.883Z" fill="#C6D0FF" fill-opacity="0.6"/>
<path d="M457.935 153.817L453.916 149.794L453.243 150.468L452.689 149.92C452.861 149.7 452.973 149.44 453.017 149.164C453.067 148.892 453.043 148.612 452.947 148.352L453.495 147.805L458.721 153.036L457.935 153.817Z" fill="#C6D0FF" fill-opacity="0.6"/>
<path d="M482.129 161.416L481.279 162.259L479.015 161.202L480.066 163.474L479.223 164.312L477.619 160.654L473.996 159.08L474.87 158.212L477.065 159.238L476.034 157.047L476.902 156.172L478.474 159.798L482.129 161.416Z" fill="#C6D0FF" fill-opacity="0.6"/>
<path d="M485.564 157.966L484.715 158.809L482.451 157.752L483.501 160.024L482.658 160.874L481.054 157.217L477.432 155.643L478.306 154.774L480.501 155.8L479.482 153.609L480.35 152.734L481.922 156.36L485.564 157.966Z" fill="#C6D0FF" fill-opacity="0.6"/>
<path d="M487.223 153.931C487.391 154.094 487.524 154.29 487.612 154.507C487.701 154.723 487.744 154.956 487.739 155.19C487.736 155.658 487.548 156.105 487.217 156.435C486.886 156.765 486.439 156.951 485.971 156.953C485.737 156.96 485.504 156.917 485.288 156.828C485.071 156.739 484.875 156.606 484.714 156.437L481.858 153.578C481.69 153.415 481.558 153.219 481.469 153.003C481.38 152.786 481.337 152.553 481.342 152.319C481.338 152.085 481.382 151.853 481.47 151.637C481.559 151.42 481.691 151.224 481.858 151.06C482.022 150.893 482.218 150.76 482.434 150.669C482.65 150.578 482.882 150.531 483.116 150.531C483.35 150.531 483.582 150.578 483.798 150.669C484.014 150.76 484.21 150.893 484.374 151.06L487.223 153.931ZM483.537 151.879C483.479 151.817 483.408 151.768 483.329 151.734C483.251 151.7 483.167 151.683 483.081 151.683C482.996 151.683 482.912 151.7 482.833 151.734C482.755 151.768 482.684 151.817 482.625 151.879C482.564 151.937 482.516 152.008 482.483 152.086C482.45 152.164 482.433 152.247 482.433 152.332C482.433 152.417 482.45 152.5 482.483 152.578C482.516 152.656 482.564 152.727 482.625 152.785L485.481 155.643C485.603 155.761 485.764 155.828 485.934 155.832C486.063 155.838 486.191 155.805 486.301 155.735C486.411 155.666 486.496 155.564 486.546 155.444C486.595 155.324 486.606 155.192 486.578 155.065C486.549 154.939 486.483 154.824 486.387 154.737L483.537 151.879Z" fill="#C6D0FF" fill-opacity="0.6"/>
<path d="M485.3 150.726C485.079 150.534 484.9 150.299 484.773 150.035C484.647 149.77 484.576 149.483 484.564 149.19C484.568 148.953 484.62 148.718 484.717 148.502C484.815 148.285 484.955 148.091 485.131 147.931C485.293 147.764 485.489 147.634 485.706 147.549C485.923 147.464 486.156 147.427 486.388 147.44C486.862 147.446 487.314 147.638 487.646 147.975C488.003 148.329 488.274 148.759 488.439 149.234C488.593 149.741 488.709 150.259 488.785 150.783C488.816 150.997 488.879 151.312 488.967 151.74L489.043 152.099C489.087 152.325 489.131 152.508 489.162 152.634C489.194 152.76 489.162 152.734 489.206 152.741L490.747 151.192L491.521 151.966L489.005 154.484L488.282 153.761C488.226 153.612 488.186 153.458 488.162 153.301C488.162 153.169 488.112 153.018 488.08 152.854L487.986 152.357C487.942 152.073 487.867 151.62 487.766 151.003C487.686 150.503 487.56 150.012 487.389 149.536C487.28 149.249 487.115 148.986 486.904 148.762C486.76 148.613 486.569 148.517 486.363 148.491C486.263 148.478 486.16 148.49 486.065 148.525C485.97 148.56 485.884 148.617 485.816 148.693C485.708 148.803 485.641 148.946 485.625 149.099C485.609 149.252 485.645 149.407 485.728 149.536C485.791 149.666 485.876 149.783 485.98 149.883L486.181 150.084L485.407 150.858L485.3 150.726Z" fill="#C6D0FF" fill-opacity="0.6"/>
<path d="M513.915 161.417L513.066 162.261L510.802 161.203L511.852 163.476L511.009 164.313L509.406 160.655L505.789 159.082L506.657 158.213L508.833 159.277L507.802 157.086L508.67 156.211L510.242 159.837L513.915 161.417Z" fill="#C6D0FF" fill-opacity="0.6"/>
<path d="M517.364 157.966L516.515 158.809L514.251 157.752L515.301 160.024L514.459 160.874L512.855 157.217L509.238 155.643L510.106 154.774L512.301 155.8L511.27 153.609L512.138 152.734L513.71 156.36L517.364 157.966Z" fill="#C6D0FF" fill-opacity="0.6"/>
<path d="M519.01 153.931C519.178 154.094 519.311 154.29 519.399 154.507C519.488 154.723 519.531 154.956 519.526 155.19C519.523 155.658 519.335 156.105 519.004 156.435C518.673 156.765 518.226 156.951 517.759 156.953C517.524 156.96 517.291 156.917 517.075 156.828C516.858 156.739 516.662 156.606 516.501 156.437L513.645 153.578C513.477 153.415 513.345 153.219 513.256 153.003C513.167 152.786 513.124 152.553 513.129 152.319C513.125 152.085 513.169 151.853 513.257 151.637C513.346 151.42 513.478 151.224 513.645 151.06C513.809 150.893 514.005 150.76 514.221 150.669C514.437 150.578 514.669 150.531 514.903 150.531C515.137 150.531 515.369 150.578 515.585 150.669C515.801 150.76 515.997 150.893 516.161 151.06L519.01 153.931ZM515.324 151.879C515.265 151.819 515.194 151.772 515.117 151.74C515.039 151.708 514.956 151.691 514.872 151.691C514.787 151.691 514.704 151.708 514.626 151.74C514.549 151.772 514.478 151.819 514.419 151.879C514.359 151.938 514.312 152.009 514.28 152.087C514.248 152.164 514.231 152.248 514.231 152.332C514.231 152.416 514.248 152.5 514.28 152.577C514.312 152.655 514.359 152.726 514.419 152.785L517.274 155.643C517.396 155.761 517.558 155.828 517.727 155.832C517.857 155.838 517.985 155.805 518.094 155.735C518.204 155.666 518.289 155.564 518.339 155.444C518.388 155.324 518.4 155.192 518.371 155.065C518.343 154.939 518.276 154.824 518.18 154.737L515.324 151.879Z" fill="#C6D0FF" fill-opacity="0.6"/>
<path d="M521.219 152.598C521.307 152.544 521.38 152.469 521.432 152.379C521.483 152.29 521.513 152.189 521.516 152.086C521.52 151.983 521.498 151.88 521.453 151.787C521.408 151.694 521.34 151.614 521.257 151.553L520.948 151.245C520.849 151.119 520.723 151.019 520.578 150.95C520.433 150.882 520.275 150.849 520.115 150.852C519.955 150.856 519.799 150.897 519.657 150.971C519.516 151.046 519.394 151.153 519.301 151.283L518.628 150.609C518.761 150.496 518.868 150.354 518.94 150.193C519.012 150.033 519.047 149.859 519.043 149.684C519.006 149.358 518.849 149.057 518.602 148.84L518.483 148.721C518.143 148.374 517.823 148.355 517.521 148.658C517.442 148.724 517.384 148.811 517.353 148.909C517.322 149.007 517.319 149.112 517.345 149.212C517.394 149.391 517.495 149.553 517.634 149.677L517.772 149.816L517.011 150.59L516.892 150.464C516.549 150.154 516.326 149.733 516.263 149.275C516.237 149.032 516.269 148.787 516.356 148.559C516.444 148.331 516.584 148.128 516.766 147.965C516.926 147.794 517.121 147.659 517.339 147.571C517.556 147.483 517.79 147.443 518.024 147.455C518.458 147.486 518.864 147.679 519.162 147.997L519.382 148.217C519.695 148.517 519.891 148.919 519.936 149.35C519.949 149.533 519.936 149.718 519.898 149.898C520.274 149.799 520.672 149.819 521.037 149.954C521.262 150.038 521.465 150.174 521.628 150.351L522.043 150.76C522.226 150.934 522.37 151.144 522.465 151.377C522.561 151.611 522.605 151.862 522.596 152.114C522.586 152.59 522.387 153.043 522.043 153.373C521.88 153.541 521.684 153.674 521.468 153.762C521.251 153.851 521.019 153.894 520.785 153.889C520.551 153.893 520.319 153.849 520.103 153.76C519.887 153.672 519.691 153.54 519.527 153.373L519.395 153.241L520.087 152.435L520.288 152.598C520.414 152.712 520.577 152.777 520.747 152.781C520.834 152.785 520.921 152.771 521.002 152.739C521.083 152.708 521.157 152.66 521.219 152.598Z" fill="#C6D0FF" fill-opacity="0.6"/>
<path d="M440.208 261.855C440.206 262.344 440.059 262.82 439.785 263.225C439.512 263.63 439.125 263.944 438.673 264.128C438.221 264.312 437.725 264.358 437.247 264.26C436.769 264.162 436.331 263.924 435.988 263.577C435.646 263.229 435.414 262.788 435.322 262.308C435.23 261.828 435.282 261.332 435.472 260.882C435.662 260.433 435.98 260.049 436.388 259.781C436.796 259.513 437.274 259.371 437.762 259.375C438.085 259.377 438.405 259.442 438.703 259.568C439.001 259.693 439.272 259.877 439.499 260.107C439.726 260.338 439.906 260.611 440.028 260.911C440.149 261.211 440.211 261.532 440.208 261.855Z" fill="#A7B8FE" fill-opacity="0.4"/>
<path d="M516.345 261.855C516.343 262.342 516.196 262.818 515.924 263.222C515.653 263.626 515.267 263.94 514.817 264.125C514.367 264.31 513.873 264.358 513.396 264.263C512.918 264.167 512.48 263.932 512.136 263.588C511.792 263.243 511.558 262.805 511.462 262.327C511.367 261.85 511.414 261.355 511.599 260.904C511.784 260.454 512.098 260.068 512.502 259.796C512.905 259.524 513.38 259.378 513.867 259.375C514.193 259.373 514.517 259.435 514.818 259.559C515.12 259.683 515.394 259.865 515.625 260.096C515.856 260.327 516.038 260.601 516.162 260.903C516.285 261.205 516.348 261.529 516.345 261.855Z" fill="#A7B8FE" fill-opacity="0.4"/>
<path d="M628.481 261.852C628.481 262.339 628.337 262.815 628.067 263.22C627.796 263.624 627.412 263.94 626.963 264.126C626.513 264.313 626.019 264.361 625.542 264.266C625.065 264.171 624.627 263.937 624.283 263.593C623.939 263.248 623.705 262.81 623.61 262.332C623.515 261.855 623.564 261.36 623.75 260.91C623.936 260.46 624.251 260.076 624.655 259.805C625.06 259.535 625.535 259.391 626.022 259.391C626.674 259.391 627.3 259.65 627.761 260.112C628.222 260.573 628.481 261.199 628.481 261.852Z" fill="#A7B8FE" fill-opacity="0.4"/>
<path d="M572.199 360.547C572.2 361.036 572.056 361.514 571.786 361.921C571.515 362.328 571.13 362.645 570.68 362.832C570.229 363.02 569.732 363.069 569.254 362.974C568.775 362.879 568.335 362.644 567.99 362.299C567.645 361.953 567.41 361.513 567.315 361.034C567.22 360.554 567.269 360.058 567.456 359.606C567.644 359.155 567.961 358.77 568.367 358.499C568.774 358.229 569.251 358.085 569.739 358.086C570.391 358.088 571.016 358.347 571.477 358.809C571.937 359.27 572.197 359.895 572.199 360.547Z" fill="#A7B8FE" fill-opacity="0.4"/>
<path d="M515.828 327.093C515.828 327.581 515.683 328.058 515.412 328.464C515.14 328.87 514.755 329.187 514.304 329.373C513.853 329.56 513.357 329.608 512.879 329.513C512.4 329.417 511.961 329.181 511.616 328.836C511.272 328.49 511.038 328.049 510.943 327.57C510.849 327.091 510.898 326.595 511.086 326.144C511.274 325.693 511.591 325.308 511.997 325.038C512.403 324.767 512.88 324.624 513.368 324.625C513.692 324.625 514.012 324.689 514.311 324.813C514.61 324.937 514.881 325.119 515.109 325.348C515.338 325.577 515.519 325.849 515.642 326.149C515.765 326.448 515.828 326.769 515.828 327.093Z" fill="#A7B8FE" fill-opacity="0.4"/>
<path d="M690.233 327.093C690.232 327.579 690.086 328.055 689.815 328.459C689.544 328.863 689.16 329.177 688.71 329.362C688.261 329.548 687.767 329.596 687.29 329.5C686.813 329.404 686.376 329.169 686.033 328.825C685.689 328.48 685.456 328.042 685.361 327.564C685.267 327.087 685.316 326.592 685.502 326.143C685.689 325.694 686.004 325.31 686.408 325.039C686.812 324.769 687.288 324.625 687.774 324.625C688.097 324.625 688.418 324.689 688.716 324.813C689.015 324.937 689.286 325.119 689.515 325.348C689.743 325.577 689.924 325.849 690.048 326.149C690.171 326.448 690.234 326.769 690.233 327.093Z" fill="#A7B8FE" fill-opacity="0.4"/>
<path d="M628.481 327.093C628.48 327.579 628.334 328.055 628.063 328.459C627.792 328.863 627.408 329.177 626.958 329.362C626.509 329.548 626.015 329.596 625.538 329.5C625.061 329.404 624.624 329.169 624.281 328.825C623.937 328.48 623.704 328.042 623.609 327.564C623.515 327.087 623.564 326.592 623.75 326.143C623.937 325.694 624.252 325.31 624.656 325.039C625.06 324.769 625.536 324.625 626.022 324.625C626.345 324.625 626.666 324.689 626.964 324.813C627.263 324.937 627.534 325.119 627.763 325.348C627.991 325.577 628.172 325.849 628.296 326.149C628.419 326.448 628.482 326.769 628.481 327.093Z" fill="#A7B8FE" fill-opacity="0.4"/>
<path d="M176.666 159.058L173.742 157.383L174.251 156.495L177.182 158.183L176.666 159.058ZM172.081 156.407L169.157 154.72L169.672 153.826L172.597 155.52L172.081 156.407ZM167.502 153.763L164.572 152.07L165.087 151.176L168.018 152.869L167.502 153.763ZM162.905 151.088L159.98 149.394L160.49 148.507L163.421 150.194L162.905 151.088ZM158.326 148.437L155.395 146.75L155.911 145.856L158.835 147.55L158.326 148.437ZM153.741 145.793L150.81 144.1L151.326 143.206L154.257 144.899L153.741 145.793ZM149.156 143.143L146.231 141.45L146.747 140.562L149.697 142.274L149.156 143.143ZM144.577 140.493L141.646 138.806L142.162 137.912L145.086 139.605L144.577 140.493ZM139.992 137.849L137.067 136.155L137.576 135.261L140.507 136.955L139.992 137.849ZM135.406 135.198L132.482 133.505L132.998 132.617L135.922 134.304L135.406 135.198ZM130.828 132.573L127.897 130.886L128.412 129.992L131.343 131.686L130.828 132.573ZM126.242 129.929L123.318 128.236L123.827 127.342L126.758 129.035L126.242 129.929ZM121.657 127.279L118.733 125.585L119.248 124.698L122.173 126.385L121.657 127.279ZM117.091 124.647L114.16 122.96L114.676 122.066L117.607 123.76L117.091 124.647ZM112.506 122.003L109.581 120.31L110.097 119.416L113.022 121.109L112.506 122.003ZM107.927 119.353L104.996 117.66L105.512 116.766L108.437 118.459L107.927 119.353Z" fill="#A7B8FE" fill-opacity="0.4"/>
<path d="M177.283 242.071L176.768 241.177L179.522 239.578L180.038 240.465L177.283 242.071ZM181.686 239.508L181.17 238.615L184.095 236.921L184.611 237.809L181.686 239.508ZM186.265 236.852L185.749 235.958L188.674 234.258L189.19 235.152L186.265 236.852ZM190.844 234.189L190.328 233.301L193.253 231.602L193.768 232.495L190.844 234.189ZM195.416 231.532L194.901 230.645L197.825 228.945L198.341 229.833L195.416 231.532ZM199.995 228.876L199.479 227.982L202.404 226.288L202.92 227.176L199.995 228.876ZM204.574 226.219L204.058 225.325L206.983 223.625L207.499 224.519L204.574 226.219ZM209.153 223.562L208.637 222.668L211.556 220.969L212.078 221.863L209.153 223.562ZM213.725 220.899L213.21 220.012L216.134 218.312L216.65 219.206L213.725 220.899ZM218.304 218.243L217.789 217.355L220.713 215.655L221.229 216.543L218.304 218.243ZM222.883 215.586L222.367 214.692L225.292 212.999L225.808 213.886L222.883 215.586ZM227.462 212.93L226.94 212.036L229.865 210.336L230.38 211.23L227.462 212.93ZM232.035 210.267L231.519 209.379L234.444 207.679L234.959 208.573L232.035 210.267ZM236.613 207.61L236.098 206.722L239.022 205.023L239.538 205.91L236.613 207.61ZM241.192 204.953L240.677 204.059L243.601 202.366L244.117 203.254L241.192 204.953ZM245.765 202.297L245.249 201.403L248.174 199.703L248.69 200.597L245.765 202.297Z" fill="#7E96FB"/>
<path d="M8.17945 159.149L7.7832 158.199L10.928 156.895L11.3243 157.846L8.17945 159.149ZM13.0665 157.116L12.6702 156.165L15.8151 154.862L16.2113 155.813L13.0665 157.116ZM17.9535 155.082L17.5573 154.132L20.7021 152.829L21.0984 153.785L17.9535 155.082ZM22.8406 153.049L22.4443 152.098L25.5892 150.801L25.9854 151.752L22.8406 153.049ZM27.7276 151.016L27.3314 150.065L30.4762 148.768L30.8724 149.719L27.7276 151.016ZM32.6084 148.982L32.2184 148.032L35.3632 146.735L35.7595 147.685L32.6084 148.982ZM37.4954 146.949L37.1118 145.998L40.2566 144.701L40.6528 145.652L37.4954 146.949ZM42.3825 144.915L41.9862 143.965L45.131 142.668L45.5273 143.619L42.3825 144.915ZM47.2569 142.907L46.8607 141.957L50.0055 140.66L50.3955 141.61L47.2569 142.907ZM52.144 140.874L51.7477 139.923L54.8926 138.626L55.2888 139.577L52.144 140.874ZM57.031 138.84L56.6096 137.871L59.7544 136.574L60.1507 137.525L57.031 138.84ZM61.9181 136.807L61.5218 135.856L64.6666 134.56L65.0629 135.51L61.9181 136.807ZM66.8051 134.774L66.4089 133.823L69.5537 132.526L69.9499 133.477L66.8051 134.774ZM71.6922 132.74L71.2959 131.79L74.4407 130.493L74.837 131.443L71.6922 132.74ZM76.5729 130.707L76.183 129.756L79.3278 128.459L79.724 129.41L76.5729 130.707ZM81.46 128.673L81.07 127.723L84.2148 126.426L84.6111 127.377L81.46 128.673ZM86.347 126.64L85.9508 125.689L89.0956 124.393L89.4918 125.343L86.347 126.64ZM91.2341 124.607L90.8378 123.656L93.9826 122.359L94.3726 123.31L91.2341 124.607ZM96.1211 122.573L95.7249 121.623L98.8697 120.326L99.2596 121.276L96.1211 122.573ZM101.008 120.54L100.612 119.589L103.757 118.292L104.153 119.243L101.008 120.54ZM105.895 118.513L105.499 117.556L107.386 116.763L108.443 116.133L108.971 117.021L107.814 117.707L105.895 118.513ZM244.67 116.977L241.77 115.239L242.298 114.352L245.198 116.089L244.67 116.977ZM110.638 116.001L110.109 115.12L113.009 113.382L113.537 114.263L110.638 116.001ZM240.135 114.257L237.235 112.513L237.764 111.632L240.663 113.369L240.135 114.257ZM115.179 113.281L114.65 112.4L117.55 110.663L118.078 111.544L115.179 113.281ZM235.594 111.531L232.719 109.794L233.248 108.912L236.147 110.65L235.594 111.531ZM119.72 110.562L119.191 109.68L122.091 107.943L122.619 108.824L119.72 110.562ZM231.046 108.812L228.147 107.074L228.675 106.193L231.575 107.93L231.046 108.812ZM124.261 107.842L123.733 106.955L126.632 105.217L127.16 106.105L124.261 107.842ZM226.518 106.092L223.612 104.355L224.14 103.467L227.046 105.211L226.518 106.092ZM128.802 105.135L128.274 104.248L131.173 102.51L131.702 103.398L128.802 105.135ZM221.977 103.385L219.077 101.648L219.605 100.76L222.505 102.497L221.977 103.385ZM133.343 102.397L132.815 101.515L135.721 99.7779L136.249 100.659L133.343 102.397ZM217.442 100.653L214.542 98.9091L215.071 98.0278L217.97 99.7653L217.442 100.653ZM137.884 99.6772L137.356 98.7958L140.255 97.0583L140.784 97.9397L137.884 99.6772ZM212.901 97.9271L210.001 96.1895L210.53 95.3082L213.429 97.0457L212.901 97.9271ZM142.457 96.9576L141.929 96.0762L144.828 94.3387L145.356 95.2201L142.457 96.9576ZM208.391 95.2075L205.492 93.47L206.02 92.5886L208.919 94.3261L208.391 95.2075ZM146.998 94.238L146.47 93.3504L149.369 91.6128L149.897 92.5005L146.998 94.238ZM203.787 92.4879L200.888 90.7504L201.416 89.8627L204.315 91.6065L203.787 92.4879ZM151.476 91.5184L150.954 90.656L153.854 88.9184L154.382 89.7998L151.476 91.5184ZM199.246 89.7683L196.346 88.0308L196.875 87.1432L199.774 88.8807L199.246 89.7683ZM156.042 88.7674L155.514 87.886L158.414 86.1485L158.942 87.0299L156.042 88.7674ZM194.736 87.0236L191.837 85.3049L192.365 84.4236L195.271 86.1611L194.736 87.0236ZM160.584 86.0478L160.049 85.1664L162.955 83.4289L163.483 84.3103L160.584 86.0478ZM190.195 84.2977L187.296 82.5602L187.824 81.6788L190.723 83.4163L190.195 84.2977ZM165.118 83.3282L164.59 82.4469L167.49 80.7093L168.024 81.5907L165.118 83.3282ZM185.654 81.5781L182.755 79.8406L183.283 78.9592L186.182 80.6967L185.654 81.5781ZM169.66 80.6086L169.131 79.721L172.031 77.9835L172.559 78.8711L169.66 80.6086ZM181.144 78.8837L178.245 77.1462L178.773 76.2585L181.673 78.0024L181.144 78.8837ZM174.226 77.9142L173.697 77.0266L176.597 75.2891L177.125 76.1704L174.226 77.9142Z" fill="#A7B8FE" fill-opacity="0.4"/>
<path d="M401.679 159.036L400.906 158.249L401.635 157.525L402.409 158.312L401.679 159.036ZM399.566 156.889L397.189 154.478L397.924 153.754L400.296 156.165L399.566 156.889ZM320.801 156.259H319.77V152.879H320.776L320.801 156.259ZM395.849 153.112L393.471 150.701L394.207 149.977L396.579 152.388L395.849 153.112ZM320.776 150.984H319.77V147.603H320.776V150.984ZM392.107 149.347L389.729 146.936L390.465 146.212L392.836 148.623L392.107 149.347ZM320.776 145.69H319.77V142.277H320.776V145.69ZM388.389 145.576L386.012 143.165L386.748 142.441L389.119 144.852L388.389 145.576ZM384.672 141.799L382.301 139.388L383.031 138.664L385.402 141.075L384.672 141.799ZM320.776 140.389H319.77V137.008H320.776V140.389ZM380.955 138.034L378.64 135.623L379.37 134.906L381.748 137.31L380.955 138.034ZM320.776 135.094H319.77V131.714H320.776V135.094ZM377.238 134.264L374.867 131.859L375.596 131.135L377.974 133.54L377.238 134.264ZM373.521 130.486L371.15 128.081L371.879 127.358L374.257 129.762L373.521 130.486ZM320.776 129.8H319.77V126.413H320.776V129.8ZM369.835 126.722L367.464 124.317L368.193 123.593L370.571 125.998L369.835 126.722ZM320.776 124.499H319.77V121.119H320.776V124.499ZM366.093 122.951L363.715 120.546L364.445 119.822L366.822 122.233L366.093 122.951ZM320.776 119.174H319.77V115.837H320.776V119.174ZM362.376 119.174L359.998 116.769L360.734 116.045L363.105 118.456L362.376 119.174ZM358.658 115.396L356.281 112.985L357.017 112.261L359.388 114.672L358.658 115.396ZM320.776 113.911H319.77V110.524H320.776V113.911ZM354.941 111.644L352.564 109.233L353.3 108.509L355.671 110.92L354.941 111.644ZM320.776 108.61H319.77V105.229H320.776V108.61ZM351.224 107.874L348.847 105.462L349.582 104.738L351.954 107.15L351.224 107.874ZM347.507 104.096L345.136 101.685L345.865 100.961L348.236 103.372L347.507 104.096ZM320.776 103.316H319.77V99.9288H320.776V103.316ZM343.79 100.332L341.418 97.9206L342.148 97.1966L344.526 99.6077L343.79 100.332ZM320.776 98.0213H319.77V94.6344H320.776V98.0213ZM340.072 96.5608L337.758 94.1497L338.487 93.4257L340.865 95.8368L340.072 96.5608ZM336.355 92.7836L333.984 90.3788L334.714 89.6548L337.091 92.0659L336.355 92.7836ZM320.776 92.7206H319.77V89.3401H320.776V92.7206ZM332.638 89.019L330.267 86.6079L330.997 85.8902L333.374 88.295L332.638 89.019ZM320.776 87.4263H319.77V84.0394H320.776V87.4263ZM328.952 85.2481L326.575 82.8433L327.305 82.1193L329.682 84.5241L328.952 85.2481ZM320.776 82.1319H319.77V78.745H320.776V82.1319ZM325.21 81.5024L322.833 79.0976L323.568 78.3736L325.94 80.7784L325.21 81.5024ZM321.493 77.7252L320.65 76.8061H319.77V74.4453L322.248 76.9634L321.493 77.7252Z" fill="#A7B8FE" fill-opacity="0.4"/>
<path d="M81.3288 75.8933H77.9513V74.8672H81.3288V75.8933ZM76.0392 75.8933H72.6617V74.8672H76.0392V75.8933ZM70.7496 75.8933H67.3658V74.8672H70.7496V75.8933ZM65.4538 75.8933H62.0762V74.8672H65.4538V75.8933ZM60.1642 75.8933H56.7867V74.8672H60.1642V75.8933ZM54.8746 75.8933H51.4908V74.8672H54.8746V75.8933ZM49.5787 75.8933H46.2012V74.8672H49.5787V75.8933ZM44.2892 75.8933H40.8865V74.8672H44.2703L44.2892 75.8933ZM38.9996 75.8933H35.6158V74.8672H38.9996V75.8933ZM33.7037 75.8933H30.3262V74.8672H33.7037V75.8933Z" fill="#A7B8FE" fill-opacity="0.4"/>
<path d="M103.116 200.599L102.613 199.699L105.569 198.049L106.066 198.943L103.116 200.599ZM107.739 198.012L107.236 197.111L110.186 195.462L110.689 196.362L107.739 198.012ZM112.356 195.43L111.853 194.53L114.803 192.881L115.306 193.781L112.356 195.43ZM116.979 192.843L116.476 191.949L119.425 190.293L119.929 191.194L116.979 192.843ZM121.595 190.262L121.092 189.362L124.042 187.712L124.545 188.613L121.595 190.262ZM126.212 187.681L125.715 186.781L128.665 185.131L129.168 186.025L126.212 187.681ZM130.829 185.087L130.325 184.187L133.282 182.569L133.785 183.469L130.829 185.087ZM135.445 182.506L134.948 181.606L137.898 179.957L138.401 180.857L135.445 182.506ZM140.068 179.919L139.565 179.025L142.515 177.369L143.018 178.269L140.068 179.919ZM144.685 177.338L144.188 176.437L147.138 174.788L147.641 175.688L144.685 177.338ZM149.308 174.757L148.804 173.856L151.754 172.207L152.257 173.107L149.308 174.757ZM153.924 172.169L153.421 171.275L156.377 169.62L156.88 170.52L153.924 172.169ZM158.547 169.588L158.044 168.688L160.994 167.038L161.497 167.939L158.547 169.588ZM163.164 167.007L162.66 166.107L165.617 164.457L166.113 165.351L163.164 167.007ZM167.786 164.42L167.283 163.519L170.233 161.87L170.736 162.77L167.786 164.42ZM172.403 161.839L171.9 160.938L174.856 159.276L175.353 160.177L172.403 161.839ZM177.026 159.251L176.523 158.357L176.768 158.219L177.271 159.119L177.026 159.251Z" fill="#A7B8FE" fill-opacity="0.4"/>
<path d="M153.099 117.932H104.826L80.4785 75.7215L104.618 33.8828L105.889 34.6194L82.1767 75.7215L105.675 116.465H153.099V117.932Z" fill="#C6D0FF" fill-opacity="0.6"/>
<path d="M176.386 241.254L152.463 282.727L153.737 283.463L177.66 241.99L176.386 241.254Z" fill="#C6D0FF" fill-opacity="0.6"/>
<path d="M225.116 159.412H176.421L152.074 117.202L176.421 75.0234H225.116L249.463 117.202L225.116 159.412ZM177.27 157.939H224.267L247.765 117.202L224.267 76.4651H177.27L153.772 117.202L177.27 157.939Z" fill="#C6D0FF" fill-opacity="0.6"/>
<path d="M225.117 242.354H176.422L152.289 200.515L153.56 199.778L177.271 240.88H224.268L247.766 200.143L224.06 159.041L225.331 158.305L249.464 200.143L225.117 242.354Z" fill="#C6D0FF" fill-opacity="0.6"/>
<path d="M153.526 200.875H104.826L80.4785 158.665L104.826 116.461H153.099V117.928H105.675L82.1767 158.665L105.675 199.402H152.677L176.383 158.3L177.66 159.036L153.526 200.875Z" fill="#C6D0FF" fill-opacity="0.6"/>
<path d="M297 200.51L295.724 199.773L319.436 158.665L295.938 117.928H248.514V116.461H296.787L321.134 158.665L297 200.51Z" fill="#C6D0FF" fill-opacity="0.6"/>
<path d="M319.641 75.3476L295.719 116.82L296.993 117.557L320.916 76.0842L319.641 75.3476Z" fill="#C6D0FF" fill-opacity="0.6"/>
<path d="M402.044 157.93H320.285V159.403H402.044V157.93Z" fill="#C6D0FF" fill-opacity="0.6"/>
<path d="M81.3349 157.93H7.97266V159.403H81.3349V157.93Z" fill="#C6D0FF" fill-opacity="0.6"/>
<path d="M153.099 202.534C154.419 202.534 155.489 201.463 155.489 200.142C155.489 198.821 154.419 197.75 153.099 197.75C151.779 197.75 150.709 198.821 150.709 200.142C150.709 201.463 151.779 202.534 153.099 202.534Z" fill="#A7B8FE" fill-opacity="0.4"/>
<path d="M107.643 200.142C107.643 200.615 107.503 201.078 107.241 201.471C106.978 201.865 106.605 202.171 106.168 202.352C105.731 202.533 105.251 202.581 104.787 202.488C104.323 202.396 103.898 202.168 103.563 201.834C103.229 201.499 103.001 201.073 102.909 200.609C102.817 200.145 102.864 199.664 103.045 199.227C103.226 198.79 103.532 198.416 103.925 198.153C104.319 197.89 104.781 197.75 105.253 197.75C105.887 197.75 106.495 198.002 106.943 198.451C107.392 198.899 107.643 199.508 107.643 200.142Z" fill="#A7B8FE" fill-opacity="0.4"/>
<path d="M155.489 283.088C155.489 283.561 155.349 284.023 155.086 284.417C154.824 284.81 154.45 285.117 154.014 285.298C153.577 285.479 153.096 285.526 152.633 285.434C152.169 285.341 151.743 285.114 151.409 284.779C151.075 284.445 150.847 284.018 150.755 283.554C150.663 283.09 150.71 282.609 150.891 282.172C151.072 281.735 151.378 281.361 151.771 281.098C152.164 280.836 152.626 280.695 153.099 280.695C153.413 280.695 153.724 280.757 154.014 280.877C154.304 280.998 154.567 281.174 154.789 281.396C155.011 281.618 155.187 281.882 155.307 282.172C155.427 282.462 155.489 282.773 155.489 283.088Z" fill="#A7B8FE" fill-opacity="0.4"/>
<path d="M179.409 158.65C179.409 159.123 179.269 159.586 179.006 159.98C178.743 160.373 178.369 160.68 177.932 160.861C177.495 161.042 177.014 161.089 176.55 160.996C176.087 160.903 175.661 160.675 175.327 160.339C174.993 160.004 174.766 159.577 174.674 159.113C174.583 158.648 174.631 158.167 174.813 157.73C174.995 157.293 175.302 156.92 175.696 156.658C176.09 156.396 176.552 156.257 177.025 156.258C177.658 156.259 178.264 156.512 178.711 156.961C179.158 157.409 179.409 158.017 179.409 158.65Z" fill="#A7B8FE" fill-opacity="0.4"/>
<path d="M177.025 244.011C178.345 244.011 179.415 242.94 179.415 241.619C179.415 240.298 178.345 239.227 177.025 239.227C175.705 239.227 174.635 240.298 174.635 241.619C174.635 242.94 175.705 244.011 177.025 244.011Z" fill="#A7B8FE" fill-opacity="0.4"/>
<path d="M227.47 158.65C227.47 159.123 227.329 159.586 227.067 159.979C226.804 160.372 226.431 160.679 225.994 160.86C225.557 161.041 225.077 161.089 224.613 160.996C224.15 160.904 223.724 160.676 223.389 160.342C223.055 160.007 222.828 159.581 222.735 159.117C222.643 158.653 222.69 158.172 222.871 157.735C223.052 157.297 223.359 156.924 223.752 156.661C224.145 156.398 224.607 156.258 225.08 156.258C225.713 156.258 226.321 156.51 226.77 156.958C227.218 157.407 227.47 158.016 227.47 158.65Z" fill="#A7B8FE" fill-opacity="0.4"/>
<path d="M227.47 75.7219C227.471 76.1953 227.332 76.6584 227.07 77.0526C226.808 77.4469 226.435 77.7545 225.998 77.9365C225.562 78.1185 225.081 78.1668 224.617 78.0752C224.153 77.9836 223.727 77.7563 223.392 77.4219C223.057 77.0876 222.829 76.6614 222.736 76.1972C222.643 75.733 222.69 75.2516 222.871 74.8142C223.051 74.3767 223.358 74.0027 223.751 73.7395C224.144 73.4764 224.607 73.3359 225.08 73.3359C225.712 73.3359 226.319 73.5871 226.767 74.0344C227.215 74.4816 227.468 75.0885 227.47 75.7219Z" fill="#A7B8FE" fill-opacity="0.4"/>
<path d="M179.257 75.7219C179.258 76.1955 179.119 76.6589 178.856 77.0533C178.594 77.4476 178.221 77.7552 177.784 77.9371C177.347 78.1189 176.866 78.1668 176.402 78.0747C175.938 77.9826 175.511 77.7547 175.177 77.4197C174.842 77.0848 174.614 76.658 174.522 76.1933C174.43 75.7287 174.478 75.2472 174.66 74.8098C174.841 74.3724 175.149 73.9989 175.543 73.7365C175.937 73.4741 176.4 73.3347 176.873 73.3359C177.505 73.3376 178.11 73.5895 178.557 74.0366C179.003 74.4837 179.255 75.0896 179.257 75.7219Z" fill="#A7B8FE" fill-opacity="0.4"/>
<path d="M322.663 158.65C322.663 159.123 322.523 159.586 322.26 159.979C321.997 160.372 321.624 160.679 321.188 160.86C320.751 161.041 320.27 161.089 319.807 160.996C319.343 160.904 318.917 160.676 318.583 160.342C318.249 160.007 318.021 159.581 317.929 159.117C317.837 158.653 317.884 158.172 318.065 157.735C318.246 157.297 318.552 156.924 318.945 156.661C319.338 156.398 319.8 156.258 320.273 156.258C320.907 156.258 321.515 156.51 321.963 156.958C322.411 157.407 322.663 158.016 322.663 158.65Z" fill="#A7B8FE" fill-opacity="0.4"/>
<path d="M404.427 158.65C404.427 159.123 404.286 159.586 404.024 159.979C403.761 160.372 403.388 160.679 402.951 160.86C402.514 161.041 402.034 161.089 401.57 160.996C401.107 160.904 400.681 160.676 400.347 160.342C400.012 160.007 399.785 159.581 399.692 159.117C399.6 158.653 399.648 158.172 399.828 157.735C400.009 157.297 400.316 156.924 400.709 156.661C401.102 156.398 401.564 156.258 402.037 156.258C402.67 156.258 403.278 156.51 403.727 156.958C404.175 157.407 404.427 158.016 404.427 158.65Z" fill="#A7B8FE" fill-opacity="0.4"/>
<path d="M83.7196 158.65C83.7196 159.123 83.5794 159.586 83.3168 159.979C83.0542 160.372 82.6809 160.679 82.2442 160.86C81.8074 161.041 81.3269 161.089 80.8632 160.996C80.3996 160.904 79.9737 160.676 79.6395 160.342C79.3052 160.007 79.0776 159.581 78.9854 159.117C78.8932 158.653 78.9405 158.172 79.1214 157.735C79.3023 157.297 79.6086 156.924 80.0017 156.661C80.3947 156.398 80.8568 156.258 81.3295 156.258C81.9634 156.258 82.5713 156.51 83.0195 156.958C83.4678 157.407 83.7196 158.016 83.7196 158.65Z" fill="#A7B8FE" fill-opacity="0.4"/>
<path d="M10.3563 158.65C10.3563 159.123 10.216 159.586 9.95306 159.98C9.69015 160.373 9.3165 160.68 8.87941 160.861C8.44232 161.042 7.96144 161.089 7.49764 160.996C7.03384 160.903 6.60798 160.675 6.27398 160.339C5.93998 160.004 5.71284 159.577 5.62133 159.113C5.52982 158.648 5.57805 158.167 5.75992 157.73C5.94178 157.293 6.2491 156.92 6.64297 156.658C7.03684 156.396 7.49955 156.257 7.97252 156.258C8.60532 156.259 9.21162 156.512 9.65849 156.961C10.1054 157.409 10.3563 158.017 10.3563 158.65Z" fill="#A7B8FE" fill-opacity="0.4"/>
<path d="M155.489 117.191C155.49 117.664 155.351 118.127 155.089 118.521C154.827 118.916 154.455 119.223 154.018 119.405C153.581 119.587 153.101 119.636 152.637 119.544C152.173 119.452 151.746 119.225 151.411 118.891C151.076 118.556 150.848 118.13 150.755 117.666C150.663 117.202 150.71 116.72 150.89 116.283C151.071 115.845 151.377 115.471 151.771 115.208C152.164 114.945 152.626 114.805 153.099 114.805C153.732 114.805 154.339 115.056 154.787 115.503C155.235 115.95 155.487 116.557 155.489 117.191Z" fill="#A7B8FE" fill-opacity="0.4"/>
<path d="M107.643 117.191C107.645 117.664 107.506 118.127 107.244 118.521C106.982 118.916 106.609 119.223 106.172 119.405C105.736 119.587 105.255 119.636 104.791 119.544C104.327 119.452 103.9 119.225 103.566 118.891C103.231 118.556 103.002 118.13 102.91 117.666C102.817 117.202 102.864 116.72 103.045 116.283C103.225 115.845 103.532 115.471 103.925 115.208C104.318 114.945 104.78 114.805 105.253 114.805C105.886 114.805 106.493 115.056 106.941 115.503C107.389 115.95 107.642 116.557 107.643 117.191Z" fill="#A7B8FE" fill-opacity="0.4"/>
<path d="M296.283 119.581C297.603 119.581 298.673 118.51 298.673 117.189C298.673 115.868 297.603 114.797 296.283 114.797C294.963 114.797 293.893 115.868 293.893 117.189C293.893 118.51 294.963 119.581 296.283 119.581Z" fill="#A7B8FE" fill-opacity="0.4"/>
<path d="M320.285 78.1126C321.605 78.1126 322.675 77.0415 322.675 75.7203C322.675 74.3992 321.605 73.3281 320.285 73.3281C318.965 73.3281 317.895 74.3992 317.895 75.7203C317.895 77.0415 318.965 78.1126 320.285 78.1126Z" fill="#A7B8FE" fill-opacity="0.4"/>
<path d="M248.437 119.581C249.757 119.581 250.827 118.51 250.827 117.189C250.827 115.868 249.757 114.797 248.437 114.797C247.117 114.797 246.047 115.868 246.047 117.189C246.047 118.51 247.117 119.581 248.437 119.581Z" fill="#A7B8FE" fill-opacity="0.4"/>
<path d="M227.47 241.619C227.47 242.092 227.329 242.554 227.067 242.948C226.804 243.341 226.431 243.648 225.994 243.829C225.557 244.01 225.077 244.057 224.613 243.965C224.15 243.873 223.724 243.645 223.389 243.31C223.055 242.976 222.828 242.55 222.735 242.085C222.643 241.621 222.69 241.14 222.871 240.703C223.052 240.266 223.359 239.893 223.752 239.63C224.145 239.367 224.607 239.227 225.08 239.227C225.713 239.227 226.321 239.479 226.77 239.927C227.218 240.376 227.47 240.984 227.47 241.619Z" fill="#A7B8FE" fill-opacity="0.4"/>
<path d="M248.437 202.534C249.757 202.534 250.827 201.463 250.827 200.142C250.827 198.821 249.757 197.75 248.437 197.75C247.117 197.75 246.047 198.821 246.047 200.142C246.047 201.463 247.117 202.534 248.437 202.534Z" fill="#A7B8FE" fill-opacity="0.4"/>
<path d="M296.283 202.534C297.603 202.534 298.673 201.463 298.673 200.142C298.673 198.821 297.603 197.75 296.283 197.75C294.963 197.75 293.893 198.821 293.893 200.142C293.893 201.463 294.963 202.534 296.283 202.534Z" fill="#A7B8FE" fill-opacity="0.4"/>
<path d="M81.3295 78.1126C82.6495 78.1126 83.7196 77.0415 83.7196 75.7203C83.7196 74.3992 82.6495 73.3281 81.3295 73.3281C80.0095 73.3281 78.9395 74.3992 78.9395 75.7203C78.9395 77.0415 80.0095 78.1126 81.3295 78.1126Z" fill="#A7B8FE" fill-opacity="0.4"/>
<path d="M107.643 34.9235C107.643 35.3966 107.503 35.8591 107.241 36.2525C106.978 36.6459 106.605 36.9525 106.168 37.1336C105.731 37.3147 105.251 37.362 104.787 37.2697C104.323 37.1774 103.898 36.9496 103.563 36.615C103.229 36.2805 103.001 35.8542 102.909 35.3902C102.817 34.9261 102.864 34.4451 103.045 34.008C103.226 33.5709 103.532 33.1973 103.925 32.9344C104.319 32.6716 104.781 32.5313 105.253 32.5312C105.887 32.5313 106.495 32.7833 106.943 33.2319C107.392 33.6805 107.643 34.289 107.643 34.9235Z" fill="#A7B8FE" fill-opacity="0.4"/>
<path d="M139.966 80.7433C139.966 75.0775 135.771 71.3003 130.299 71.0233C128.626 70.9352 126.903 70.7149 125.846 69.5251C125.349 68.9116 125.07 68.1495 125.054 67.3595C125.053 66.9186 125.139 66.4819 125.307 66.0744C125.475 65.667 125.722 65.2967 126.034 64.985C126.345 64.6732 126.715 64.4261 127.122 64.2578C127.529 64.0895 127.966 64.0032 128.406 64.0041C130.35 64.0038 132.251 64.5704 133.878 65.6345L138.683 60.8186C136.79 59.3348 134.597 58.2821 132.255 57.7339V52.1562H126.249V57.5262C124.043 58.0273 122.07 59.2576 120.649 61.0186C119.227 62.7796 118.44 64.9685 118.414 67.2323C118.388 69.4961 119.124 71.7026 120.505 73.4961C121.885 75.2895 123.829 76.5651 126.022 77.1172C127.702 77.5201 130.343 77.2494 131.935 78.1811C132.364 78.451 132.713 78.8308 132.947 79.2813C133.18 79.7318 133.289 80.2366 133.262 80.7433C133.263 81.6272 132.916 82.476 132.295 83.1045C131.674 83.7331 130.83 84.0904 129.947 84.0987C127.408 84.1053 124.963 83.1415 123.11 81.4043L118.387 86.1321C120.574 88.2313 123.292 89.692 126.249 90.3563V94.5175H132.255V90.4948C134.446 89.9678 136.396 88.7204 137.794 86.9524C139.192 85.1844 139.957 82.9981 139.966 80.7433Z" fill="#7F95F3"/>
<g opacity="0.8">
<path d="M276.71 151.143C276.608 149.528 275.881 148.017 274.684 146.929C273.487 145.841 271.914 145.263 270.298 145.316C268.682 145.369 267.15 146.05 266.027 147.214C264.904 148.378 264.278 149.934 264.282 151.552C264.267 152.521 264.485 153.479 264.916 154.346C265.347 155.214 265.979 155.965 266.76 156.538V152.604C266.801 151.591 267.231 150.634 267.961 149.932C268.69 149.231 269.663 148.839 270.675 148.839C271.687 148.839 272.66 149.231 273.39 149.932C274.12 150.634 274.55 151.591 274.591 152.604V156.381C276.119 155.178 276.779 153.271 276.71 151.143Z" fill="#C6D0FF" fill-opacity="0.6"/>
</g>
<g opacity="0.4">
<path d="M284.697 161.236L285.955 162.57C286.012 162.632 286.083 162.68 286.162 162.711C286.24 162.741 286.325 162.754 286.409 162.747C286.493 162.74 286.574 162.715 286.647 162.672C286.72 162.63 286.782 162.571 286.829 162.501C288.839 159.493 289.981 155.989 290.13 152.373C290.279 148.758 289.429 145.171 287.674 142.008C285.919 138.845 283.326 136.227 280.181 134.442C277.036 132.658 273.461 131.776 269.847 131.893C269.098 131.918 268.35 131.983 267.608 132.088C264.216 132.589 261.014 133.968 258.319 136.089C255.624 138.211 253.53 141.001 252.245 144.183C250.96 147.364 250.529 150.827 250.994 154.227C251.459 157.627 252.805 160.846 254.897 163.565C254.95 163.631 255.017 163.684 255.093 163.72C255.169 163.757 255.253 163.775 255.337 163.775C255.421 163.775 255.505 163.757 255.581 163.72C255.657 163.684 255.724 163.631 255.777 163.565L256.96 162.155C257.039 162.056 257.082 161.932 257.082 161.805C257.082 161.678 257.039 161.555 256.96 161.456C255.164 158.994 254.072 156.089 253.803 153.053C253.533 150.016 254.096 146.964 255.431 144.224C256.765 141.484 258.821 139.16 261.376 137.502C263.932 135.844 266.891 134.915 269.935 134.814C272.979 134.714 275.992 135.446 278.651 136.932C281.311 138.418 283.515 140.601 285.026 143.248C286.538 145.894 287.301 148.902 287.231 151.95C287.162 154.997 286.264 157.968 284.634 160.543C284.565 160.649 284.534 160.775 284.545 160.9C284.557 161.026 284.61 161.144 284.697 161.236Z" fill="#C6D0FF" fill-opacity="0.6"/>
</g>
<g opacity="0.6">
<path d="M280.08 156.126L281.608 157.719C281.679 157.799 281.769 157.859 281.869 157.894C281.97 157.93 282.077 157.939 282.182 157.921C282.287 157.904 282.386 157.86 282.469 157.793C282.553 157.727 282.618 157.641 282.659 157.543C283.547 155.66 283.978 153.593 283.917 151.512C283.89 149.733 283.51 147.978 282.798 146.348C282.087 144.718 281.058 143.246 279.771 142.019C278.485 140.791 276.967 139.833 275.307 139.199C273.646 138.565 271.876 138.269 270.1 138.328C268.324 138.386 266.577 138.798 264.962 139.54C263.346 140.282 261.895 141.338 260.692 142.648C259.489 143.957 258.559 145.493 257.956 147.167C257.353 148.84 257.089 150.617 257.18 152.393C257.242 154.472 257.796 156.506 258.796 158.33C258.843 158.424 258.914 158.506 259.001 158.566C259.088 158.626 259.189 158.663 259.295 158.674C259.4 158.684 259.507 158.668 259.604 158.627C259.702 158.585 259.787 158.52 259.853 158.437L261.274 156.743C261.352 156.651 261.401 156.539 261.417 156.419C261.432 156.3 261.413 156.179 261.362 156.07C260.823 154.881 260.524 153.597 260.482 152.292C260.431 150.806 260.71 149.327 261.299 147.961C261.887 146.596 262.771 145.377 263.885 144.394C265 143.411 266.319 142.687 267.746 142.274C269.174 141.861 270.675 141.77 272.142 142.007C273.609 142.243 275.005 142.802 276.23 143.644C277.456 144.485 278.48 145.587 279.229 146.871C279.979 148.155 280.434 149.59 280.564 151.071C280.694 152.553 280.494 154.045 279.979 155.44C279.927 155.552 279.909 155.676 279.927 155.798C279.945 155.92 279.998 156.034 280.08 156.126Z" fill="#C6D0FF" fill-opacity="0.6"/>
</g>
<path d="M375.27 111.19C375.275 110.825 375.207 110.462 375.07 110.124C374.933 109.785 374.731 109.477 374.473 109.218C374.216 108.959 373.91 108.754 373.573 108.615C373.235 108.476 372.873 108.405 372.509 108.408C372.05 108.435 371.598 108.281 371.251 107.98C371.106 107.802 371.026 107.58 371.024 107.35C371.023 107.224 371.048 107.099 371.095 106.982C371.143 106.865 371.213 106.759 371.302 106.669C371.391 106.58 371.497 106.509 371.613 106.46C371.729 106.412 371.854 106.387 371.98 106.387C372.537 106.386 373.081 106.548 373.546 106.853L374.924 105.48C374.384 105.054 373.757 104.751 373.087 104.593V103H371.345V104.536C370.713 104.679 370.148 105.032 369.741 105.536C369.333 106.04 369.108 106.667 369.101 107.316C369.093 107.964 369.305 108.596 369.701 109.11C370.096 109.623 370.654 109.988 371.282 110.145C371.76 110.259 372.54 110.183 372.974 110.447C373.096 110.524 373.196 110.633 373.262 110.761C373.328 110.89 373.359 111.033 373.351 111.178C373.353 111.43 373.255 111.673 373.078 111.854C372.901 112.034 372.66 112.137 372.408 112.141C371.679 112.143 370.977 111.866 370.446 111.366L369.1 112.72C369.719 113.331 370.497 113.756 371.345 113.948V115.144H373.068V113.992C373.696 113.839 374.254 113.48 374.653 112.972C375.053 112.464 375.27 111.837 375.27 111.19Z" fill="#7E96FB"/>
<path d="M372.004 100.359C370.185 100.359 368.408 100.899 366.895 101.91C365.383 102.922 364.205 104.359 363.509 106.041C362.813 107.723 362.63 109.573 362.985 111.359C363.34 113.144 364.216 114.784 365.502 116.071C366.788 117.358 368.426 118.235 370.21 118.59C371.994 118.945 373.843 118.763 375.523 118.066C377.203 117.37 378.639 116.19 379.65 114.676C380.66 113.163 381.199 111.383 381.199 109.563C381.196 107.123 380.226 104.784 378.503 103.059C376.779 101.333 374.442 100.363 372.004 100.359ZM376.092 115.676C374.884 116.484 373.464 116.916 372.011 116.916C370.558 116.916 369.138 116.485 367.929 115.677C366.721 114.87 365.779 113.721 365.223 112.378C364.667 111.034 364.521 109.556 364.804 108.13C365.088 106.703 365.787 105.393 366.814 104.364C367.842 103.336 369.151 102.635 370.576 102.352C372.001 102.068 373.478 102.213 374.82 102.77C376.163 103.326 377.31 104.268 378.118 105.477C379.2 107.096 379.598 109.077 379.224 110.989C378.85 112.9 377.736 114.585 376.124 115.676H376.092Z" fill="#C6D0FF" fill-opacity="0.6"/>
<path d="M399.597 95.1484H344.764V123.628H399.597V95.1484ZM396.924 115.205H396.552C395.783 115.205 395.02 115.356 394.309 115.65C393.598 115.945 392.952 116.377 392.408 116.922C391.864 117.467 391.433 118.115 391.139 118.827C390.845 119.539 390.695 120.302 390.697 121.073V121.444H353.318V121.073C353.318 119.518 352.701 118.026 351.603 116.926C350.505 115.826 349.016 115.207 347.462 115.205H347.091V103.943H347.462C349.016 103.941 350.505 103.322 351.603 102.222C352.701 101.122 353.318 99.6308 353.318 98.0758V97.7043H390.697V98.0758C390.695 98.8462 390.845 99.6094 391.139 100.322C391.433 101.034 391.864 101.681 392.408 102.226C392.952 102.771 393.598 103.203 394.309 103.498C395.02 103.793 395.783 103.944 396.552 103.943H396.924V115.205Z" fill="#C6D0FF" fill-opacity="0.6"/>
<path d="M397.93 94.5156V94.5545C397.934 94.542 397.934 94.5282 397.93 94.5156Z" fill="#C6D0FF" fill-opacity="0.6"/>
<path d="M219.907 201.273H219.989V189.494C219.99 189.231 219.939 188.971 219.839 188.728C219.739 188.486 219.592 188.265 219.407 188.079C219.222 187.893 219.002 187.745 218.759 187.645C218.517 187.544 218.257 187.492 217.995 187.492H183.031C182.769 187.492 182.509 187.544 182.266 187.645C182.024 187.745 181.804 187.893 181.619 188.079C181.434 188.265 181.287 188.486 181.187 188.728C181.087 188.971 181.036 189.231 181.037 189.494V210.993C181.037 211.522 181.247 212.03 181.621 212.404C181.995 212.778 182.502 212.988 183.031 212.988H210.642C210.473 212.279 210.386 211.552 210.385 210.823C210.383 209.57 210.628 208.329 211.106 207.17C211.583 206.012 212.284 204.96 213.169 204.073C214.053 203.186 215.103 202.482 216.26 202.002C217.416 201.521 218.655 201.273 219.907 201.273ZM181.609 197.64V191.137H219.41V197.64H181.609Z" fill="#7F95F3"/>
<path d="M218.951 209.185C218.955 209.318 219.001 209.447 219.083 209.552C219.164 209.657 219.276 209.734 219.404 209.771V208.625H219.354C219.239 208.669 219.14 208.745 219.069 208.845C218.997 208.945 218.956 209.063 218.951 209.185Z" fill="#C6D0FF" fill-opacity="0.6"/>
<path d="M220.84 212.866L220.991 212.784C221.115 212.718 221.218 212.619 221.289 212.498C221.36 212.377 221.396 212.239 221.393 212.098C221.393 211.784 221.211 211.563 220.84 211.469V212.866Z" fill="#C6D0FF" fill-opacity="0.6"/>
<path d="M212.115 210.808C212.115 212.35 212.572 213.858 213.429 215.141C214.285 216.424 215.502 217.424 216.926 218.014C218.35 218.604 219.917 218.759 221.428 218.458C222.94 218.157 224.329 217.414 225.418 216.323C226.508 215.232 227.251 213.842 227.551 212.329C227.852 210.816 227.698 209.248 227.108 207.823C226.518 206.398 225.519 205.179 224.238 204.322C222.956 203.465 221.449 203.008 219.908 203.008C217.842 203.011 215.862 203.834 214.401 205.296C212.941 206.758 212.119 208.74 212.115 210.808ZM220.839 206.313V207.043C221.556 207.157 222.211 207.515 222.694 208.057C222.725 208.085 222.749 208.119 222.767 208.157C222.784 208.195 222.794 208.235 222.795 208.277C222.792 208.33 222.775 208.381 222.747 208.425C222.718 208.469 222.678 208.505 222.632 208.529L221.864 209.014C221.792 209.052 221.713 209.075 221.631 209.083C221.513 209.085 221.399 209.042 221.311 208.963C221.169 208.841 221.013 208.737 220.845 208.655V209.952C221.62 210.008 222.345 210.354 222.877 210.921C223.147 211.254 223.284 211.676 223.26 212.105C223.262 212.456 223.172 212.802 223 213.109C222.828 213.415 222.58 213.672 222.279 213.855C221.844 214.128 221.355 214.304 220.845 214.371V215C220.845 215.1 220.806 215.195 220.737 215.265C220.668 215.336 220.573 215.376 220.474 215.378H219.789C219.689 215.378 219.593 215.338 219.522 215.268C219.451 215.197 219.411 215.101 219.411 215V214.371C218.801 214.281 218.224 214.034 217.738 213.653C217.455 213.451 217.207 213.204 217.002 212.923C216.955 212.869 216.926 212.8 216.921 212.728C216.921 212.67 216.938 212.613 216.969 212.564C217 212.515 217.044 212.476 217.097 212.451L217.801 212.042C217.867 212.011 217.937 211.989 218.009 211.979C218.067 211.977 218.126 211.99 218.178 212.016C218.231 212.043 218.276 212.082 218.311 212.13C218.61 212.471 218.988 212.734 219.411 212.898V211.286C219.035 211.253 218.669 211.146 218.335 210.971C218 210.796 217.703 210.557 217.461 210.266C217.222 209.954 217.091 209.571 217.09 209.177C217.089 208.759 217.22 208.352 217.464 208.012C217.708 207.673 218.053 207.42 218.449 207.289C218.755 207.152 219.079 207.061 219.411 207.018V206.307C219.411 206.257 219.421 206.208 219.44 206.163C219.459 206.117 219.487 206.076 219.522 206.042C219.557 206.007 219.599 205.98 219.645 205.962C219.69 205.943 219.739 205.934 219.789 205.935H220.474C220.523 205.936 220.571 205.946 220.616 205.966C220.66 205.985 220.701 206.013 220.735 206.048C220.769 206.083 220.795 206.125 220.813 206.17C220.831 206.216 220.84 206.264 220.839 206.313Z" fill="#C6D0FF" fill-opacity="0.6"/>
<path d="M200.202 97.3661C200.132 97.3168 200.049 97.2878 199.964 97.2822C199.879 97.2767 199.793 97.2948 199.717 97.3347C199.641 97.3724 199.577 97.4308 199.533 97.5032C199.488 97.5755 199.465 97.6589 199.466 97.7439V101.66C195.335 101.9 191.449 103.698 188.591 106.692C185.733 109.686 184.114 113.654 184.062 117.794C184.067 121.788 185.566 125.636 188.264 128.578C188.349 128.666 188.463 128.717 188.585 128.723C188.683 128.723 188.778 128.69 188.855 128.629L192.66 125.645C192.705 125.606 192.741 125.559 192.767 125.507C192.793 125.454 192.808 125.397 192.812 125.338C192.815 125.279 192.807 125.221 192.788 125.165C192.768 125.11 192.738 125.059 192.698 125.015C190.797 123.106 189.73 120.521 189.729 117.826C189.763 115.198 190.782 112.678 192.586 110.768C194.39 108.857 196.846 107.696 199.466 107.514V111.436C199.465 111.52 199.488 111.602 199.532 111.672C199.577 111.743 199.641 111.798 199.717 111.833C199.795 111.869 199.882 111.883 199.968 111.873C200.053 111.863 200.134 111.829 200.202 111.776L204.648 108.257C204.681 108.244 204.711 108.225 204.737 108.2L206.441 106.834L209.089 104.744C209.144 104.702 209.188 104.648 209.219 104.585C209.249 104.523 209.265 104.455 209.265 104.385C209.266 104.317 209.25 104.249 209.219 104.188C209.189 104.127 209.144 104.074 209.089 104.033L200.202 97.3661Z" fill="#C6D0FF" fill-opacity="0.6"/>
<path d="M211.525 106.394L207.468 109.611C207.416 109.652 207.373 109.703 207.342 109.762C207.312 109.82 207.295 109.885 207.292 109.951C207.289 110.015 207.3 110.079 207.325 110.138C207.35 110.197 207.388 110.249 207.437 110.291C208.487 111.248 209.325 112.415 209.897 113.716C210.469 115.017 210.762 116.424 210.758 117.846C210.733 120.586 209.632 123.206 207.692 125.141C205.752 127.075 203.13 128.168 200.392 128.182V124.084C200.391 123.999 200.366 123.917 200.32 123.845C200.275 123.774 200.211 123.716 200.134 123.679C200.058 123.642 199.973 123.626 199.889 123.635C199.804 123.643 199.724 123.674 199.656 123.725L195.317 127.074C195.239 127.103 195.169 127.15 195.115 127.213L191.059 130.361C191.005 130.401 190.963 130.454 190.933 130.514C190.904 130.574 190.888 130.64 190.889 130.707C190.89 130.774 190.906 130.839 190.935 130.899C190.964 130.959 191.007 131.011 191.059 131.053L199.675 138.085C199.757 138.148 199.856 138.185 199.958 138.192C200.025 138.192 200.091 138.18 200.153 138.154C200.23 138.12 200.295 138.065 200.341 137.994C200.387 137.924 200.411 137.842 200.411 137.758V133.98C209.462 134.043 216.978 126.86 216.978 117.808C216.976 115.68 216.548 113.574 215.721 111.614C214.894 109.654 213.683 107.879 212.16 106.394C212.073 106.316 211.96 106.273 211.843 106.273C211.725 106.273 211.612 106.316 211.525 106.394Z" fill="#A7B8FE" fill-opacity="0.4"/>
<path d="M129.77 242.657C129.768 242.186 129.646 241.723 129.414 241.312C129.183 240.902 128.851 240.557 128.449 240.312C128.047 240.066 127.589 239.927 127.118 239.908C126.648 239.89 126.18 239.992 125.76 240.205C125.34 240.418 124.982 240.735 124.719 241.126C124.456 241.517 124.297 241.969 124.258 242.439C124.218 242.909 124.3 243.381 124.494 243.81C124.688 244.239 124.989 244.612 125.368 244.892L124.625 250.161H129.355L128.632 244.892C128.984 244.635 129.271 244.299 129.468 243.911C129.666 243.523 129.77 243.093 129.77 242.657Z" fill="#D2DAFD"/>
<path d="M123.716 229.063C123.096 229.463 122.587 230.012 122.234 230.659C121.881 231.307 121.697 232.033 121.697 232.771V236.781H132.289V232.74C131.861 229.076 127.685 226.539 123.716 229.063Z" fill="#D2DAFD"/>
<path d="M145.772 208.484H108.248L89.4922 241.006L108.248 273.528H145.772L164.528 241.006L145.772 208.484ZM138.52 254.654H115.506V236.776H117.544V232.759C117.535 231.203 117.95 229.673 118.744 228.336C119.539 226.998 120.683 225.902 122.054 225.167C129.236 221.39 136.476 226.539 136.476 233.351H136.413V236.769H138.52V254.654Z" fill="#8398F3"/>
<path opacity="0.2" d="M273.053 152.346C273.043 152.056 272.976 151.771 272.856 151.506C272.736 151.242 272.565 151.004 272.353 150.806C272.141 150.607 271.892 150.453 271.621 150.351C271.349 150.249 271.06 150.202 270.77 150.212H270.613C269.87 150.237 269.167 150.556 268.658 151.099C268.15 151.642 267.878 152.364 267.902 153.108V156.885V165.227C267.851 165.485 268.009 171.283 268.009 171.283C267.499 170.798 266.939 170.244 266.43 169.715C265.133 168.51 263.479 167.759 261.719 167.575C261.141 167.474 260.546 167.601 260.059 167.927C259.938 168.024 259.824 168.129 259.719 168.242C259.021 168.972 258.518 170.131 259.046 170.962C259.317 171.314 259.665 171.599 260.065 171.793C260.861 172.154 261.582 172.663 262.191 173.291C263.354 174.682 266.04 177.786 267.688 179.441C268.021 179.637 268.745 180.31 269.078 180.474C269.847 180.897 270.57 181.399 271.235 181.972C271.73 182.312 272.254 182.607 272.801 182.854C274.425 183.685 276.238 184.074 278.06 183.98C280.286 183.905 282.311 183.98 283.758 182.608H283.84L283.877 182.507C284.622 181.794 285.21 180.933 285.604 179.979C285.997 179.025 286.186 177.999 286.161 176.967C286.161 176.439 286.079 174.493 286.066 174.128L285.827 166.763C285.827 166.265 285.645 164.591 284.217 164.138C283.594 163.934 282.915 163.986 282.33 164.282H282.16C282.056 163.861 281.827 163.481 281.502 163.193C281.178 162.905 280.773 162.723 280.343 162.671C279.944 162.598 279.535 162.609 279.141 162.702C278.747 162.795 278.377 162.969 278.053 163.212C277.816 162.739 277.43 162.357 276.956 162.124C276.481 161.891 275.943 161.82 275.424 161.922C275.016 161.968 274.621 162.099 274.265 162.305C273.909 162.51 273.6 162.787 273.355 163.118L273.147 156.822L273.053 152.346Z" fill="#7E96FB"/>
<path d="M254.256 327.557L203.057 368.789L204.129 370.123L255.328 328.891L254.256 327.557Z" fill="#C6D0FF" fill-opacity="0.6"/>
<path d="M257.396 346.943C269.917 356.641 285.75 361.015 301.468 359.117C317.186 357.219 331.525 349.202 341.382 336.801L294.26 299.281L257.396 346.943Z" fill="#E6EAFF" fill-opacity="0.8"/>
<path d="M293.53 233.492C283.119 233.494 272.887 236.197 263.832 241.337C254.776 246.477 247.206 253.879 241.86 262.82C236.514 271.761 233.575 281.936 233.329 292.353C233.084 302.77 235.539 313.073 240.458 322.256L293.53 293.745V233.492Z" fill="#C6D0FF" fill-opacity="0.6"/>
<path d="M296.094 295.609L343.216 333.148C351.72 322.49 356.343 309.25 356.323 295.609H296.094Z" fill="#8398F3"/>
<path d="M250.962 349.991L250.289 349.469C243.525 344.205 237.929 337.591 233.854 330.048L233.445 329.292L290.819 298.445L250.962 349.991ZM235.772 329.985C239.552 336.767 244.608 342.752 250.66 347.612L284.536 303.815L235.772 329.985Z" fill="#7E96FB"/>
<path d="M205.769 367.687C206.113 368.116 206.323 368.637 206.371 369.185C206.42 369.733 206.305 370.283 206.041 370.766C205.778 371.249 205.377 371.642 204.89 371.897C204.403 372.152 203.851 372.256 203.305 372.197C202.758 372.139 202.241 371.919 201.82 371.566C201.398 371.213 201.09 370.743 200.935 370.215C200.78 369.688 200.785 369.126 200.949 368.601C201.113 368.076 201.429 367.611 201.857 367.265C202.141 367.036 202.468 366.864 202.819 366.761C203.169 366.658 203.537 366.625 203.9 366.664C204.263 366.704 204.615 366.814 204.936 366.99C205.257 367.165 205.54 367.402 205.769 367.687Z" fill="#A7B8FE" fill-opacity="0.4"/>
<path d="M362.241 287.928H358.31V286.732H361.103H362.241V287.941V287.928ZM356.083 287.928H352.146V286.732H356.083V287.928ZM349.92 287.928H345.982V286.732H349.92V287.928ZM343.756 287.928H339.818V286.732H343.756V287.928ZM337.592 287.928H333.655V286.732H337.592V287.928ZM331.428 287.928H327.491V286.732H331.428V287.928ZM325.264 287.928H321.327V286.732H325.264V287.928ZM319.1 287.928H315.163V286.732H319.1V287.928ZM312.937 287.928H308.999V286.732H312.937V287.928ZM306.773 287.928H302.835V286.732H306.773V287.928ZM302.018 286.518H300.823V282.577H302.018V286.518ZM360.983 284.548C360.92 283.251 360.82 281.942 360.675 280.657L361.864 280.525C362.015 281.835 362.115 283.169 362.178 284.491L360.983 284.548ZM302.018 280.368H300.823V276.427H302.018V280.368ZM360.392 278.479C360.197 277.22 359.964 275.904 359.687 274.639L360.857 274.387C361.14 275.678 361.379 276.994 361.574 278.303L360.392 278.479ZM302.018 274.205H300.823V270.264H302.018V274.205ZM359.184 272.499C358.863 271.24 358.492 269.981 358.09 268.753L359.228 268.375C359.643 269.634 360.014 270.893 360.341 272.196L359.184 272.499ZM302.018 268.035H300.823V264.094H302.018V268.035ZM357.366 266.663C356.914 265.448 356.417 264.233 355.888 263.049L356.983 262.558C357.524 263.767 358.027 265.007 358.486 266.247L357.366 266.663ZM302.018 261.866H300.823V257.925H302.018V261.866ZM354.951 261.047C354.385 259.883 353.763 258.724 353.115 257.604L354.159 256.974C354.788 258.126 355.417 259.31 356.046 260.493L354.951 261.047ZM351.983 255.709C351.297 254.614 350.561 253.525 349.8 252.473L350.775 251.768C351.549 252.845 352.297 253.953 352.995 255.073L351.983 255.709ZM302.018 255.709H300.823V251.768H302.018V255.709ZM348.479 250.717C347.687 249.697 346.844 248.69 345.963 247.72L346.863 246.921C347.737 247.909 348.592 248.942 349.379 249.98L348.479 250.717ZM302.018 249.54H300.823V245.599H302.018V249.54ZM344.492 246.102C343.599 245.164 342.655 244.245 341.705 243.37L342.517 242.489C343.485 243.376 344.441 244.314 345.353 245.271L344.492 246.102ZM302.018 243.37H300.823V239.429H302.018V243.37ZM340.057 241.91C339.07 241.072 338.045 240.254 337.007 239.48L337.724 238.516C338.781 239.31 339.825 240.141 340.831 240.997L340.057 241.91ZM335.221 238.195C334.151 237.465 333.051 236.754 331.944 236.093L332.573 235.06C333.705 235.74 334.831 236.458 335.919 237.207L335.221 238.195ZM302.018 237.201H300.823V233.26H302.018V237.201ZM330.032 234.997C328.9 234.368 327.73 233.782 326.56 233.235L327.063 232.152C328.258 232.706 329.453 233.31 330.61 233.946L330.032 234.997ZM324.547 232.297C323.352 231.793 322.132 231.327 320.912 230.905L321.302 229.772C322.56 230.2 323.818 230.679 325.013 231.189L324.547 232.297ZM302.011 230.981H300.816V227.04H302.011V230.981ZM318.817 230.219C317.559 229.842 316.301 229.502 315.044 229.206L315.314 228.041C316.572 228.343 317.893 228.671 319.151 229.073L318.817 230.219ZM312.899 228.746C311.641 228.501 310.339 228.287 309.056 228.117L309.207 226.927C310.515 227.097 311.836 227.311 313.132 227.556L312.899 228.746ZM306.861 227.884C305.603 227.77 304.269 227.695 302.974 227.657L303.005 226.461C304.326 226.492 305.659 226.574 306.974 226.688L306.861 227.884Z" fill="#A7B8FE" fill-opacity="0.4"/>
<path d="M493.923 294.744L490.923 292.969L491.464 292.05L494.464 293.831L493.923 294.744ZM489.231 291.962L486.231 290.218L486.772 289.305L489.772 291.08L489.231 291.962ZM484.539 289.186L481.539 287.41L482.08 286.497L485.08 288.273L484.539 289.186ZM479.847 286.403L476.853 284.628L477.388 283.715L480.388 285.49L479.847 286.403ZM475.155 283.627L472.161 281.851L472.695 280.939L475.696 282.714L475.155 283.627ZM470.469 280.844L467.475 279.069L468.01 278.156L471.01 279.931L470.469 280.844ZM465.777 278.068L462.783 276.293L463.318 275.38L466.318 277.155L465.777 278.068ZM461.085 275.292L458.091 273.516L458.626 272.597L461.626 274.379L461.085 275.292ZM456.393 272.509L453.399 270.734L453.94 269.821L456.934 271.596L456.393 272.509ZM451.701 269.733L448.707 267.958L449.248 267.045L452.229 268.814L451.701 269.733ZM447.002 266.925L444.008 265.15L444.549 264.237L447.543 266.012L447.002 266.925ZM442.31 264.149L439.316 262.374L439.857 261.461L442.851 263.236L442.31 264.149Z" fill="#A7B8FE" fill-opacity="0.4"/>
<path d="M513.634 327.546L513.105 326.627L516.118 324.883L516.647 325.796L513.634 327.546ZM518.351 324.814L517.823 323.895L520.842 322.151L521.37 323.07L518.351 324.814ZM523.075 322.082L522.546 321.163L525.559 319.419L526.087 320.338L523.075 322.082ZM527.792 319.356L527.263 318.437L530.282 316.693L530.811 317.612L527.792 319.356ZM532.515 316.624L531.987 315.705L535 313.961L535.528 314.88L532.515 316.624ZM537.239 313.892L536.704 312.973L539.723 311.229L540.252 312.148L537.239 313.892ZM541.956 311.166L541.428 310.247L544.44 308.503L544.975 309.422L541.956 311.166ZM546.68 308.434L546.145 307.515L549.164 305.771L549.692 306.69L546.68 308.434ZM551.397 305.701L550.868 304.789L553.881 303.045L554.416 303.958L551.397 305.701ZM556.12 302.976L555.586 302.056L558.605 300.313L559.133 301.232L556.12 302.976ZM560.838 300.243L560.309 299.324L563.322 297.581L563.857 298.5L560.838 300.243ZM565.561 297.518L565.026 296.598L568.045 294.855L568.574 295.774L565.561 297.518ZM570.278 294.785L569.75 293.866L572.763 292.122L573.297 293.042L570.278 294.785ZM575.002 292.053L574.467 291.134L577.486 289.39L578.014 290.309L575.002 292.053ZM579.719 289.327L579.191 288.408L582.203 286.664L582.738 287.584L579.719 289.327ZM584.443 286.595L583.908 285.676L586.927 283.932L587.455 284.851L584.443 286.595ZM589.16 283.869L588.631 282.95L591.65 281.206L592.179 282.125L589.16 283.869ZM593.883 281.137L593.355 280.218L596.368 278.474L596.896 279.393L593.883 281.137ZM598.6 278.405L598.072 277.486L601.091 275.742L601.62 276.661L598.6 278.405ZM603.324 275.679L602.796 274.76L605.808 273.016L606.337 273.935L603.324 275.679ZM608.041 272.947L607.513 272.028L610.532 270.284L611.06 271.203L608.041 272.947ZM612.765 270.215L612.236 269.296L615.249 267.552L615.784 268.471L612.765 270.215ZM617.488 267.489L616.954 266.57L619.973 264.826L620.501 265.745L617.488 267.489ZM622.205 264.757L621.677 263.838L624.69 262.094L625.224 263.013L622.205 264.757Z" fill="#A7B8FE" fill-opacity="0.4"/>
<path d="M174.327 373.075V363.436H172.723V362.114C173.19 362.056 173.634 361.878 174.012 361.598C174.399 361.337 174.707 360.973 174.899 360.547H176.213V373.075H174.327Z" fill="#7E96FB"/>
<path d="M177.793 364.085C177.76 363.59 177.827 363.094 177.992 362.626C178.156 362.159 178.414 361.73 178.749 361.365C179.036 361.085 179.377 360.867 179.751 360.724C180.126 360.581 180.525 360.517 180.925 360.534C181.323 360.531 181.718 360.613 182.082 360.773C182.446 360.934 182.772 361.17 183.039 361.466C183.604 362.044 183.918 362.822 183.913 363.631C183.911 364.487 183.715 365.33 183.341 366.099C182.915 366.891 182.431 367.651 181.894 368.372C181.686 368.661 181.385 369.121 180.976 369.738L180.636 370.248C180.416 370.581 180.252 370.877 180.139 371.035C180.102 371.091 180.075 371.152 180.057 371.217H183.762V373.062H177.762V371.33C177.878 371.089 178.017 370.859 178.177 370.644L178.605 370.015L179.095 369.31C179.384 368.913 179.831 368.284 180.447 367.421C180.956 366.732 181.39 365.991 181.743 365.211C181.963 364.74 182.083 364.227 182.095 363.707C182.105 363.356 181.992 363.013 181.775 362.737C181.666 362.603 181.529 362.496 181.373 362.422C181.218 362.349 181.047 362.313 180.875 362.316C180.613 362.319 180.36 362.411 180.157 362.577C179.954 362.743 179.812 362.972 179.756 363.228C179.68 363.46 179.644 363.703 179.649 363.946V364.425H177.793V364.085Z" fill="#7E96FB"/>
<path d="M189.642 365.132C189.638 365.441 189.543 365.742 189.369 365.997C189.195 366.252 188.95 366.45 188.665 366.567C188.379 366.684 188.066 366.714 187.763 366.654C187.46 366.593 187.182 366.445 186.963 366.228C186.817 366.086 186.701 365.915 186.622 365.727C186.543 365.539 186.503 365.337 186.504 365.132V361.55C186.504 361.133 186.67 360.733 186.964 360.438C187.259 360.142 187.659 359.977 188.076 359.977C188.493 359.977 188.893 360.142 189.188 360.438C189.483 360.733 189.649 361.133 189.649 361.55L189.642 365.132ZM188.215 373.316H187.101L193.492 360.096H194.592L188.215 373.316ZM187.473 365.132C187.464 365.212 187.473 365.293 187.497 365.369C187.522 365.446 187.563 365.516 187.616 365.576C187.67 365.635 187.736 365.683 187.809 365.716C187.882 365.748 187.962 365.765 188.042 365.765C188.122 365.765 188.201 365.748 188.275 365.716C188.348 365.683 188.413 365.635 188.467 365.576C188.521 365.516 188.561 365.446 188.586 365.369C188.611 365.293 188.619 365.212 188.611 365.132V361.557C188.612 361.482 188.598 361.408 188.57 361.339C188.542 361.269 188.5 361.206 188.447 361.154C188.338 361.049 188.193 360.99 188.042 360.99C187.89 360.99 187.745 361.049 187.636 361.154C187.583 361.206 187.541 361.269 187.513 361.339C187.485 361.408 187.471 361.482 187.473 361.557V365.132ZM193.63 366.442C193.837 366.439 194.042 366.479 194.232 366.559C194.423 366.639 194.595 366.758 194.737 366.908C194.882 367.052 194.997 367.223 195.075 367.413C195.153 367.602 195.192 367.805 195.19 368.009V371.591C195.194 371.796 195.155 371.999 195.076 372.188C194.997 372.376 194.879 372.546 194.731 372.687C194.437 372.979 194.041 373.142 193.627 373.142C193.213 373.142 192.817 372.979 192.523 372.687C192.376 372.547 192.259 372.378 192.18 372.19C192.101 372.003 192.061 371.801 192.064 371.598V368.016C192.061 367.809 192.1 367.605 192.179 367.414C192.258 367.224 192.375 367.051 192.523 366.908C192.667 366.76 192.839 366.642 193.029 366.562C193.219 366.482 193.424 366.441 193.63 366.442ZM194.171 367.991C194.172 367.916 194.158 367.842 194.13 367.772C194.102 367.703 194.06 367.64 194.007 367.588C193.898 367.483 193.753 367.424 193.602 367.424C193.45 367.424 193.305 367.483 193.196 367.588C193.143 367.64 193.101 367.703 193.073 367.772C193.045 367.842 193.031 367.916 193.033 367.991V371.566C193.024 371.646 193.033 371.727 193.057 371.803C193.082 371.88 193.123 371.95 193.176 372.01C193.23 372.069 193.296 372.117 193.369 372.15C193.442 372.182 193.522 372.199 193.602 372.199C193.682 372.199 193.761 372.182 193.835 372.15C193.908 372.117 193.973 372.069 194.027 372.01C194.081 371.95 194.121 371.88 194.146 371.803C194.171 371.727 194.179 371.646 194.171 371.566V367.991Z" fill="#7E96FB"/>
</svg>
