<svg width="805" height="414" viewBox="0 0 805 414" fill="none" xmlns="http://www.w3.org/2000/svg">
<path d="M545.54 325.316H503.62L482.424 288.591L503.384 252.289L504.827 253.121L484.352 288.591L504.584 323.645H545.54V325.316Z" fill="#C6D0FF"/>
<path d="M608.032 361.209H565.627L544.424 324.484L565.627 287.766H608.032L629.235 324.484L608.032 361.209ZM566.591 359.538H607.068L627.307 324.484L607.068 289.437H566.591L546.352 324.484L566.591 359.538Z" fill="#C6D0FF"/>
<path d="M608.276 359.945L606.828 360.781L627.549 396.671L628.996 395.835L608.276 359.945Z" fill="#C6D0FF"/>
<path d="M670.344 396.674L668.895 395.834L689.376 360.372L668.895 324.902L670.344 324.062L691.304 360.372L670.344 396.674Z" fill="#C6D0FF"/>
<path d="M689.604 288.15L668.883 324.039L670.33 324.875L691.051 288.985L689.604 288.15Z" fill="#C6D0FF"/>
<path d="M761.155 359.531H690.34V361.203H761.155V359.531Z" fill="#C6D0FF"/>
<path d="M482.181 287.664H356.553V289.336H482.181V287.664Z" fill="#C6D0FF"/>
<path d="M526.669 276.3L525.393 275.218L555.903 239.464L570.094 257.643L596.048 224.913L608.297 239.513L631.858 214.891L633.064 216.049L608.213 242.017L596.083 227.555L570.08 260.348L555.848 242.1L526.669 276.3Z" fill="#1F47F3"/>
<path d="M627.162 213.674L637.767 210.172L634.264 220.777L627.162 213.674Z" fill="#1F47F3"/>
<path d="M656.796 341.875H649.84V374.931H656.796V341.875Z" fill="#1F47F3" fill-opacity="0.7"/>
<path d="M669.88 377.891H627.377V378.723H669.88V377.891Z" fill="#1F47F3"/>
<path d="M656.796 336.531H649.84V340.755H656.796V336.531Z" fill="#1F47F3" fill-opacity="0.7"/>
<path d="M638.045 367.648H631.088V374.931H638.045V367.648Z" fill="#C6D0FF"/>
<path d="M647.421 353.703H640.465V374.934H647.421V353.703Z" fill="#C6D0FF"/>
<path d="M666.175 349H659.219V374.933H666.175V349Z" fill="#C6D0FF"/>
<path d="M666.175 344.008H659.219V348.232H666.175V344.008Z" fill="#C6D0FF"/>
<path opacity="0.5" d="M666.175 339.086H659.219V343.31H666.175V339.086Z" fill="#C6D0FF"/>
<path opacity="0.5" d="M647.421 343.742H640.465V347.966H647.421V343.742Z" fill="#C6D0FF"/>
<path d="M647.421 348.68H640.465V352.904H647.421V348.68Z" fill="#C6D0FF"/>
<path d="M638.045 362.508H631.088V366.732H638.045V362.508Z" fill="#C6D0FF"/>
<path opacity="0.5" d="M638.045 357.016H631.088V361.24H638.045V357.016Z" fill="#C6D0FF"/>
<path d="M656.796 331.5H649.84V335.724H656.796V331.5Z" fill="#1F47F3" fill-opacity="0.7"/>
<path d="M727.051 342.633L726.968 320.272C727.514 319.995 727.956 319.55 728.23 319.003L739.695 318.961L740.042 318.267C740.08 318.193 740.138 318.131 740.208 318.087C740.279 318.043 740.361 318.019 740.444 318.018C740.526 318.018 740.607 318.041 740.676 318.083C740.746 318.126 740.803 318.187 740.84 318.26L741.193 318.954H741.818C742.154 318.954 742.477 318.82 742.715 318.582C742.953 318.344 743.087 318.021 743.087 317.685C743.087 317.348 742.953 317.025 742.715 316.787C742.477 316.549 742.154 316.416 741.818 316.416L728.223 316.464C727.946 315.921 727.501 315.48 726.954 315.209V313.988C726.954 313.651 726.82 313.329 726.582 313.091C726.344 312.852 726.022 312.719 725.685 312.719C725.348 312.719 725.025 312.852 724.787 313.091C724.549 313.329 724.416 313.651 724.416 313.988V315.188C723.87 315.465 723.428 315.91 723.153 316.457L709.566 316.513C709.247 316.536 708.948 316.68 708.73 316.915C708.512 317.15 708.391 317.458 708.391 317.778C708.391 318.099 708.512 318.407 708.73 318.642C708.948 318.877 709.247 319.021 709.566 319.044H710.19L710.537 318.351C710.574 318.276 710.63 318.213 710.701 318.169C710.771 318.125 710.853 318.102 710.936 318.102C711.019 318.102 711.1 318.125 711.171 318.169C711.241 318.213 711.298 318.276 711.335 318.351L711.688 319.044L723.16 319.003C723.436 319.548 723.882 319.988 724.43 320.258L724.513 342.619L727.051 342.633Z" fill="#A7B8FE"/>
<path d="M740.84 318.251C740.803 318.178 740.747 318.116 740.677 318.073C740.607 318.031 740.527 318.008 740.445 318.008C740.362 318.009 740.28 318.033 740.209 318.077C740.138 318.121 740.081 318.183 740.043 318.258L739.696 318.951L733.267 331.741C733.236 331.803 733.222 331.872 733.225 331.942H734.168L740.452 319.457L746.819 331.9H747.769C747.768 331.831 747.754 331.763 747.728 331.699L741.194 318.958L740.84 318.251Z" fill="#A7B8FE"/>
<path d="M734.167 331.93H732.662C732.73 333.967 733.59 335.898 735.058 337.312C736.526 338.726 738.488 339.513 740.526 339.505C742.565 339.497 744.52 338.695 745.977 337.269C747.434 335.843 748.278 333.905 748.33 331.867H746.818L734.167 331.93Z" fill="#A7B8FE"/>
<path d="M711.341 318.358C711.305 318.284 711.248 318.221 711.178 318.177C711.107 318.133 711.026 318.109 710.943 318.109C710.859 318.109 710.778 318.133 710.707 318.177C710.637 318.221 710.58 318.284 710.544 318.358L710.197 319.052L703.767 331.842C703.734 331.903 703.718 331.973 703.719 332.043H704.683L710.925 319.558L717.299 332.001H718.249C718.249 331.931 718.232 331.862 718.201 331.8L711.695 319.052L711.341 318.358Z" fill="#A7B8FE"/>
<path d="M704.684 332.047H703.172C703.18 334.125 704.014 336.116 705.489 337.58C706.965 339.044 708.962 339.861 711.041 339.853C713.119 339.845 715.109 339.011 716.573 337.535C718.037 336.06 718.855 334.063 718.847 331.984H717.335L704.684 332.047Z" fill="#A7B8FE"/>
<path d="M727.051 342.614L724.52 342.621L717.792 342.648L717.799 344.459L713.721 344.472L713.728 346.283L737.795 346.193V344.382L733.71 344.396L733.703 342.586L727.051 342.614Z" fill="#A7B8FE"/>
<path d="M435.574 240.805C435.017 240.798 434.471 240.957 434.004 241.261C433.538 241.566 433.172 242.002 432.954 242.515C432.736 243.027 432.676 243.593 432.78 244.14C432.885 244.688 433.149 245.191 433.541 245.588C433.932 245.984 434.433 246.255 434.979 246.366C435.524 246.477 436.091 246.424 436.606 246.212C437.122 246.001 437.562 245.641 437.873 245.178C438.183 244.715 438.348 244.171 438.348 243.614C438.349 242.875 438.057 242.166 437.538 241.64C437.019 241.114 436.313 240.814 435.574 240.805Z" fill="#1F47F3"/>
<path d="M476.536 206.047H433.908L412.602 242.959L433.908 279.879H476.536L497.85 242.959L476.536 206.047ZM478.11 245.685H476.598L475.031 243.715H473.769L472.437 245.269H471.05L469.364 243.188L467.936 245.269H467.242L466.548 244.201H465.654L465.106 245.727H463.455L462.713 244.839H460.861L460.341 246.594L454.855 246.663L454.653 248.113H451.99C450.95 250.577 449.089 252.605 446.724 253.854C444.359 255.102 441.635 255.494 439.013 254.964C436.392 254.433 434.035 253.012 432.342 250.942C430.648 248.871 429.723 246.279 429.723 243.604C429.723 240.93 430.648 238.338 432.342 236.267C434.035 234.197 436.392 232.776 439.013 232.245C441.635 231.714 444.359 232.107 446.724 233.355C449.089 234.604 450.95 236.632 451.99 239.096H478.11L480.739 241.718V242.703L478.11 245.685Z" fill="#1F47F3" fill-opacity="0.2"/>
<path d="M487.834 150.658L503.682 74.0938L519.531 150.658H487.834Z" fill="#C6D0FF"/>
<path d="M522.889 150.662L538.737 39.6406L554.585 150.662H522.889Z" fill="#A7B8FE" fill-opacity="0.2"/>
<path d="M590.734 151.444H556.846L573.79 100.812L590.734 151.444ZM559.031 149.87H588.549L573.79 105.751L559.031 149.87Z" fill="#C6D0FF"/>
<path d="M606.485 156.891H480.135V39.6406H481.39V155.635H606.485V156.891Z" fill="#1F47F3"/>
<path d="M613.337 155.633H608.621V156.888H613.337V155.633Z" fill="#1F47F3"/>
<path d="M620.22 155.633H615.504V156.888H620.22V155.633Z" fill="#1F47F3"/>
<path d="M481.39 25.8516H480.135V30.5679H481.39V25.8516Z" fill="#1F47F3"/>
<path d="M481.39 32.7266H480.135V37.4429H481.39V32.7266Z" fill="#1F47F3"/>
<path d="M496.609 177.845L495.672 178.775L493.175 177.609L494.334 180.113L493.404 181.036L491.636 177.006L487.641 175.272L488.605 174.315L491.06 175.487L489.922 173.073L490.88 172.109L492.614 176.104L496.609 177.845Z" fill="#C6D0FF"/>
<path d="M500.409 174.037L499.473 174.967L496.976 173.801L498.134 176.305L497.205 177.241L495.436 173.212L491.441 171.478L492.405 170.521L494.826 171.651L493.689 169.238L494.646 168.273L496.38 172.268L500.409 174.037Z" fill="#C6D0FF"/>
<path d="M502.221 169.6C502.408 169.778 502.556 169.994 502.656 170.232C502.755 170.471 502.803 170.728 502.796 170.987C502.799 171.374 502.686 171.752 502.472 172.075C502.259 172.397 501.954 172.649 501.597 172.797C501.24 172.946 500.847 172.985 500.468 172.91C500.089 172.834 499.74 172.648 499.467 172.374L496.325 169.225C496.139 169.047 495.992 168.831 495.894 168.592C495.796 168.353 495.749 168.096 495.757 167.838C495.752 167.451 495.864 167.072 496.076 166.749C496.289 166.426 496.593 166.174 496.95 166.025C497.307 165.876 497.7 165.837 498.08 165.913C498.459 165.989 498.807 166.176 499.079 166.451L502.221 169.6ZM498.163 167.339C498.099 167.271 498.021 167.216 497.934 167.179C497.848 167.142 497.755 167.123 497.661 167.123C497.566 167.123 497.473 167.142 497.387 167.179C497.3 167.216 497.222 167.271 497.158 167.339C497.091 167.403 497.038 167.481 497.003 167.567C496.968 167.653 496.953 167.745 496.957 167.838C496.956 167.931 496.974 168.023 497.01 168.109C497.046 168.195 497.098 168.272 497.165 168.338L500.313 171.486C500.448 171.616 500.626 171.69 500.813 171.694C500.906 171.695 500.998 171.677 501.084 171.641C501.169 171.605 501.247 171.553 501.312 171.486C501.379 171.422 501.433 171.344 501.469 171.258C501.506 171.173 501.524 171.08 501.524 170.987C501.524 170.894 501.506 170.801 501.469 170.716C501.433 170.63 501.379 170.552 501.312 170.488L498.163 167.339Z" fill="#C6D0FF"/>
<path d="M504.982 169.467L500.55 165.035L499.808 165.778L499.197 165.174C499.386 164.932 499.51 164.645 499.558 164.342C499.614 164.042 499.588 163.733 499.482 163.447L500.085 162.844L505.849 168.607L504.982 169.467Z" fill="#C6D0FF"/>
<path d="M531.661 177.84L530.725 178.769L528.228 177.604L529.386 180.108L528.457 181.031L526.688 177.001L522.693 175.267L523.657 174.31L526.078 175.44L524.941 173.027L525.898 172.062L527.632 176.058L531.661 177.84Z" fill="#C6D0FF"/>
<path d="M535.45 174.037L534.514 174.967L532.017 173.801L533.175 176.305L532.246 177.241L530.477 173.212L526.482 171.478L527.447 170.521L529.867 171.651L528.744 169.238L529.701 168.273L531.435 172.268L535.45 174.037Z" fill="#C6D0FF"/>
<path d="M537.28 169.597C537.466 169.777 537.612 169.993 537.71 170.231C537.808 170.47 537.855 170.726 537.849 170.984C537.846 171.499 537.639 171.992 537.274 172.356C536.909 172.72 536.415 172.925 535.9 172.926C535.642 172.934 535.385 172.887 535.146 172.789C534.907 172.691 534.692 172.544 534.513 172.358L531.364 169.209C531.179 169.029 531.033 168.813 530.935 168.575C530.837 168.336 530.79 168.08 530.795 167.822C530.791 167.564 530.839 167.308 530.937 167.069C531.034 166.831 531.18 166.615 531.364 166.434C531.545 166.25 531.761 166.103 531.999 166.003C532.237 165.903 532.493 165.852 532.751 165.852C533.01 165.852 533.265 165.903 533.504 166.003C533.742 166.103 533.958 166.25 534.138 166.434L537.28 169.597ZM533.216 167.336C533.151 167.268 533.073 167.214 532.987 167.176C532.9 167.139 532.807 167.12 532.713 167.12C532.619 167.12 532.526 167.139 532.44 167.176C532.353 167.214 532.275 167.268 532.21 167.336C532.143 167.401 532.09 167.478 532.053 167.564C532.017 167.65 531.998 167.742 531.998 167.835C531.998 167.929 532.017 168.021 532.053 168.107C532.09 168.193 532.143 168.27 532.21 168.335L535.359 171.484C535.494 171.613 535.672 171.688 535.859 171.692C536.001 171.699 536.143 171.661 536.264 171.585C536.384 171.508 536.479 171.396 536.533 171.264C536.588 171.132 536.6 170.986 536.569 170.847C536.538 170.707 536.464 170.581 536.358 170.485L533.216 167.336Z" fill="#C6D0FF"/>
<path d="M535.159 166.069C534.915 165.857 534.717 165.598 534.578 165.307C534.438 165.016 534.36 164.699 534.348 164.376C534.351 164.115 534.409 163.857 534.516 163.618C534.623 163.379 534.779 163.165 534.972 162.989C535.151 162.805 535.368 162.661 535.607 162.568C535.846 162.475 536.103 162.434 536.359 162.448C536.881 162.454 537.379 162.666 537.746 163.038C538.14 163.427 538.439 163.902 538.62 164.425C538.79 164.983 538.918 165.553 539.002 166.131C539.036 166.367 539.106 166.714 539.203 167.185L539.286 167.581C539.335 167.83 539.383 168.031 539.418 168.17C539.452 168.309 539.418 168.281 539.466 168.288L541.166 166.582L542.019 167.435L539.244 170.209L538.447 169.412C538.385 169.248 538.341 169.078 538.315 168.905C538.315 168.76 538.259 168.593 538.225 168.413L538.121 167.865C538.072 167.553 537.989 167.053 537.878 166.374C537.79 165.823 537.651 165.282 537.462 164.758C537.342 164.441 537.16 164.151 536.928 163.905C536.769 163.74 536.558 163.635 536.331 163.606C536.22 163.592 536.107 163.605 536.002 163.643C535.897 163.682 535.803 163.745 535.728 163.828C535.609 163.949 535.534 164.107 535.517 164.276C535.499 164.445 535.539 164.615 535.631 164.758C535.7 164.9 535.794 165.03 535.908 165.139L536.13 165.361L535.277 166.214L535.159 166.069Z" fill="#C6D0FF"/>
<path d="M566.715 177.845L565.779 178.775L563.282 177.609L564.44 180.113L563.511 181.036L561.742 177.006L557.754 175.272L558.711 174.315L561.111 175.487L559.973 173.073L560.931 172.109L562.664 176.104L566.715 177.845Z" fill="#C6D0FF"/>
<path d="M570.518 174.037L569.581 174.967L567.084 173.801L568.243 176.305L567.313 177.241L565.545 173.212L561.557 171.478L562.514 170.521L564.934 171.651L563.797 169.238L564.754 168.273L566.488 172.268L570.518 174.037Z" fill="#C6D0FF"/>
<path d="M572.333 169.597C572.518 169.777 572.665 169.993 572.762 170.231C572.86 170.47 572.908 170.726 572.902 170.984C572.898 171.499 572.691 171.992 572.327 172.356C571.962 172.72 571.468 172.925 570.953 172.926C570.695 172.934 570.438 172.887 570.199 172.789C569.96 172.691 569.744 172.544 569.566 172.358L566.417 169.209C566.232 169.029 566.085 168.813 565.988 168.575C565.89 168.336 565.842 168.08 565.848 167.822C565.844 167.564 565.892 167.308 565.989 167.069C566.087 166.831 566.233 166.615 566.417 166.434C566.598 166.25 566.814 166.103 567.052 166.003C567.29 165.903 567.546 165.852 567.804 165.852C568.062 165.852 568.318 165.903 568.556 166.003C568.795 166.103 569.01 166.25 569.191 166.434L572.333 169.597ZM568.269 167.336C568.203 167.271 568.125 167.219 568.04 167.183C567.954 167.148 567.862 167.129 567.769 167.129C567.677 167.129 567.585 167.148 567.499 167.183C567.413 167.219 567.336 167.271 567.27 167.336C567.204 167.402 567.152 167.48 567.117 167.565C567.081 167.651 567.063 167.743 567.063 167.835C567.063 167.928 567.081 168.02 567.117 168.106C567.152 168.191 567.204 168.269 567.27 168.335L570.419 171.484C570.553 171.613 570.732 171.688 570.918 171.692C571.061 171.699 571.203 171.661 571.323 171.585C571.444 171.508 571.538 171.396 571.593 171.264C571.648 171.132 571.66 170.986 571.629 170.847C571.597 170.707 571.524 170.581 571.418 170.485L568.269 167.336Z" fill="#C6D0FF"/>
<path d="M574.768 168.13C574.865 168.07 574.945 167.987 575.003 167.888C575.06 167.79 575.092 167.679 575.096 167.565C575.1 167.451 575.076 167.338 575.026 167.236C574.976 167.134 574.902 167.045 574.81 166.978L574.47 166.639C574.361 166.5 574.221 166.389 574.061 166.314C573.902 166.239 573.727 166.202 573.551 166.206C573.375 166.21 573.202 166.255 573.046 166.337C572.89 166.42 572.755 166.537 572.653 166.68L571.911 165.938C572.058 165.813 572.176 165.656 572.255 165.48C572.334 165.304 572.373 165.112 572.368 164.918C572.327 164.559 572.154 164.228 571.883 163.989L571.751 163.857C571.376 163.476 571.023 163.455 570.69 163.788C570.603 163.861 570.539 163.957 570.505 164.065C570.471 164.173 570.467 164.289 570.496 164.398C570.55 164.597 570.661 164.775 570.815 164.912L570.967 165.064L570.128 165.917L569.996 165.779C569.618 165.437 569.373 164.972 569.303 164.468C569.274 164.2 569.309 163.93 569.406 163.679C569.502 163.428 569.657 163.204 569.858 163.025C570.034 162.836 570.249 162.688 570.489 162.591C570.729 162.494 570.987 162.45 571.245 162.463C571.723 162.497 572.172 162.71 572.5 163.06L572.743 163.302C573.088 163.633 573.304 164.076 573.353 164.551C573.367 164.753 573.353 164.956 573.312 165.154C573.726 165.045 574.165 165.067 574.567 165.217C574.816 165.309 575.039 165.459 575.219 165.654L575.677 166.104C575.878 166.295 576.037 166.527 576.143 166.784C576.248 167.041 576.297 167.318 576.287 167.596C576.275 168.121 576.056 168.619 575.677 168.983C575.497 169.168 575.281 169.314 575.042 169.412C574.804 169.51 574.547 169.557 574.29 169.552C574.032 169.556 573.776 169.508 573.537 169.41C573.299 169.312 573.083 169.167 572.902 168.983L572.757 168.837L573.52 167.949L573.742 168.13C573.881 168.255 574.061 168.327 574.248 168.331C574.344 168.335 574.44 168.32 574.529 168.285C574.619 168.25 574.7 168.197 574.768 168.13Z" fill="#C6D0FF"/>
<path d="M485.436 288.498C485.433 289.036 485.271 289.562 484.969 290.007C484.668 290.453 484.241 290.799 483.743 291.002C483.245 291.205 482.697 291.256 482.17 291.148C481.643 291.04 481.16 290.778 480.782 290.395C480.404 290.012 480.148 289.525 480.047 288.997C479.945 288.469 480.003 287.922 480.212 287.426C480.422 286.931 480.773 286.508 481.223 286.213C481.673 285.917 482.2 285.762 482.738 285.766C483.094 285.768 483.447 285.84 483.776 285.978C484.105 286.116 484.403 286.318 484.654 286.572C484.904 286.826 485.102 287.127 485.237 287.457C485.371 287.788 485.438 288.142 485.436 288.498Z" fill="#A7B8FE"/>
<path d="M569.395 288.498C569.392 289.035 569.231 289.559 568.931 290.004C568.631 290.449 568.206 290.795 567.71 290.999C567.214 291.203 566.668 291.256 566.142 291.15C565.616 291.045 565.133 290.786 564.753 290.407C564.374 290.028 564.115 289.544 564.01 289.018C563.905 288.492 563.957 287.947 564.161 287.45C564.365 286.954 564.712 286.529 565.157 286.23C565.602 285.93 566.125 285.768 566.662 285.766C567.022 285.763 567.378 285.832 567.711 285.968C568.044 286.104 568.346 286.306 568.6 286.56C568.855 286.814 569.056 287.117 569.192 287.449C569.329 287.782 569.397 288.139 569.395 288.498Z" fill="#A7B8FE"/>
<path d="M693.051 288.493C693.051 289.03 692.892 289.554 692.594 290C692.296 290.446 691.872 290.793 691.377 290.999C690.881 291.204 690.336 291.258 689.81 291.153C689.284 291.048 688.801 290.79 688.421 290.411C688.042 290.031 687.784 289.548 687.679 289.022C687.574 288.496 687.628 287.951 687.833 287.455C688.039 286.96 688.386 286.536 688.832 286.238C689.278 285.94 689.803 285.781 690.339 285.781C691.058 285.781 691.748 286.067 692.256 286.576C692.765 287.084 693.051 287.774 693.051 288.493Z" fill="#A7B8FE"/>
<path d="M630.985 397.235C630.986 397.774 630.827 398.3 630.529 398.748C630.231 399.197 629.806 399.546 629.309 399.753C628.812 399.959 628.265 400.014 627.737 399.909C627.209 399.805 626.724 399.545 626.343 399.165C625.963 398.784 625.703 398.299 625.599 397.771C625.494 397.243 625.549 396.696 625.755 396.199C625.962 395.702 626.311 395.277 626.76 394.979C627.208 394.681 627.734 394.522 628.273 394.523C628.991 394.525 629.68 394.812 630.188 395.32C630.696 395.828 630.983 396.517 630.985 397.235Z" fill="#A7B8FE"/>
<path d="M568.822 360.375C568.822 360.913 568.663 361.439 568.364 361.886C568.065 362.334 567.64 362.682 567.142 362.888C566.645 363.093 566.098 363.147 565.571 363.041C565.043 362.936 564.559 362.676 564.179 362.295C563.799 361.914 563.54 361.429 563.436 360.901C563.332 360.373 563.387 359.826 563.594 359.33C563.801 358.833 564.15 358.409 564.598 358.111C565.046 357.813 565.573 357.655 566.111 357.656C566.467 357.656 566.82 357.727 567.15 357.863C567.479 358 567.779 358.2 568.031 358.453C568.283 358.706 568.482 359.005 568.618 359.335C568.754 359.665 568.823 360.018 568.822 360.375Z" fill="#A7B8FE"/>
<path d="M761.146 360.375C761.145 360.911 760.985 361.435 760.686 361.88C760.387 362.325 759.963 362.671 759.468 362.876C758.972 363.08 758.427 363.133 757.901 363.027C757.376 362.922 756.893 362.663 756.515 362.283C756.136 361.904 755.878 361.421 755.774 360.895C755.67 360.369 755.724 359.824 755.93 359.329C756.135 358.834 756.483 358.41 756.929 358.113C757.374 357.815 757.898 357.656 758.435 357.656C758.791 357.656 759.145 357.727 759.474 357.863C759.803 358 760.103 358.2 760.355 358.453C760.607 358.706 760.806 359.005 760.942 359.335C761.078 359.665 761.147 360.018 761.146 360.375Z" fill="#A7B8FE"/>
<path d="M693.051 360.375C693.049 360.911 692.889 361.435 692.59 361.88C692.292 362.325 691.868 362.671 691.372 362.876C690.876 363.08 690.331 363.133 689.806 363.027C689.28 362.922 688.797 362.663 688.419 362.283C688.04 361.904 687.783 361.421 687.679 360.895C687.574 360.369 687.629 359.824 687.834 359.329C688.04 358.834 688.387 358.41 688.833 358.113C689.279 357.815 689.803 357.656 690.339 357.656C690.696 357.656 691.049 357.727 691.378 357.863C691.708 358 692.007 358.2 692.259 358.453C692.511 358.706 692.71 359.005 692.846 359.335C692.982 359.665 693.052 360.018 693.051 360.375Z" fill="#A7B8FE"/>
<path d="M194.817 175.243L191.592 173.398L192.154 172.42L195.386 174.279L194.817 175.243ZM189.761 172.323L186.536 170.465L187.104 169.48L190.329 171.345L189.761 172.323ZM184.711 169.41L181.479 167.545L182.048 166.56L185.28 168.425L184.711 169.41ZM179.641 166.463L176.416 164.597L176.978 163.619L180.21 165.478L179.641 166.463ZM174.592 163.543L171.36 161.684L171.929 160.699L175.154 162.565L174.592 163.543ZM169.536 160.63L166.304 158.764L166.873 157.779L170.105 159.645L169.536 160.63ZM164.48 157.71L161.255 155.844L161.823 154.866L165.076 156.752L164.48 157.71ZM159.43 154.79L156.198 152.931L156.767 151.946L159.992 153.812L159.43 154.79ZM154.374 151.877L151.149 150.011L151.711 149.026L154.943 150.892L154.374 151.877ZM149.318 148.957L146.093 147.091L146.662 146.113L149.887 147.972L149.318 148.957ZM144.269 146.064L141.037 144.206L141.605 143.221L144.837 145.086L144.269 146.064ZM139.212 143.151L135.987 141.286L136.549 140.301L139.781 142.166L139.212 143.151ZM134.156 140.231L130.931 138.366L131.5 137.388L134.725 139.246L134.156 140.231ZM129.121 137.332L125.889 135.473L126.457 134.488L129.69 136.354L129.121 137.332ZM124.065 134.419L120.839 132.553L121.408 131.568L124.633 133.434L124.065 134.419ZM119.015 131.499L115.783 129.633L116.352 128.648L119.577 130.514L119.015 131.499Z" fill="#A7B8FE"/>
<path d="M195.496 266.702L194.928 265.717L197.966 263.955L198.534 264.933L195.496 266.702ZM200.352 263.879L199.783 262.894L203.008 261.028L203.577 262.006L200.352 263.879ZM205.401 260.952L204.832 259.967L208.057 258.094L208.626 259.079L205.401 260.952ZM210.45 258.018L209.881 257.04L213.107 255.167L213.675 256.152L210.45 258.018ZM215.492 255.091L214.924 254.113L218.149 252.24L218.718 253.218L215.492 255.091ZM220.542 252.164L219.973 251.179L223.198 249.313L223.767 250.291L220.542 252.164ZM225.591 249.237L225.022 248.252L228.247 246.38L228.816 247.364L225.591 249.237ZM230.64 246.31L230.072 245.325L233.29 243.453L233.865 244.438L230.64 246.31ZM235.683 243.376L235.114 242.398L238.339 240.526L238.908 241.511L235.683 243.376ZM240.732 240.449L240.163 239.472L243.388 237.599L243.957 238.577L240.732 240.449ZM245.781 237.523L245.212 236.538L248.438 234.672L249.006 235.65L245.781 237.523ZM250.831 234.596L250.255 233.611L253.48 231.738L254.049 232.723L250.831 234.596ZM255.873 231.662L255.304 230.684L258.529 228.811L259.098 229.796L255.873 231.662ZM260.922 228.735L260.353 227.757L263.579 225.884L264.147 226.862L260.922 228.735ZM265.971 225.808L265.403 224.823L268.628 222.957L269.197 223.935L265.971 225.808ZM271.014 222.881L270.445 221.896L273.67 220.023L274.239 221.008L271.014 222.881Z" fill="#1F47F3"/>
<path d="M9.01899 175.345L8.58203 174.298L12.0499 172.862L12.4869 173.91L9.01899 175.345ZM14.4081 173.105L13.9712 172.058L17.4391 170.622L17.876 171.669L14.4081 173.105ZM19.7973 170.865L19.3603 169.817L22.8282 168.382L23.2652 169.436L19.7973 170.865ZM25.1864 168.624L24.7494 167.577L28.2174 166.148L28.6543 167.196L25.1864 168.624ZM30.5755 166.384L30.1386 165.337L33.6065 163.908L34.0435 164.955L30.5755 166.384ZM35.9577 164.144L35.5277 163.097L38.9956 161.668L39.4326 162.715L35.9577 164.144ZM41.3469 161.904L40.9238 160.856L44.3917 159.428L44.8287 160.475L41.3469 161.904ZM46.736 159.663L46.2991 158.616L49.767 157.187L50.2039 158.235L46.736 159.663ZM52.1113 157.451L51.6743 156.404L55.1423 154.975L55.5723 156.022L52.1113 157.451ZM57.5004 155.211L57.0635 154.163L60.5314 152.734L60.9683 153.782L57.5004 155.211ZM62.8896 152.97L62.4249 151.902L65.8928 150.473L66.3297 151.521L62.8896 152.97ZM68.2787 150.73L67.8418 149.683L71.3097 148.254L71.7466 149.301L68.2787 150.73ZM73.6678 148.49L73.2309 147.442L76.6988 146.014L77.1358 147.061L73.6678 148.49ZM79.057 146.25L78.62 145.202L82.0879 143.773L82.5249 144.821L79.057 146.25ZM84.4392 144.009L84.0092 142.962L87.4771 141.533L87.914 142.58L84.4392 144.009ZM89.8283 141.769L89.3983 140.722L92.8662 139.293L93.3032 140.34L89.8283 141.769ZM95.2175 139.529L94.7805 138.481L98.2484 137.053L98.6854 138.1L95.2175 139.529ZM100.607 137.288L100.17 136.241L103.638 134.812L104.068 135.86L100.607 137.288ZM105.996 135.048L105.559 134.001L109.027 132.572L109.457 133.619L105.996 135.048ZM111.385 132.808L110.948 131.761L114.416 130.332L114.853 131.379L111.385 132.808ZM116.774 130.575L116.337 129.52L118.418 128.646L119.583 127.953L120.166 128.931L118.889 129.687L116.774 130.575ZM269.806 128.882L266.609 126.968L267.191 125.99L270.389 127.904L269.806 128.882ZM122.004 127.807L121.421 126.836L124.618 124.922L125.201 125.893L122.004 127.807ZM264.805 125.886L261.608 123.965L262.191 122.994L265.388 124.908L264.805 125.886ZM127.011 124.811L126.429 123.84L129.626 121.926L130.209 122.897L127.011 124.811ZM259.798 122.883L256.628 120.968L257.211 119.997L260.408 121.912L259.798 122.883ZM132.019 121.815L131.436 120.844L134.634 118.929L135.216 119.9L132.019 121.815ZM254.783 119.886L251.586 117.972L252.168 117.001L255.366 118.915L254.783 119.886ZM137.027 118.818L136.444 117.84L139.641 115.926L140.224 116.904L137.027 118.818ZM249.789 116.89L246.585 114.976L247.168 113.998L250.372 115.919L249.789 116.89ZM142.034 115.836L141.452 114.858L144.649 112.944L145.232 113.922L142.034 115.836ZM244.782 113.908L241.584 111.993L242.167 111.015L245.364 112.93L244.782 113.908ZM147.042 112.819L146.459 111.848L149.664 109.934L150.246 110.905L147.042 112.819ZM239.781 110.898L236.584 108.976L237.166 108.005L240.364 109.92L239.781 110.898ZM152.05 109.823L151.467 108.852L154.664 106.937L155.247 107.908L152.05 109.823ZM234.773 107.894L231.576 105.98L232.158 105.009L235.356 106.923L234.773 107.894ZM157.092 106.826L156.509 105.855L159.707 103.941L160.289 104.912L157.092 106.826ZM229.8 104.898L226.603 102.984L227.185 102.013L230.383 103.927L229.8 104.898ZM162.1 103.83L161.517 102.852L164.714 100.938L165.297 101.916L162.1 103.83ZM224.723 101.902L221.526 99.9875L222.108 99.0096L225.306 100.931L224.723 101.902ZM167.038 100.834L166.462 99.8835L169.66 97.9692L170.242 98.9402L167.038 100.834ZM219.716 98.9055L216.518 96.9912L217.101 96.0133L220.298 97.9276L219.716 98.9055ZM172.073 97.8027L171.491 96.8317L174.688 94.9174L175.271 95.8885L172.073 97.8027ZM214.743 95.8815L211.545 93.988L212.128 93.017L215.332 94.9313L214.743 95.8815ZM177.081 94.8065L176.492 93.8354L179.696 91.9212L180.278 92.8922L177.081 94.8065ZM209.735 92.8783L206.538 90.964L207.12 89.993L210.318 91.9073L209.735 92.8783ZM182.082 91.8102L181.499 90.8392L184.697 88.9249L185.286 89.8959L182.082 91.8102ZM204.727 89.882L201.53 87.9677L202.112 86.9967L205.31 88.911L204.727 89.882ZM187.089 88.8139L186.507 87.8359L189.704 85.9217L190.287 86.8996L187.089 88.8139ZM199.754 86.9135L196.557 84.9992L197.139 84.0212L200.337 85.9425L199.754 86.9135ZM192.125 85.8454L191.542 84.8674L194.74 82.9531L195.322 83.9241L192.125 85.8454Z" fill="#A7B8FE"/>
<path d="M442.946 175.22L442.093 174.353L442.898 173.556L443.751 174.423L442.946 175.22ZM440.616 172.855L437.994 170.199L438.806 169.401L441.421 172.057L440.616 172.855ZM353.759 172.161H352.621V168.437H353.731L353.759 172.161ZM436.517 168.694L433.895 166.037L434.707 165.24L437.321 167.896L436.517 168.694ZM353.731 166.349H352.621V162.625H353.731V166.349ZM432.39 164.546L429.768 161.889L430.58 161.092L433.195 163.748L432.39 164.546ZM353.731 160.516H352.621V156.757H353.731V160.516ZM428.291 160.391L425.669 157.735L426.481 156.937L429.096 159.594L428.291 160.391ZM424.192 156.23L421.577 153.573L422.382 152.776L424.996 155.432L424.192 156.23ZM353.731 154.676H352.621V150.952H353.731V154.676ZM420.093 152.082L417.54 149.426L418.345 148.635L420.967 151.285L420.093 152.082ZM353.731 148.843H352.621V145.119H353.731V148.843ZM415.994 147.928L413.379 145.278L414.183 144.481L416.805 147.13L415.994 147.928ZM411.895 143.766L409.28 141.117L410.084 140.319L412.706 142.969L411.895 143.766ZM353.731 143.01H352.621V139.279H353.731V143.01ZM407.83 139.619L405.215 136.969L406.02 136.171L408.642 138.821L407.83 139.619ZM353.731 137.17H352.621V133.446H353.731V137.17ZM403.703 135.464L401.082 132.815L401.886 132.017L404.508 134.673L403.703 135.464ZM353.731 131.303H352.621V127.627H353.731V131.303ZM399.604 131.303L396.983 128.653L397.794 127.855L400.409 130.512L399.604 131.303ZM395.505 127.141L392.884 124.485L393.695 123.687L396.31 126.343L395.505 127.141ZM353.731 125.504H352.621V121.773H353.731V125.504ZM391.406 123.007L388.784 120.351L389.596 119.553L392.211 122.21L391.406 123.007ZM353.731 119.664H352.621V115.94H353.731V119.664ZM387.307 118.853L384.685 116.196L385.497 115.399L388.112 118.055L387.307 118.853ZM383.208 114.691L380.593 112.035L381.398 111.237L384.013 113.894L383.208 114.691ZM353.731 113.831H352.621V110.1H353.731V113.831ZM379.109 110.544L376.494 107.887L377.299 107.09L379.921 109.746L379.109 110.544ZM353.731 107.998H352.621V104.267H353.731V107.998ZM375.01 106.389L372.458 103.733L373.262 102.935L375.884 105.591L375.01 106.389ZM370.911 102.228L368.296 99.578L369.101 98.7804L371.722 101.437L370.911 102.228ZM353.731 102.158H352.621V98.4336H353.731V102.158ZM366.812 98.0799L364.197 95.4235L365.002 94.6328L367.623 97.2823L366.812 98.0799ZM353.731 96.3251H352.621V92.5936H353.731V96.3251ZM362.747 93.9253L360.126 91.2758L360.93 90.4782L363.552 93.1277L362.747 93.9253ZM353.731 90.4921H352.621V86.7606H353.731V90.4921ZM358.621 89.7985L355.999 87.149L356.81 86.3514L359.425 89.0009L358.621 89.7985ZM354.522 85.637L353.592 84.6244H352.621V82.0234L355.354 84.7978L354.522 85.637Z" fill="#A7B8FE"/>
<path d="M89.684 83.6227H85.9595V82.4922H89.684V83.6227ZM83.851 83.6227H80.1265V82.4922H83.851V83.6227ZM78.018 83.6227H74.2865V82.4922H78.018V83.6227ZM72.178 83.6227H68.4535V82.4922H72.178V83.6227ZM66.345 83.6227H62.6204V82.4922H66.345V83.6227ZM60.5119 83.6227H56.7805V82.4922H60.5119V83.6227ZM54.672 83.6227H50.9474V82.4922H54.672V83.6227ZM48.8389 83.6227H45.0867V82.4922H48.8181L48.8389 83.6227ZM43.0059 83.6227H39.2744V82.4922H43.0059V83.6227ZM37.1659 83.6227H33.4414V82.4922H37.1659V83.6227Z" fill="#A7B8FE"/>
<path d="M113.709 221.012L113.154 220.02L116.414 218.203L116.962 219.188L113.709 221.012ZM118.807 218.162L118.252 217.17L121.505 215.353L122.06 216.344L118.807 218.162ZM123.898 215.318L123.343 214.326L126.596 212.509L127.151 213.501L123.898 215.318ZM128.996 212.467L128.441 211.482L131.694 209.658L132.249 210.65L128.996 212.467ZM134.087 209.624L133.532 208.632L136.785 206.815L137.34 207.806L134.087 209.624ZM139.178 206.78L138.63 205.788L141.882 203.971L142.437 204.956L139.178 206.78ZM144.268 203.922L143.714 202.931L146.973 201.148L147.528 202.14L144.268 203.922ZM149.359 201.079L148.811 200.087L152.064 198.27L152.619 199.262L149.359 201.079ZM154.457 198.228L153.902 197.243L157.155 195.419L157.71 196.411L154.457 198.228ZM159.548 195.384L159 194.393L162.253 192.575L162.808 193.567L159.548 195.384ZM164.646 192.541L164.091 191.549L167.344 189.732L167.899 190.724L164.646 192.541ZM169.737 189.69L169.182 188.705L172.442 186.881L172.997 187.873L169.737 189.69ZM174.835 186.846L174.28 185.855L177.533 184.037L178.088 185.029L174.835 186.846ZM179.926 184.003L179.371 183.011L182.63 181.194L183.178 182.179L179.926 184.003ZM185.023 181.152L184.468 180.16L187.721 178.343L188.276 179.335L185.023 181.152ZM190.114 178.308L189.559 177.317L192.819 175.486L193.367 176.477L190.114 178.308ZM195.212 175.458L194.657 174.473L194.928 174.32L195.483 175.312L195.212 175.458Z" fill="#A7B8FE"/>
<path d="M168.827 129.936H115.595L88.7461 83.4315L115.366 37.3359L116.767 38.1474L90.6188 83.4315L116.531 128.32H168.827V129.936Z" fill="#C6D0FF"/>
<path d="M194.507 265.8L168.127 311.492L169.532 312.304L195.913 266.611L194.507 265.8Z" fill="#C6D0FF"/>
<path d="M248.243 175.631H194.546L167.697 129.126L194.546 82.6562H248.243L275.092 129.126L248.243 175.631ZM195.482 174.008H247.307L273.219 129.126L247.307 84.2446H195.482L169.57 129.126L195.482 174.008Z" fill="#C6D0FF"/>
<path d="M248.244 267.014H194.546L167.934 220.919L169.335 220.107L195.483 265.391H247.307L273.219 220.51L247.078 175.226L248.479 174.414L275.092 220.51L248.244 267.014Z" fill="#C6D0FF"/>
<path d="M169.299 221.315H115.595L88.7461 174.81L115.595 128.312H168.827V129.929H116.531L90.6188 174.81L116.531 219.692H168.362L194.504 174.408L195.912 175.22L169.299 221.315Z" fill="#C6D0FF"/>
<path d="M327.513 220.913L326.105 220.101L352.253 174.81L326.341 129.929H274.045V128.312H327.277L354.126 174.81L327.513 220.913Z" fill="#C6D0FF"/>
<path d="M352.48 83.0187L326.1 128.711L327.505 129.522L353.886 83.8302L352.48 83.0187Z" fill="#C6D0FF"/>
<path d="M443.348 174H353.189V175.623H443.348V174Z" fill="#C6D0FF"/>
<path d="M89.6905 174H8.79102V175.623H89.6905V174Z" fill="#C6D0FF"/>
<path d="M168.827 223.146C170.283 223.146 171.463 221.966 171.463 220.511C171.463 219.055 170.283 217.875 168.827 217.875C167.371 217.875 166.191 219.055 166.191 220.511C166.191 221.966 167.371 223.146 168.827 223.146Z" fill="#A7B8FE"/>
<path d="M118.703 220.511C118.703 221.032 118.548 221.541 118.259 221.975C117.969 222.408 117.557 222.746 117.076 222.946C116.594 223.145 116.064 223.197 115.553 223.096C115.042 222.994 114.572 222.743 114.204 222.374C113.835 222.006 113.584 221.536 113.482 221.025C113.381 220.514 113.433 219.984 113.632 219.502C113.832 219.02 114.17 218.609 114.603 218.319C115.036 218.03 115.546 217.875 116.067 217.875C116.766 217.875 117.437 218.153 117.931 218.647C118.425 219.141 118.703 219.812 118.703 220.511Z" fill="#A7B8FE"/>
<path d="M171.463 311.893C171.463 312.415 171.308 312.924 171.018 313.358C170.729 313.791 170.317 314.129 169.836 314.328C169.354 314.528 168.824 314.58 168.313 314.478C167.802 314.377 167.332 314.126 166.963 313.757C166.595 313.388 166.344 312.919 166.242 312.408C166.14 311.896 166.193 311.366 166.392 310.885C166.592 310.403 166.929 309.992 167.363 309.702C167.796 309.412 168.306 309.258 168.827 309.258C169.173 309.258 169.516 309.326 169.836 309.458C170.155 309.591 170.446 309.785 170.691 310.03C170.935 310.274 171.13 310.565 171.262 310.885C171.394 311.205 171.463 311.547 171.463 311.893Z" fill="#A7B8FE"/>
<path d="M197.842 174.792C197.842 175.313 197.687 175.823 197.397 176.257C197.107 176.69 196.695 177.028 196.213 177.228C195.731 177.427 195.201 177.479 194.689 177.376C194.178 177.274 193.708 177.022 193.34 176.653C192.971 176.284 192.721 175.814 192.62 175.302C192.519 174.79 192.572 174.26 192.773 173.778C192.973 173.297 193.312 172.886 193.747 172.597C194.181 172.308 194.691 172.155 195.213 172.156C195.911 172.158 196.579 172.437 197.072 172.931C197.565 173.425 197.842 174.094 197.842 174.792Z" fill="#A7B8FE"/>
<path d="M195.212 268.842C196.667 268.842 197.847 267.662 197.847 266.206C197.847 264.75 196.667 263.57 195.212 263.57C193.756 263.57 192.576 264.75 192.576 266.206C192.576 267.662 193.756 268.842 195.212 268.842Z" fill="#A7B8FE"/>
<path d="M250.84 174.792C250.84 175.313 250.685 175.823 250.395 176.256C250.106 176.69 249.694 177.027 249.213 177.227C248.731 177.426 248.201 177.479 247.69 177.377C247.179 177.275 246.709 177.024 246.34 176.656C245.972 176.287 245.721 175.817 245.619 175.306C245.517 174.795 245.57 174.265 245.769 173.783C245.968 173.302 246.306 172.89 246.74 172.6C247.173 172.311 247.683 172.156 248.204 172.156C248.903 172.156 249.573 172.434 250.068 172.928C250.562 173.422 250.84 174.093 250.84 174.792Z" fill="#A7B8FE"/>
<path d="M250.84 83.4256C250.841 83.9471 250.688 84.4574 250.399 84.8917C250.11 85.326 249.699 85.6649 249.217 85.8655C248.736 86.066 248.206 86.1192 247.694 86.0183C247.182 85.9174 246.712 85.6669 246.343 85.2986C245.973 84.9303 245.722 84.4607 245.62 83.9492C245.517 83.4378 245.569 82.9075 245.768 82.4255C245.968 81.9435 246.305 81.5315 246.739 81.2415C247.173 80.9516 247.682 80.7969 248.204 80.7969C248.902 80.7969 249.571 81.0736 250.065 81.5664C250.559 82.0592 250.838 82.7277 250.84 83.4256Z" fill="#A7B8FE"/>
<path d="M197.674 83.4256C197.675 83.9474 197.521 84.458 197.232 84.8924C196.943 85.3269 196.532 85.6658 196.05 85.8662C195.568 86.0665 195.037 86.1193 194.525 86.0178C194.014 85.9163 193.543 85.6652 193.174 85.2962C192.805 84.9271 192.554 84.4569 192.453 83.945C192.351 83.4331 192.404 82.9026 192.604 82.4207C192.805 81.9388 193.144 81.5273 193.578 81.2382C194.013 80.9491 194.523 80.7955 195.045 80.7969C195.741 80.7987 196.409 81.0763 196.902 81.5688C197.394 82.0614 197.672 82.729 197.674 83.4256Z" fill="#A7B8FE"/>
<path d="M355.812 174.792C355.812 175.313 355.658 175.823 355.368 176.256C355.078 176.69 354.667 177.027 354.185 177.227C353.704 177.426 353.174 177.479 352.662 177.377C352.151 177.275 351.682 177.024 351.313 176.656C350.944 176.287 350.693 175.817 350.592 175.306C350.49 174.795 350.542 174.265 350.742 173.783C350.941 173.302 351.279 172.89 351.712 172.6C352.146 172.311 352.655 172.156 353.177 172.156C353.876 172.156 354.546 172.434 355.04 172.928C355.535 173.422 355.812 174.093 355.812 174.792Z" fill="#A7B8FE"/>
<path d="M445.976 174.792C445.976 175.313 445.822 175.823 445.532 176.256C445.242 176.69 444.831 177.027 444.349 177.227C443.868 177.426 443.338 177.479 442.827 177.377C442.315 177.275 441.846 177.024 441.477 176.656C441.108 176.287 440.857 175.817 440.756 175.306C440.654 174.795 440.706 174.265 440.906 173.783C441.105 173.302 441.443 172.89 441.876 172.6C442.31 172.311 442.819 172.156 443.341 172.156C444.04 172.156 444.71 172.434 445.204 172.928C445.699 173.422 445.976 174.093 445.976 174.792Z" fill="#A7B8FE"/>
<path d="M92.3201 174.792C92.3201 175.313 92.1655 175.823 91.8759 176.256C91.5863 176.69 91.1746 177.027 90.6931 177.227C90.2115 177.426 89.6815 177.479 89.1703 177.377C88.659 177.275 88.1894 177.024 87.8208 176.656C87.4522 176.287 87.2012 175.817 87.0995 175.306C86.9978 174.795 87.05 174.265 87.2495 173.783C87.4489 173.302 87.7868 172.89 88.2202 172.6C88.6536 172.311 89.1632 172.156 89.6844 172.156C90.3835 172.156 91.0538 172.434 91.5481 172.928C92.0424 173.422 92.3201 174.093 92.3201 174.792Z" fill="#A7B8FE"/>
<path d="M11.4197 174.792C11.4197 175.313 11.2649 175.823 10.975 176.257C10.6851 176.69 10.2731 177.028 9.79105 177.228C9.30905 177.427 8.77876 177.479 8.26731 177.376C7.75587 177.274 7.28626 177.022 6.91794 176.653C6.54962 176.284 6.29915 175.814 6.19824 175.302C6.09733 174.79 6.15051 174.26 6.35106 173.778C6.55161 173.297 6.8905 172.886 7.32483 172.597C7.75917 172.308 8.26942 172.155 8.79099 172.156C9.4888 172.158 10.1574 172.437 10.6502 172.931C11.1429 173.425 11.4197 174.094 11.4197 174.792Z" fill="#A7B8FE"/>
<path d="M171.463 129.121C171.464 129.642 171.311 130.153 171.022 130.587C170.733 131.021 170.322 131.36 169.84 131.561C169.359 131.761 168.829 131.815 168.317 131.714C167.805 131.613 167.335 131.362 166.966 130.994C166.597 130.626 166.345 130.156 166.243 129.645C166.14 129.133 166.192 128.603 166.391 128.121C166.591 127.639 166.928 127.227 167.362 126.937C167.796 126.647 168.305 126.492 168.827 126.492C169.525 126.492 170.194 126.769 170.688 127.262C171.182 127.754 171.461 128.423 171.463 129.121Z" fill="#A7B8FE"/>
<path d="M118.703 129.121C118.704 129.642 118.551 130.153 118.262 130.587C117.973 131.021 117.562 131.36 117.081 131.561C116.599 131.761 116.069 131.815 115.557 131.714C115.046 131.613 114.575 131.362 114.206 130.994C113.837 130.626 113.585 130.156 113.483 129.645C113.381 129.133 113.432 128.603 113.632 128.121C113.831 127.639 114.169 127.227 114.602 126.937C115.036 126.647 115.546 126.492 116.067 126.492C116.765 126.492 117.434 126.769 117.928 127.262C118.423 127.754 118.701 128.423 118.703 129.121Z" fill="#A7B8FE"/>
<path d="M326.722 131.756C328.177 131.756 329.357 130.576 329.357 129.12C329.357 127.664 328.177 126.484 326.722 126.484C325.266 126.484 324.086 127.664 324.086 129.12C324.086 130.576 325.266 131.756 326.722 131.756Z" fill="#A7B8FE"/>
<path d="M353.19 86.0603C354.646 86.0603 355.826 84.8803 355.826 83.4247C355.826 81.9691 354.646 80.7891 353.19 80.7891C351.735 80.7891 350.555 81.9691 350.555 83.4247C350.555 84.8803 351.735 86.0603 353.19 86.0603Z" fill="#A7B8FE"/>
<path d="M273.96 131.756C275.415 131.756 276.595 130.576 276.595 129.12C276.595 127.664 275.415 126.484 273.96 126.484C272.504 126.484 271.324 127.664 271.324 129.12C271.324 130.576 272.504 131.756 273.96 131.756Z" fill="#A7B8FE"/>
<path d="M250.84 266.206C250.84 266.727 250.685 267.237 250.395 267.67C250.106 268.104 249.694 268.441 249.213 268.641C248.731 268.84 248.201 268.893 247.69 268.791C247.179 268.689 246.709 268.438 246.34 268.07C245.972 267.701 245.721 267.231 245.619 266.72C245.517 266.209 245.57 265.679 245.769 265.197C245.968 264.716 246.306 264.304 246.74 264.014C247.173 263.725 247.683 263.57 248.204 263.57C248.903 263.57 249.573 263.848 250.068 264.342C250.562 264.837 250.84 265.507 250.84 266.206Z" fill="#A7B8FE"/>
<path d="M273.96 223.146C275.415 223.146 276.595 221.966 276.595 220.511C276.595 219.055 275.415 217.875 273.96 217.875C272.504 217.875 271.324 219.055 271.324 220.511C271.324 221.966 272.504 223.146 273.96 223.146Z" fill="#A7B8FE"/>
<path d="M326.722 223.146C328.177 223.146 329.357 221.966 329.357 220.511C329.357 219.055 328.177 217.875 326.722 217.875C325.266 217.875 324.086 219.055 324.086 220.511C324.086 221.966 325.266 223.146 326.722 223.146Z" fill="#A7B8FE"/>
<path d="M89.6844 86.0603C91.1401 86.0603 92.3201 84.8803 92.3201 83.4247C92.3201 81.9691 91.1401 80.7891 89.6844 80.7891C88.2288 80.7891 87.0488 81.9691 87.0488 83.4247C87.0488 84.8803 88.2288 86.0603 89.6844 86.0603Z" fill="#A7B8FE"/>
<path d="M118.703 38.4794C118.703 39.0006 118.548 39.5102 118.259 39.9436C117.969 40.3771 117.557 40.7149 117.076 40.9144C116.594 41.1138 116.064 41.166 115.553 41.0643C115.042 40.9626 114.572 40.7116 114.204 40.343C113.835 39.9744 113.584 39.5048 113.482 38.9935C113.381 38.4823 113.433 37.9524 113.632 37.4708C113.832 36.9892 114.17 36.5775 114.603 36.2879C115.036 35.9983 115.546 35.8438 116.067 35.8438C116.766 35.8438 117.437 36.1214 117.931 36.6157C118.425 37.11 118.703 37.7804 118.703 38.4794Z" fill="#A7B8FE"/>
<path d="M154.346 88.9643C154.346 82.7221 149.719 78.5606 143.685 78.2554C141.84 78.1583 139.94 77.9156 138.775 76.6047C138.226 75.9288 137.919 75.0892 137.901 74.2188C137.9 73.733 137.995 73.2519 138.18 72.803C138.366 72.3541 138.638 71.9462 138.982 71.6027C139.325 71.2592 139.733 70.987 140.182 70.8015C140.631 70.6161 141.112 70.5211 141.598 70.522C143.741 70.5217 145.838 71.1459 147.632 72.3184L152.931 67.0125C150.843 65.3777 148.424 64.2179 145.842 63.6139V57.4688H139.219V63.385C136.786 63.9372 134.611 65.2926 133.043 67.2328C131.476 69.1729 130.607 71.5846 130.579 74.0787C130.55 76.5728 131.362 79.0038 132.884 80.9797C134.406 82.9556 136.55 84.361 138.969 84.9693C140.821 85.4132 143.734 85.115 145.489 86.1415C145.962 86.4388 146.347 86.8573 146.605 87.3536C146.862 87.8499 146.982 88.4061 146.952 88.9643C146.954 89.9382 146.571 90.8733 145.886 91.5658C145.201 92.2583 144.271 92.652 143.297 92.6611C140.497 92.6683 137.801 91.6065 135.758 89.6926L130.549 94.9014C132.96 97.2141 135.958 98.8235 139.219 99.5554V104.14H145.842V99.7079C148.258 99.1273 150.408 97.753 151.95 95.8052C153.492 93.8573 154.335 91.4485 154.346 88.9643Z" fill="#1F47F3" fill-opacity="0.7"/>
<g opacity="0.8">
<path d="M305.14 166.525C305.026 164.746 304.225 163.081 302.905 161.882C301.585 160.684 299.85 160.047 298.068 160.105C296.286 160.164 294.597 160.914 293.359 162.196C292.121 163.479 291.43 165.193 291.434 166.976C291.418 168.043 291.658 169.099 292.133 170.055C292.609 171.01 293.306 171.838 294.167 172.469V168.134C294.212 167.019 294.686 165.965 295.491 165.192C296.296 164.418 297.369 163.987 298.485 163.987C299.601 163.987 300.673 164.418 301.478 165.192C302.283 165.965 302.757 167.019 302.802 168.134V172.296C304.488 170.971 305.216 168.87 305.14 166.525Z" fill="#C6D0FF"/>
</g>
<g opacity="0.4">
<path d="M313.946 177.644L315.333 179.114C315.396 179.182 315.474 179.235 315.561 179.269C315.648 179.303 315.741 179.316 315.834 179.309C315.926 179.302 316.016 179.274 316.096 179.227C316.177 179.18 316.245 179.115 316.297 179.038C318.513 175.724 319.773 171.863 319.937 167.88C320.101 163.897 319.164 159.945 317.229 156.46C315.293 152.975 312.434 150.09 308.966 148.124C305.498 146.158 301.555 145.187 297.57 145.316C296.744 145.343 295.92 145.415 295.101 145.531C291.361 146.082 287.829 147.602 284.858 149.939C281.886 152.277 279.577 155.351 278.16 158.856C276.743 162.361 276.268 166.176 276.781 169.922C277.293 173.668 278.777 177.215 281.084 180.21C281.142 180.283 281.216 180.341 281.3 180.381C281.384 180.421 281.476 180.442 281.569 180.442C281.663 180.442 281.754 180.421 281.838 180.381C281.922 180.341 281.996 180.283 282.055 180.21L283.359 178.657C283.446 178.547 283.494 178.412 283.494 178.272C283.494 178.132 283.446 177.996 283.359 177.887C281.378 175.175 280.175 171.974 279.878 168.628C279.581 165.283 280.201 161.92 281.673 158.901C283.144 155.882 285.411 153.322 288.229 151.495C291.047 149.669 294.31 148.645 297.667 148.534C301.024 148.424 304.347 149.23 307.279 150.867C310.211 152.505 312.642 154.91 314.309 157.826C315.976 160.741 316.817 164.056 316.741 167.414C316.664 170.771 315.674 174.044 313.877 176.881C313.8 176.997 313.766 177.136 313.779 177.275C313.791 177.413 313.85 177.543 313.946 177.644Z" fill="#C6D0FF"/>
</g>
<g opacity="0.6">
<path d="M308.855 172.016L310.54 173.771C310.618 173.858 310.717 173.925 310.828 173.964C310.938 174.003 311.057 174.013 311.173 173.994C311.288 173.974 311.397 173.926 311.489 173.853C311.581 173.78 311.653 173.685 311.698 173.577C312.677 171.502 313.153 169.225 313.085 166.932C313.056 164.972 312.637 163.038 311.852 161.243C311.067 159.447 309.933 157.826 308.514 156.473C307.096 155.121 305.422 154.065 303.591 153.367C301.76 152.668 299.808 152.342 297.849 152.406C295.89 152.471 293.964 152.925 292.183 153.742C290.402 154.56 288.801 155.723 287.475 157.166C286.148 158.609 285.122 160.301 284.457 162.145C283.792 163.988 283.501 165.946 283.601 167.903C283.67 170.193 284.281 172.435 285.384 174.444C285.436 174.548 285.514 174.637 285.61 174.704C285.706 174.77 285.818 174.811 285.934 174.823C286.05 174.834 286.167 174.817 286.275 174.771C286.382 174.725 286.477 174.653 286.549 174.561L288.116 172.696C288.202 172.594 288.256 172.47 288.274 172.339C288.291 172.207 288.27 172.074 288.214 171.954C287.619 170.644 287.289 169.23 287.243 167.792C287.187 166.154 287.495 164.525 288.144 163.02C288.793 161.516 289.767 160.174 290.996 159.09C292.225 158.007 293.679 157.209 295.253 156.754C296.828 156.299 298.483 156.199 300.1 156.46C301.718 156.721 303.258 157.337 304.609 158.263C305.961 159.19 307.09 160.404 307.916 161.819C308.743 163.234 309.245 164.815 309.388 166.447C309.531 168.079 309.311 169.723 308.744 171.26C308.686 171.383 308.666 171.52 308.686 171.655C308.705 171.789 308.764 171.915 308.855 172.016Z" fill="#C6D0FF"/>
</g>
<path d="M413.824 122.508C413.829 122.106 413.754 121.706 413.603 121.333C413.453 120.96 413.229 120.621 412.945 120.335C412.662 120.05 412.324 119.824 411.952 119.67C411.58 119.517 411.181 119.439 410.779 119.442C410.273 119.472 409.775 119.303 409.392 118.971C409.232 118.775 409.144 118.53 409.142 118.277C409.141 118.138 409.168 118 409.22 117.871C409.273 117.743 409.35 117.626 409.448 117.527C409.546 117.428 409.663 117.35 409.791 117.297C409.919 117.243 410.057 117.216 410.196 117.216C410.81 117.215 411.41 117.393 411.923 117.729L413.442 116.217C412.847 115.747 412.155 115.413 411.417 115.239V113.484H409.496V115.177C408.799 115.335 408.176 115.723 407.726 116.278C407.277 116.834 407.029 117.525 407.021 118.239C407.013 118.954 407.246 119.65 407.682 120.216C408.119 120.781 408.733 121.183 409.426 121.357C409.953 121.481 410.813 121.398 411.292 121.689C411.427 121.774 411.536 121.894 411.609 122.035C411.683 122.177 411.717 122.335 411.708 122.494C411.71 122.772 411.602 123.04 411.407 123.239C411.212 123.438 410.946 123.552 410.668 123.555C409.864 123.557 409.09 123.252 408.504 122.702L407.02 124.193C407.703 124.866 408.56 125.335 409.496 125.546V126.864H411.396V125.594C412.088 125.426 412.704 125.031 413.144 124.471C413.584 123.911 413.823 123.22 413.824 122.508Z" fill="#1F47F3"/>
<path d="M410.222 110.578C408.217 110.578 406.256 111.173 404.589 112.287C402.921 113.401 401.621 114.985 400.854 116.838C400.086 118.691 399.886 120.73 400.277 122.697C400.668 124.664 401.634 126.47 403.052 127.888C404.47 129.307 406.277 130.272 408.244 130.664C410.211 131.055 412.25 130.854 414.103 130.087C415.956 129.319 417.539 128.019 418.653 126.352C419.768 124.684 420.362 122.724 420.362 120.718C420.359 118.03 419.289 115.453 417.388 113.552C415.487 111.651 412.91 110.582 410.222 110.578ZM414.731 127.453C413.398 128.343 411.832 128.819 410.23 128.819C408.628 128.82 407.061 128.345 405.729 127.455C404.396 126.565 403.358 125.3 402.745 123.819C402.131 122.339 401.97 120.71 402.283 119.139C402.595 117.567 403.367 116.124 404.499 114.991C405.632 113.857 407.076 113.086 408.647 112.773C410.219 112.46 411.847 112.62 413.328 113.233C414.808 113.847 416.074 114.885 416.964 116.217C418.157 118 418.596 120.183 418.184 122.289C417.772 124.394 416.543 126.251 414.765 127.453H414.731Z" fill="#C6D0FF"/>
<path d="M440.65 104.836H380.184V136.214H440.65V104.836ZM437.702 126.933H437.293C436.444 126.933 435.604 127.099 434.819 127.424C434.035 127.748 433.323 128.225 432.723 128.825C432.123 129.426 431.647 130.139 431.324 130.923C431 131.708 430.834 132.549 430.836 133.398V133.807H389.616V133.398C389.616 131.684 388.936 130.041 387.725 128.829C386.515 127.617 384.872 126.935 383.159 126.933H382.75V114.525H383.159C384.872 114.523 386.515 113.842 387.725 112.63C388.936 111.417 389.616 109.774 389.616 108.061V107.652H430.836V108.061C430.834 108.91 431 109.751 431.324 110.535C431.647 111.32 432.123 112.033 432.723 112.634C433.323 113.234 434.035 113.71 434.819 114.035C435.604 114.36 436.444 114.526 437.293 114.525H437.702V126.933Z" fill="#C6D0FF"/>
<path d="M438.812 104.133V104.175C438.817 104.161 438.817 104.146 438.812 104.133Z" fill="#C6D0FF"/>
<path d="M242.5 221.753H242.59V208.776C242.591 208.487 242.535 208.2 242.425 207.932C242.315 207.665 242.153 207.422 241.949 207.217C241.745 207.012 241.502 206.849 241.235 206.738C240.967 206.627 240.681 206.57 240.392 206.57H201.835C201.546 206.57 201.26 206.627 200.992 206.738C200.725 206.849 200.482 207.012 200.278 207.217C200.074 207.422 199.912 207.665 199.802 207.932C199.692 208.2 199.636 208.487 199.637 208.776V232.462C199.637 233.045 199.868 233.604 200.281 234.016C200.693 234.429 201.252 234.66 201.835 234.66H232.284C232.097 233.879 232.001 233.078 231.999 232.274C231.997 230.894 232.268 229.527 232.795 228.251C233.321 226.975 234.094 225.815 235.07 224.838C236.045 223.861 237.203 223.085 238.478 222.556C239.753 222.027 241.12 221.754 242.5 221.753ZM200.268 217.751V210.586H241.952V217.751H200.268Z" fill="#1F47F3" fill-opacity="0.7"/>
<path d="M241.445 230.469C241.45 230.615 241.5 230.757 241.59 230.873C241.68 230.988 241.804 231.073 241.945 231.114V229.852H241.889C241.763 229.9 241.654 229.984 241.575 230.094C241.496 230.204 241.451 230.334 241.445 230.469Z" fill="#C6D0FF"/>
<path d="M243.527 234.524L243.694 234.434C243.83 234.361 243.944 234.252 244.022 234.119C244.101 233.985 244.141 233.833 244.138 233.678C244.138 233.331 243.937 233.088 243.527 232.984V234.524Z" fill="#C6D0FF"/>
<path d="M233.908 232.258C233.908 233.957 234.412 235.619 235.356 237.032C236.301 238.445 237.643 239.546 239.213 240.197C240.783 240.847 242.511 241.018 244.178 240.686C245.845 240.354 247.376 239.536 248.578 238.334C249.78 237.132 250.598 235.601 250.93 233.934C251.262 232.267 251.091 230.539 250.441 228.969C249.791 227.399 248.689 226.057 247.276 225.112C245.863 224.168 244.201 223.664 242.502 223.664C240.224 223.668 238.04 224.574 236.429 226.185C234.818 227.796 233.912 229.98 233.908 232.258ZM243.528 227.305V228.11C244.319 228.235 245.042 228.629 245.574 229.227C245.608 229.258 245.635 229.295 245.654 229.337C245.673 229.379 245.684 229.424 245.685 229.469C245.682 229.527 245.664 229.583 245.632 229.632C245.6 229.681 245.557 229.72 245.505 229.747L244.659 230.281C244.579 230.323 244.492 230.349 244.402 230.357C244.272 230.359 244.146 230.312 244.048 230.225C243.892 230.091 243.72 229.977 243.535 229.886V231.314C244.389 231.377 245.189 231.758 245.775 232.382C246.073 232.75 246.224 233.214 246.198 233.686C246.2 234.074 246.101 234.455 245.911 234.793C245.721 235.131 245.448 235.414 245.117 235.615C244.636 235.915 244.097 236.109 243.535 236.183V236.877C243.535 236.986 243.492 237.091 243.416 237.169C243.339 237.246 243.235 237.291 243.126 237.293H242.37C242.26 237.293 242.154 237.249 242.076 237.171C241.998 237.093 241.954 236.987 241.954 236.877V236.183C241.281 236.084 240.645 235.812 240.109 235.393C239.797 235.17 239.523 234.898 239.297 234.588C239.245 234.528 239.213 234.453 239.207 234.373C239.208 234.309 239.226 234.246 239.26 234.192C239.295 234.138 239.344 234.095 239.401 234.068L240.178 233.617C240.251 233.583 240.328 233.559 240.407 233.548C240.472 233.546 240.536 233.56 240.594 233.589C240.652 233.618 240.702 233.661 240.74 233.714C241.07 234.09 241.487 234.38 241.954 234.56V232.785C241.539 232.748 241.135 232.631 240.766 232.438C240.397 232.245 240.07 231.981 239.804 231.661C239.539 231.317 239.395 230.895 239.394 230.461C239.393 230.001 239.537 229.552 239.806 229.178C240.075 228.804 240.455 228.525 240.893 228.38C241.23 228.23 241.587 228.129 241.954 228.082V227.298C241.954 227.244 241.965 227.19 241.986 227.14C242.007 227.09 242.037 227.045 242.076 227.007C242.115 226.969 242.161 226.939 242.211 226.918C242.262 226.898 242.316 226.888 242.37 226.889H243.126C243.18 226.89 243.233 226.902 243.282 226.923C243.331 226.944 243.376 226.975 243.413 227.014C243.451 227.053 243.48 227.098 243.5 227.148C243.519 227.198 243.529 227.252 243.528 227.305Z" fill="#C6D0FF"/>
<path d="M220.77 107.273C220.693 107.219 220.602 107.187 220.508 107.181C220.414 107.175 220.32 107.195 220.236 107.239C220.152 107.28 220.082 107.344 220.033 107.424C219.984 107.504 219.958 107.596 219.958 107.689V112.003C215.404 112.268 211.118 114.249 207.966 117.548C204.814 120.847 203.03 125.218 202.973 129.78C202.977 134.18 204.63 138.419 207.606 141.661C207.699 141.757 207.826 141.814 207.959 141.821C208.068 141.82 208.173 141.784 208.258 141.717L212.454 138.429C212.503 138.387 212.543 138.335 212.572 138.277C212.6 138.219 212.617 138.156 212.621 138.091C212.625 138.026 212.616 137.962 212.594 137.901C212.573 137.839 212.539 137.783 212.496 137.735C210.399 135.632 209.222 132.784 209.222 129.815C209.258 126.919 210.383 124.143 212.372 122.038C214.361 119.933 217.069 118.654 219.958 118.454V122.775C219.957 122.867 219.983 122.957 220.032 123.035C220.081 123.112 220.152 123.174 220.236 123.212C220.322 123.252 220.418 123.267 220.512 123.256C220.606 123.245 220.695 123.208 220.77 123.149L225.674 119.272C225.71 119.258 225.743 119.237 225.771 119.21L227.65 117.705L230.57 115.402C230.631 115.355 230.68 115.295 230.713 115.227C230.747 115.158 230.765 115.083 230.765 115.007C230.765 114.931 230.748 114.857 230.714 114.789C230.68 114.722 230.631 114.663 230.57 114.618L220.77 107.273Z" fill="#C6D0FF"/>
<path d="M233.256 117.219L228.783 120.763C228.725 120.808 228.678 120.864 228.644 120.929C228.611 120.994 228.592 121.065 228.589 121.138C228.585 121.208 228.598 121.279 228.625 121.344C228.653 121.408 228.695 121.466 228.748 121.512C229.906 122.567 230.83 123.852 231.461 125.286C232.092 126.719 232.415 128.269 232.41 129.835C232.383 132.855 231.169 135.742 229.03 137.873C226.891 140.004 223.999 141.208 220.98 141.224V136.709C220.978 136.615 220.951 136.524 220.901 136.445C220.851 136.367 220.78 136.303 220.696 136.262C220.612 136.221 220.518 136.204 220.425 136.213C220.332 136.223 220.243 136.257 220.169 136.313L215.383 140.003C215.297 140.034 215.221 140.087 215.161 140.156L210.687 143.624C210.629 143.669 210.581 143.726 210.549 143.793C210.516 143.859 210.5 143.932 210.5 144.005C210.501 144.079 210.519 144.151 210.551 144.217C210.583 144.283 210.63 144.341 210.687 144.387L220.189 152.134C220.279 152.203 220.388 152.244 220.501 152.252C220.575 152.252 220.648 152.238 220.716 152.21C220.801 152.173 220.873 152.112 220.923 152.034C220.974 151.956 221.001 151.866 221.001 151.773V147.612C230.982 147.681 239.27 139.768 239.27 129.794C239.267 127.449 238.796 125.129 237.884 122.97C236.971 120.81 235.636 118.855 233.957 117.219C233.86 117.133 233.736 117.086 233.607 117.086C233.478 117.086 233.353 117.133 233.256 117.219Z" fill="#A7B8FE"/>
<path d="M143.101 267.351C143.099 266.832 142.964 266.322 142.709 265.869C142.454 265.417 142.087 265.038 141.644 264.767C141.201 264.496 140.696 264.343 140.177 264.323C139.658 264.302 139.143 264.415 138.679 264.65C138.216 264.884 137.821 265.234 137.531 265.665C137.241 266.095 137.066 266.593 137.022 267.111C136.979 267.628 137.069 268.148 137.283 268.621C137.497 269.094 137.829 269.505 138.246 269.813L137.428 275.619H142.644L141.846 269.813C142.234 269.531 142.55 269.16 142.768 268.733C142.986 268.305 143.101 267.831 143.101 267.351Z" fill="#D2DAFD"/>
<path d="M136.426 252.37C135.742 252.81 135.18 253.415 134.791 254.128C134.402 254.842 134.199 255.642 134.199 256.455V260.873H145.879V256.42C145.408 252.384 140.802 249.589 136.426 252.37Z" fill="#D2DAFD"/>
<path d="M160.747 229.703H119.368L98.6855 265.534L119.368 301.364H160.747L181.43 265.534L160.747 229.703ZM152.75 280.57H127.372V260.873H129.619V256.448C129.609 254.733 130.067 253.048 130.943 251.574C131.819 250.1 133.081 248.893 134.592 248.083C142.513 243.922 150.496 249.595 150.496 257.1H150.427V260.866H152.75V280.57Z" fill="#1F47F3" fill-opacity="0.2"/>
<path opacity="0.2" d="M301.106 167.853C301.096 167.533 301.022 167.218 300.89 166.927C300.757 166.636 300.569 166.374 300.335 166.155C300.101 165.937 299.827 165.767 299.527 165.655C299.227 165.542 298.908 165.49 298.589 165.501H298.415C297.596 165.529 296.821 165.88 296.26 166.478C295.7 167.076 295.4 167.873 295.426 168.692V172.853V182.043C295.371 182.328 295.544 188.716 295.544 188.716C294.982 188.182 294.365 187.571 293.803 186.989C292.372 185.661 290.549 184.834 288.608 184.63C287.97 184.52 287.315 184.659 286.777 185.019C286.644 185.125 286.519 185.241 286.402 185.366C285.633 186.17 285.078 187.446 285.66 188.362C285.959 188.75 286.343 189.064 286.784 189.277C287.662 189.676 288.457 190.236 289.128 190.928C290.411 192.461 293.373 195.88 295.19 197.705C295.558 197.92 296.355 198.662 296.723 198.842C297.571 199.308 298.368 199.862 299.102 200.493C299.648 200.867 300.226 201.192 300.829 201.464C302.619 202.38 304.619 202.808 306.627 202.705C309.083 202.622 311.316 202.705 312.911 201.193H313.001L313.043 201.082C313.865 200.296 314.513 199.347 314.946 198.296C315.38 197.245 315.589 196.115 315.561 194.979C315.561 194.396 315.471 192.253 315.457 191.851L315.193 183.736C315.193 183.188 314.992 181.343 313.418 180.844C312.73 180.619 311.982 180.677 311.337 181.003H311.15C311.035 180.539 310.782 180.12 310.424 179.803C310.066 179.486 309.62 179.285 309.145 179.227C308.706 179.148 308.255 179.159 307.82 179.262C307.386 179.365 306.977 179.556 306.62 179.824C306.359 179.303 305.934 178.882 305.41 178.625C304.887 178.368 304.293 178.29 303.721 178.402C303.271 178.454 302.836 178.597 302.443 178.824C302.051 179.051 301.709 179.356 301.439 179.72L301.21 172.784L301.106 167.853Z" fill="#1F47F3"/>
<path d="M280.377 360.886L223.918 406.312L225.101 407.782L281.56 362.355L280.377 360.886Z" fill="#C6D0FF"/>
<path d="M283.84 382.246C297.647 392.931 315.106 397.749 332.439 395.658C349.772 393.567 365.584 384.734 376.454 371.072L324.491 329.734L283.84 382.246Z" fill="#E6EAFF" fill-opacity="0.8"/>
<path d="M323.685 257.25C312.205 257.252 300.922 260.23 290.936 265.893C280.95 271.556 272.602 279.711 266.707 289.561C260.812 299.412 257.571 310.623 257.3 322.099C257.029 333.576 259.737 344.927 265.161 355.045L323.685 323.633V257.25Z" fill="#C6D0FF"/>
<path d="M326.514 325.688L378.477 367.046C387.855 355.303 392.953 340.716 392.931 325.688H326.514Z" fill="#1F47F3" fill-opacity="0.2"/>
<path d="M276.744 385.603L276.002 385.027C268.543 379.228 262.372 371.941 257.879 363.63L257.428 362.798L320.696 328.812L276.744 385.603ZM259.994 363.561C264.162 371.033 269.737 377.628 276.411 382.981L313.767 334.729L259.994 363.561Z" fill="#1F47F3"/>
<path d="M226.91 405.098C227.29 405.57 227.521 406.144 227.574 406.748C227.628 407.352 227.501 407.958 227.21 408.49C226.92 409.021 226.478 409.455 225.941 409.736C225.403 410.017 224.795 410.132 224.192 410.067C223.59 410.002 223.02 409.76 222.555 409.371C222.09 408.982 221.75 408.465 221.579 407.883C221.409 407.302 221.414 406.682 221.595 406.104C221.776 405.525 222.124 405.014 222.596 404.633C222.909 404.38 223.27 404.191 223.656 404.077C224.043 403.964 224.448 403.928 224.849 403.971C225.25 404.014 225.638 404.136 225.992 404.329C226.345 404.522 226.657 404.784 226.91 405.098Z" fill="#A7B8FE"/>
<path d="M399.458 317.229H395.123V315.911H398.203H399.458V317.243V317.229ZM392.668 317.229H388.326V315.911H392.668V317.229ZM385.871 317.229H381.529V315.911H385.871V317.229ZM379.074 317.229H374.732V315.911H379.074V317.229ZM372.276 317.229H367.935V315.911H372.276V317.229ZM365.479 317.229H361.138V315.911H365.479V317.229ZM358.682 317.229H354.34V315.911H358.682V317.229ZM351.885 317.229H347.543V315.911H351.885V317.229ZM345.088 317.229H340.746V315.911H345.088V317.229ZM338.291 317.229H333.949V315.911H338.291V317.229ZM333.047 315.676H331.73V311.334H333.047V315.676ZM398.071 313.505C398.001 312.076 397.89 310.633 397.731 309.218L399.042 309.073C399.208 310.515 399.319 311.986 399.389 313.442L398.071 313.505ZM333.047 308.899H331.73V304.557H333.047V308.899ZM397.419 306.819C397.204 305.431 396.947 303.982 396.642 302.588L397.932 302.31C398.244 303.732 398.508 305.182 398.723 306.624L397.419 306.819ZM333.047 302.109H331.73V297.767H333.047V302.109ZM396.087 300.23C395.733 298.842 395.324 297.455 394.88 296.103L396.136 295.687C396.593 297.074 397.003 298.461 397.363 299.897L396.087 300.23ZM333.047 295.312H331.73V290.97H333.047V295.312ZM394.083 293.8C393.583 292.461 393.035 291.123 392.453 289.819L393.66 289.278C394.256 290.61 394.811 291.976 395.317 293.342L394.083 293.8ZM333.047 288.515H331.73V284.173H333.047V288.515ZM391.419 287.613C390.795 286.33 390.108 285.054 389.394 283.819L390.545 283.126C391.239 284.395 391.933 285.699 392.626 287.003L391.419 287.613ZM388.146 281.732C387.39 280.525 386.578 279.325 385.739 278.167L386.814 277.39C387.667 278.576 388.492 279.797 389.262 281.031L388.146 281.732ZM333.047 281.732H331.73V277.39H333.047V281.732ZM384.282 276.232C383.408 275.108 382.479 273.998 381.508 272.93L382.5 272.049C383.464 273.138 384.407 274.276 385.274 275.42L384.282 276.232ZM333.047 274.935H331.73V270.593H333.047V274.935ZM379.885 271.148C378.9 270.114 377.86 269.102 376.812 268.137L377.707 267.166C378.775 268.144 379.83 269.178 380.835 270.232L379.885 271.148ZM333.047 268.137H331.73V263.796H333.047V268.137ZM374.995 266.528C373.906 265.606 372.776 264.704 371.631 263.851L372.422 262.79C373.587 263.664 374.739 264.579 375.848 265.523L374.995 266.528ZM369.662 262.436C368.483 261.632 367.269 260.848 366.048 260.12L366.742 258.982C367.99 259.731 369.232 260.522 370.432 261.347L369.662 262.436ZM333.047 261.34H331.73V256.998H333.047V261.34ZM363.94 258.913C362.691 258.219 361.401 257.574 360.111 256.971L360.666 255.778C361.984 256.388 363.301 257.054 364.578 257.755L363.94 258.913ZM357.892 255.937C356.574 255.382 355.228 254.869 353.883 254.405L354.313 253.156C355.7 253.628 357.087 254.155 358.405 254.717L357.892 255.937ZM333.04 254.488H331.723V250.146H333.04V254.488ZM351.573 253.649C350.186 253.232 348.799 252.858 347.412 252.532L347.71 251.249C349.097 251.582 350.553 251.942 351.941 252.386L351.573 253.649ZM345.046 252.026C343.659 251.755 342.224 251.519 340.809 251.332L340.975 250.021C342.418 250.208 343.874 250.444 345.303 250.715L345.046 252.026ZM338.388 251.075C337.001 250.95 335.53 250.867 334.102 250.826L334.136 249.508C335.593 249.542 337.063 249.633 338.513 249.757L338.388 251.075Z" fill="#A7B8FE"/>
<path d="M544.668 324.732L541.36 322.776L541.956 321.764L545.265 323.727L544.668 324.732ZM539.494 321.667L536.186 319.745L536.782 318.74L540.09 320.696L539.494 321.667ZM534.32 318.608L531.011 316.652L531.608 315.646L534.916 317.602L534.32 318.608ZM529.146 315.542L525.844 313.586L526.434 312.581L529.742 314.537L529.146 315.542ZM523.972 312.484L520.67 310.528L521.26 309.522L524.568 311.478L523.972 312.484ZM518.804 309.418L515.503 307.462L516.092 306.456L519.401 308.412L518.804 309.418ZM513.63 306.359L510.329 304.403L510.918 303.398L514.227 305.354L513.63 306.359ZM508.456 303.301L505.155 301.345L505.744 300.332L509.053 302.295L508.456 303.301ZM503.282 300.235L499.981 298.279L500.577 297.273L503.878 299.229L503.282 300.235ZM498.108 297.176L494.806 295.22L495.403 294.215L498.69 296.164L498.108 297.176ZM492.927 294.083L489.625 292.127L490.222 291.121L493.523 293.077L492.927 294.083ZM487.753 291.024L484.451 289.068L485.048 288.062L488.349 290.018L487.753 291.024Z" fill="#A7B8FE"/>
<path d="M566.403 360.877L565.82 359.865L569.143 357.944L569.725 358.949L566.403 360.877ZM571.605 357.867L571.022 356.855L574.351 354.933L574.934 355.946L571.605 357.867ZM576.814 354.857L576.231 353.845L579.553 351.923L580.136 352.936L576.814 354.857ZM582.015 351.854L581.433 350.841L584.762 348.92L585.345 349.933L582.015 351.854ZM587.224 348.844L586.642 347.831L589.964 345.91L590.547 346.923L587.224 348.844ZM592.433 345.834L591.844 344.821L595.173 342.9L595.755 343.912L592.433 345.834ZM597.635 342.83L597.052 341.818L600.375 339.897L600.964 340.909L597.635 342.83ZM602.844 339.82L602.254 338.808L605.583 336.886L606.166 337.899L602.844 339.82ZM608.046 336.81L607.463 335.804L610.785 333.883L611.375 334.889L608.046 336.81ZM613.254 333.807L612.665 332.794L615.994 330.873L616.577 331.886L613.254 333.807ZM618.456 330.797L617.874 329.784L621.196 327.863L621.786 328.876L618.456 330.797ZM623.665 327.794L623.076 326.781L626.405 324.86L626.987 325.872L623.665 327.794ZM628.867 324.783L628.284 323.771L631.607 321.85L632.196 322.862L628.867 324.783ZM634.076 321.773L633.486 320.761L636.815 318.839L637.398 319.852L634.076 321.773ZM639.278 318.77L638.695 317.757L642.017 315.836L642.607 316.849L639.278 318.77ZM644.487 315.76L643.897 314.747L647.226 312.826L647.809 313.839L644.487 315.76ZM649.688 312.757L649.106 311.744L652.435 309.823L653.018 310.835L649.688 312.757ZM654.897 309.747L654.315 308.734L657.637 306.813L658.219 307.825L654.897 309.747ZM660.099 306.736L659.516 305.724L662.846 303.803L663.428 304.815L660.099 306.736ZM665.308 303.733L664.725 302.721L668.047 300.799L668.63 301.812L665.308 303.733ZM670.51 300.723L669.927 299.71L673.256 297.789L673.839 298.802L670.51 300.723ZM675.719 297.713L675.136 296.7L678.458 294.779L679.048 295.792L675.719 297.713ZM680.927 294.71L680.338 293.697L683.667 291.776L684.25 292.788L680.927 294.71ZM686.129 291.699L685.547 290.687L688.869 288.766L689.458 289.778L686.129 291.699Z" fill="#A7B8FE"/>
<path d="M192.235 411.037V400.418H190.467V398.961C190.982 398.897 191.471 398.701 191.889 398.393C192.316 398.105 192.654 397.704 192.867 397.234H194.316V411.037H192.235Z" fill="#1F47F3"/>
<path d="M196.058 401.134C196.021 400.589 196.096 400.042 196.277 399.527C196.458 399.012 196.742 398.539 197.112 398.137C197.429 397.829 197.805 397.589 198.218 397.431C198.63 397.274 199.071 397.203 199.512 397.222C199.951 397.219 200.386 397.308 200.787 397.485C201.189 397.662 201.549 397.922 201.843 398.248C202.466 398.886 202.812 399.743 202.807 400.634C202.804 401.576 202.588 402.506 202.176 403.353C201.706 404.226 201.173 405.063 200.58 405.857C200.351 406.176 200.018 406.682 199.568 407.362L199.193 407.924C198.95 408.291 198.77 408.617 198.645 408.791C198.605 408.853 198.574 408.92 198.555 408.992H202.64V411.024H196.023V409.117C196.152 408.851 196.305 408.598 196.481 408.361L196.953 407.667L197.494 406.89C197.813 406.453 198.305 405.76 198.985 404.81C199.545 404.051 200.024 403.235 200.414 402.375C200.656 401.855 200.788 401.291 200.802 400.717C200.813 400.331 200.688 399.953 200.448 399.649C200.329 399.502 200.178 399.383 200.006 399.302C199.834 399.222 199.646 399.182 199.457 399.185C199.168 399.189 198.889 399.29 198.665 399.473C198.44 399.655 198.285 399.908 198.222 400.19C198.139 400.445 198.099 400.713 198.104 400.981V401.508H196.058V401.134Z" fill="#1F47F3"/>
<path d="M209.125 402.29C209.12 402.63 209.016 402.961 208.824 403.242C208.632 403.523 208.362 403.742 208.047 403.871C207.732 403.999 207.386 404.032 207.052 403.966C206.719 403.899 206.412 403.736 206.17 403.497C206.009 403.34 205.881 403.152 205.794 402.945C205.707 402.737 205.663 402.515 205.664 402.29V398.343C205.664 397.883 205.847 397.442 206.172 397.117C206.497 396.792 206.938 396.609 207.398 396.609C207.858 396.609 208.299 396.792 208.624 397.117C208.949 397.442 209.132 397.883 209.132 398.343L209.125 402.29ZM207.551 411.306H206.323L213.37 396.741H214.584L207.551 411.306ZM206.732 402.29C206.723 402.378 206.732 402.467 206.76 402.551C206.787 402.635 206.832 402.712 206.891 402.778C206.95 402.844 207.022 402.896 207.103 402.932C207.184 402.968 207.271 402.987 207.36 402.987C207.448 402.987 207.536 402.968 207.617 402.932C207.697 402.896 207.77 402.844 207.829 402.778C207.888 402.712 207.933 402.635 207.96 402.551C207.988 402.467 207.997 402.378 207.988 402.29V398.35C207.989 398.268 207.974 398.186 207.943 398.11C207.912 398.034 207.866 397.964 207.807 397.906C207.687 397.791 207.527 397.726 207.36 397.726C207.193 397.726 207.033 397.791 206.913 397.906C206.854 397.964 206.808 398.034 206.777 398.11C206.746 398.186 206.731 398.268 206.732 398.35V402.29ZM213.522 403.732C213.75 403.729 213.976 403.773 214.186 403.861C214.397 403.95 214.586 404.081 214.743 404.246C214.903 404.404 215.03 404.593 215.116 404.802C215.202 405.01 215.245 405.234 215.242 405.459V409.406C215.247 409.631 215.204 409.855 215.117 410.063C215.03 410.271 214.9 410.458 214.736 410.613C214.413 410.934 213.975 411.115 213.519 411.115C213.063 411.115 212.625 410.934 212.302 410.613C212.139 410.459 212.01 410.272 211.923 410.066C211.836 409.859 211.792 409.637 211.795 409.413V405.466C211.792 405.239 211.835 405.014 211.922 404.804C212.009 404.594 212.138 404.404 212.302 404.246C212.46 404.083 212.65 403.953 212.86 403.865C213.069 403.777 213.295 403.732 213.522 403.732ZM214.119 405.439C214.12 405.356 214.105 405.275 214.074 405.198C214.043 405.122 213.997 405.053 213.939 404.995C213.818 404.879 213.658 404.814 213.491 404.814C213.324 404.814 213.164 404.879 213.044 404.995C212.985 405.053 212.939 405.122 212.908 405.198C212.877 405.275 212.862 405.356 212.863 405.439V409.378C212.854 409.466 212.864 409.555 212.891 409.639C212.918 409.723 212.963 409.801 213.022 409.867C213.081 409.932 213.154 409.985 213.234 410.021C213.315 410.057 213.403 410.075 213.491 410.075C213.58 410.075 213.667 410.057 213.748 410.021C213.829 409.985 213.901 409.932 213.96 409.867C214.019 409.801 214.064 409.723 214.091 409.639C214.119 409.555 214.128 409.466 214.119 409.378V405.439Z" fill="#1F47F3"/>
</svg>
